<?xml version="1.0" encoding="utf-8"?>
<!-- Generator: Adobe Illustrator 22.0.1, SVG Export Plug-In . SVG Version: 6.00 Build 0)  -->
<svg version="1.1" id="Layer_1" xmlns="http://www.w3.org/2000/svg" xmlns:xlink="http://www.w3.org/1999/xlink" x="0px" y="0px"
	 viewBox="0 0 150 150" style="enable-background:new 0 0 150 150;" xml:space="preserve">
<style type="text/css">
	.st0{fill:#1D768B;}
	.st1{fill:#FFFFFF;}
	.st2{fill:#D1404B;}
</style>
<rect x="0" class="st0" width="150" height="150"/>
<g>
	<polygon class="st1" points="0,139.4 0,150 10.6,150 75,85.6 139.4,150 150,150 150,139.4 85.6,75 150,10.6 150,0 139.4,0 75,64.4 
		10.6,0 0,0 0,10.6 64.4,75 	"/>
	<g>
		<polygon class="st2" points="0,149.9 0,150 7,150 75,82 71.4,78.5 		"/>
		<polygon class="st2" points="150,0 149.9,0 75,75 78.5,78.5 150,7 		"/>
		<polygon class="st2" points="0,0 0,7.1 71.4,78.5 75,75 		"/>
		<polygon class="st2" points="143,150 150,150 78.5,78.5 75,82 		"/>
	</g>
</g>
<g>
	<polygon class="st1" points="150,55 95,55 95,0 55,0 55,55 0,55 0,95 55,95 55,150 95,150 95,95 150,95 	"/>
	<polygon class="st2" points="150,60 90,60 90,0 60,0 60,60 0,60 0,90 60,90 60,150 90,150 90,90 150,90 	"/>
</g>
</svg>
