<?xml version="1.0" encoding="utf-8"?>
<!-- Generator: Adobe Illustrator 22.0.1, SVG Export Plug-In . SVG Version: 6.00 Build 0)  -->
<svg version="1.1" id="Layer_1" xmlns="http://www.w3.org/2000/svg" xmlns:xlink="http://www.w3.org/1999/xlink" x="0px" y="0px"
	 viewBox="0 0 150 150.1" style="enable-background:new 0 0 150 150.1;" xml:space="preserve">
<style type="text/css">
	.st0{fill:none;}
	.st1{fill:none;stroke:#F8D747;stroke-width:5;}
	.st2{opacity:0.25;fill:#F8D747;}
	.st3{fill:none;stroke:#F8D747;stroke-width:4;}
	.st4{font-family:'ArialRoundedMTBold';}
	.st5{font-size:149px;}
</style>
<g id="Ellipse_3">
	<ellipse class="st0" cx="75" cy="75" rx="75" ry="75"/>
	<ellipse class="st1" cx="75" cy="75" rx="72.5" ry="72.5"/>
</g>
<path id="Intersection_3" class="st2" d="M74.5,150h-0.1c-0.3,0-0.6,0-0.9,0L150,73.6c0,2.4,0,4.9-0.2,7.3l-68.9,68.9
	c-1.3,0.1-2.7,0.2-4,0.2h0h-0.1c-0.6,0-1.1,0-1.7,0H74.5z M60.8,148.7l87.9-87.9c0.4,2,0.7,4.1,0.9,6.2l-82.7,82.7
	C64.8,149.4,62.8,149.1,60.8,148.7L60.8,148.7z M148.7,89c-0.6,3.2-1.4,6.4-2.5,9.5l-47.7,47.7c-3.1,1-6.3,1.8-9.5,2.5L148.7,89z
	 M49.6,145.6l96-96c0.6,1.8,1.2,3.6,1.7,5.4L55,147.3C53.2,146.8,51.4,146.3,49.6,145.6z M39.8,141.3L141.3,39.9
	c0.8,1.6,1.6,3.1,2.3,4.8l-99,99C43,142.9,41.4,142.1,39.8,141.3L39.8,141.3z M140.8,111.1c-3.2,5.9-7.3,11.4-12,16.2l-0.1,0.1l0,0
	c-0.2,0.2-0.5,0.5-0.7,0.7c-0.3,0.3-0.6,0.6-1,0.9l-0.1,0.1l0,0c-4.8,4.6-10.1,8.5-16,11.7L140.8,111.1z M31.1,135.9L135.8,31.2
	c1,1.4,1.9,2.8,2.8,4.2L35.4,138.7C33.9,137.8,32.5,136.9,31.1,135.9z M23.4,129.5l106-106l0.3,0.3l0,0l0,0c1,1.1,2,2.2,3,3.4
	L27.1,132.8C25.9,131.7,24.6,130.6,23.4,129.5z M16.6,122.1L122.1,16.7c1.3,1.1,2.6,2.1,3.8,3.3l-106,106
	C18.8,124.7,17.7,123.4,16.6,122.1L16.6,122.1z M10.8,113.8l103-103c1.5,0.9,2.9,1.8,4.3,2.8L13.6,118.1
	C12.6,116.7,11.7,115.3,10.8,113.8z M6,104.5L104.4,6c1.6,0.7,3.2,1.5,4.8,2.3l-101,101C7.4,107.7,6.7,106.1,6,104.5z M2.4,93.9
	L93.9,2.4c1.8,0.5,3.6,1,5.4,1.6L4,99.3C3.4,97.5,2.9,95.7,2.4,93.9z M0.3,81.9L81.8,0.4C83.9,0.5,86,0.8,88,1.2L1.1,88.1
	C0.8,86,0.5,83.9,0.3,81.9z M0,75c0-0.8,0-1.5,0-2.3c0.1-1.7,0.2-3.4,0.3-5.1L67.6,0.4C70,0.2,72.5,0,74.9,0H75L0,75
	C0,75.1,0,75.1,0,75z M4.5,49.4L49.3,4.6c3.2-1.2,6.6-2.1,9.9-2.8L1.7,59.3C2.4,55.9,3.3,52.6,4.5,49.4z M35.6,11.2L11.2,35.6
	C17.3,25.7,25.7,17.4,35.6,11.2z"/>
<text transform="matrix(1 0 0 1 32.5181 128.9413)" class="st3 st4 st5">?</text>
</svg>
