<?xml version="1.0" encoding="utf-8"?>
<!-- Generator: Adobe Illustrator 22.0.1, SVG Export Plug-In . SVG Version: 6.00 Build 0)  -->
<svg version="1.1" id="Layer_1" xmlns="http://www.w3.org/2000/svg" xmlns:xlink="http://www.w3.org/1999/xlink" x="0px" y="0px"
	 viewBox="0 0 308.3 190.4" style="enable-background:new 0 0 308.3 190.4;" xml:space="preserve">
<style type="text/css">
	.st0{display:none;}
	.st1{display:inline;}
	.st2{fill:#FFFFFF;}
	.st3{fill:#F8D747;}
</style>
<g id="streger_copy" class="st0">
	<g class="st1">
		<rect x="-228" y="-189.1" transform="matrix(0.7071 -0.7071 0.7071 0.7071 153.0409 -7.3702)" width="591.3" height="1.4"/>
		<rect x="-224.9" y="-186" transform="matrix(0.7071 -0.7071 0.7071 0.7071 151.7608 -4.2605)" width="591.3" height="1.4"/>
		<rect x="-221.8" y="-182.9" transform="matrix(0.7071 -0.7071 0.7071 0.7071 150.4808 -1.1508)" width="591.3" height="1.4"/>
		<rect x="-218.7" y="-179.8" transform="matrix(0.7071 -0.7071 0.7071 0.7071 149.2007 1.9587)" width="591.3" height="1.4"/>
		<rect x="-215.6" y="-176.7" transform="matrix(0.7071 -0.7071 0.7071 0.7071 147.9207 5.0683)" width="591.3" height="1.4"/>
		<rect x="-212.6" y="-173.7" transform="matrix(0.7071 -0.7071 0.7071 0.7071 146.6578 8.0194)" width="591.3" height="1.4"/>
		<rect x="-209.5" y="-170.6" transform="matrix(0.7071 -0.7071 0.7071 0.7071 145.3777 11.129)" width="591.3" height="1.4"/>
		<rect x="-206.4" y="-167.5" transform="matrix(0.7071 -0.7071 0.7071 0.7071 144.0977 14.2386)" width="591.3" height="1.4"/>
		<rect x="-203.3" y="-164.4" transform="matrix(0.7071 -0.7071 0.7071 0.7071 142.8177 17.3483)" width="591.3" height="1.4"/>
		<rect x="-200.2" y="-161.3" transform="matrix(0.7071 -0.7071 0.7071 0.7071 141.5376 20.4579)" width="591.3" height="1.4"/>
		<rect x="-197.1" y="-158.2" transform="matrix(0.7071 -0.7071 0.7071 0.7071 140.2576 23.5674)" width="591.3" height="1.4"/>
		<rect x="-194.1" y="-155.2" transform="matrix(0.7071 -0.7071 0.7071 0.7071 138.9946 26.5185)" width="591.3" height="1.4"/>
		<rect x="-191" y="-152.1" transform="matrix(0.7071 -0.7071 0.7071 0.7071 137.7146 29.6281)" width="591.3" height="1.4"/>
		<rect x="-187.9" y="-149" transform="matrix(0.7071 -0.7071 0.7071 0.7071 136.4345 32.7377)" width="591.3" height="1.4"/>
		<rect x="-184.8" y="-145.9" transform="matrix(0.7071 -0.7071 0.7071 0.7071 135.1545 35.8473)" width="591.3" height="1.4"/>
		<rect x="-181.7" y="-142.8" transform="matrix(0.7071 -0.7071 0.7071 0.7071 133.8744 38.957)" width="591.3" height="1.4"/>
		<rect x="-178.6" y="-139.7" transform="matrix(0.7071 -0.7071 0.7071 0.7071 132.5943 42.0666)" width="591.3" height="1.4"/>
		<rect x="-175.6" y="-136.7" transform="matrix(0.7071 -0.7071 0.7071 0.7071 131.3315 45.0176)" width="591.3" height="1.4"/>
		<rect x="-172.5" y="-133.6" transform="matrix(0.7071 -0.7071 0.7071 0.7071 130.0514 48.1272)" width="591.3" height="1.4"/>
		<rect x="-169.4" y="-130.5" transform="matrix(0.7071 -0.7071 0.7071 0.7071 128.7713 51.2369)" width="591.3" height="1.4"/>
		<rect x="-166.3" y="-127.4" transform="matrix(0.7071 -0.7071 0.7071 0.7071 127.4913 54.3465)" width="591.3" height="1.4"/>
		<rect x="-163.2" y="-124.3" transform="matrix(0.7071 -0.7071 0.7071 0.7071 126.2113 57.4561)" width="591.3" height="1.4"/>
		<rect x="-160.1" y="-121.2" transform="matrix(0.7071 -0.7071 0.7071 0.7071 124.9312 60.5657)" width="591.3" height="1.4"/>
		<rect x="-157.1" y="-118.2" transform="matrix(0.7071 -0.7071 0.7071 0.7071 123.6683 63.5167)" width="591.3" height="1.4"/>
		<rect x="-154" y="-115.1" transform="matrix(0.7071 -0.7071 0.7071 0.7071 122.3883 66.6264)" width="591.3" height="1.4"/>
		<rect x="-150.9" y="-112" transform="matrix(0.7071 -0.7071 0.7071 0.7071 121.1082 69.7359)" width="591.3" height="1.4"/>
		<rect x="-147.8" y="-108.9" transform="matrix(0.7071 -0.7071 0.7071 0.7071 119.8281 72.8456)" width="591.3" height="1.4"/>
		<rect x="-144.7" y="-105.8" transform="matrix(0.7071 -0.7071 0.7071 0.7071 118.548 75.9552)" width="591.3" height="1.4"/>
		<rect x="-141.6" y="-102.7" transform="matrix(0.7071 -0.7071 0.7071 0.7071 117.268 79.0648)" width="591.3" height="1.4"/>
		<rect x="-138.6" y="-99.6" transform="matrix(0.7071 -0.7071 0.7071 0.7071 115.9173 82.0865)" width="591.3" height="1.4"/>
		<rect x="-135.5" y="-96.6" transform="matrix(0.7071 -0.7071 0.7071 0.7071 114.725 85.1255)" width="591.3" height="1.4"/>
		<rect x="-132.4" y="-93.5" transform="matrix(0.7071 -0.7071 0.7071 0.7071 113.445 88.2351)" width="591.3" height="1.4"/>
		<rect x="-129.3" y="-90.4" transform="matrix(0.7071 -0.7071 0.7071 0.7071 112.165 91.3447)" width="591.3" height="1.4"/>
		<rect x="-126.2" y="-87.3" transform="matrix(0.7071 -0.7071 0.7071 0.7071 110.8849 94.4543)" width="591.3" height="1.4"/>
		<rect x="-123.1" y="-84.2" transform="matrix(0.7071 -0.7071 0.7071 0.7071 109.6049 97.5639)" width="591.3" height="1.4"/>
		<rect x="-120.1" y="-81.1" transform="matrix(0.7071 -0.7071 0.7071 0.7071 108.2541 100.5856)" width="591.3" height="1.4"/>
		<rect x="-117" y="-78.1" transform="matrix(0.7071 -0.7071 0.7071 0.7071 107.0619 103.6246)" width="591.3" height="1.4"/>
		<rect x="-113.9" y="-75" transform="matrix(0.7071 -0.7071 0.7071 0.7071 105.7819 106.7342)" width="591.3" height="1.4"/>
		<rect x="-110.8" y="-71.9" transform="matrix(0.7071 -0.7071 0.7071 0.7071 104.5018 109.8438)" width="591.3" height="1.4"/>
		<rect x="-107.7" y="-68.8" transform="matrix(0.7071 -0.7071 0.7071 0.7071 103.2217 112.9534)" width="591.3" height="1.4"/>
		<rect x="-104.6" y="-65.7" transform="matrix(0.7071 -0.7071 0.7071 0.7071 101.9417 116.0631)" width="591.3" height="1.4"/>
		<rect x="-101.6" y="-62.6" transform="matrix(0.7071 -0.7071 0.7071 0.7071 100.5909 119.0848)" width="591.3" height="1.4"/>
		<rect x="-98.5" y="-59.6" transform="matrix(0.7071 -0.7071 0.7071 0.7071 99.3987 122.1237)" width="591.3" height="1.4"/>
		<rect x="-95.4" y="-56.5" transform="matrix(0.7071 -0.7071 0.7071 0.7071 98.1187 125.2334)" width="591.3" height="1.4"/>
		<rect x="-92.3" y="-53.4" transform="matrix(0.7071 -0.7071 0.7071 0.7071 96.8387 128.3429)" width="591.3" height="1.4"/>
		<rect x="-89.2" y="-50.3" transform="matrix(0.7071 -0.7071 0.7071 0.7071 95.5586 131.4525)" width="591.3" height="1.4"/>
		<rect x="-86.1" y="-47.2" transform="matrix(0.7071 -0.7071 0.7071 0.7071 94.2785 134.5621)" width="591.3" height="1.4"/>
		<rect x="-83.1" y="-44.1" transform="matrix(0.7071 -0.7071 0.7071 0.7071 92.9277 137.5839)" width="591.3" height="1.4"/>
		<rect x="-80" y="-41.1" transform="matrix(0.7071 -0.7071 0.7071 0.7071 91.7356 140.6228)" width="591.3" height="1.4"/>
		<rect x="-76.9" y="-38" transform="matrix(0.7071 -0.7071 0.7071 0.7071 90.4555 143.7324)" width="591.3" height="1.4"/>
		<rect x="-73.8" y="-34.9" transform="matrix(0.7071 -0.7071 0.7071 0.7071 89.1754 146.842)" width="591.3" height="1.4"/>
		<rect x="-70.7" y="-31.8" transform="matrix(0.7071 -0.7071 0.7071 0.7071 87.8954 149.9516)" width="591.3" height="1.4"/>
		<rect x="-67.6" y="-28.7" transform="matrix(0.7071 -0.7071 0.7071 0.7071 86.6154 153.0612)" width="591.3" height="1.4"/>
		<rect x="-64.5" y="-25.7" transform="matrix(0.7071 -0.7071 0.7071 0.7071 85.3646 156.1002)" width="591.3" height="1.4"/>
		<rect x="-61.5" y="-22.6" transform="matrix(0.7071 -0.7071 0.7071 0.7071 84.0724 159.1219)" width="591.3" height="1.4"/>
		<rect x="-58.4" y="-19.5" transform="matrix(0.7071 -0.7071 0.7071 0.7071 82.7923 162.2316)" width="591.3" height="1.4"/>
		<rect x="-55.3" y="-16.4" transform="matrix(0.7071 -0.7071 0.7071 0.7071 81.5123 165.3412)" width="591.3" height="1.4"/>
		<rect x="-52.2" y="-13.3" transform="matrix(0.7071 -0.7071 0.7071 0.7071 80.2322 168.4508)" width="591.3" height="1.4"/>
		<rect x="-49.1" y="-10.2" transform="matrix(0.7071 -0.7071 0.7071 0.7071 78.9522 171.5603)" width="591.3" height="1.4"/>
		<rect x="-46" y="-7.2" transform="matrix(0.7071 -0.7071 0.7071 0.7071 77.7014 174.5993)" width="591.3" height="1.4"/>
		<rect x="-43" y="-4.1" transform="matrix(0.7071 -0.7071 0.7071 0.7071 76.4092 177.621)" width="591.3" height="1.4"/>
		<rect x="-39.9" y="-1" transform="matrix(0.7071 -0.7071 0.7071 0.7071 75.1292 180.7306)" width="591.3" height="1.4"/>
		<rect x="-36.8" y="2.1" transform="matrix(0.7071 -0.7071 0.7071 0.7071 73.8491 183.8403)" width="591.3" height="1.4"/>
		<rect x="-33.7" y="5.2" transform="matrix(0.7071 -0.7071 0.7071 0.7071 72.569 186.9499)" width="591.3" height="1.4"/>
		<rect x="-30.6" y="8.3" transform="matrix(0.7071 -0.7071 0.7071 0.7071 71.289 190.0595)" width="591.3" height="1.4"/>
		<rect x="-27.5" y="11.3" transform="matrix(0.7071 -0.7071 0.7071 0.7071 70.0383 193.0984)" width="591.3" height="1.4"/>
		<rect x="-24.5" y="14.4" transform="matrix(0.7071 -0.7071 0.7071 0.7071 68.746 196.1201)" width="591.3" height="1.4"/>
		<rect x="-21.4" y="17.5" transform="matrix(0.7071 -0.7071 0.7071 0.7071 67.466 199.2298)" width="591.3" height="1.4"/>
		<rect x="-18.3" y="20.6" transform="matrix(0.7071 -0.7071 0.7071 0.7071 66.186 202.3394)" width="591.3" height="1.4"/>
		<rect x="-15.2" y="23.7" transform="matrix(0.7071 -0.7071 0.7071 0.7071 64.9059 205.449)" width="591.3" height="1.4"/>
		<rect x="-12.1" y="26.8" transform="matrix(0.7071 -0.7071 0.7071 0.7071 63.6258 208.5586)" width="591.3" height="1.4"/>
		<rect x="-9" y="29.8" transform="matrix(0.7071 -0.7071 0.7071 0.7071 62.3751 211.5975)" width="591.3" height="1.4"/>
		<rect x="-6" y="32.9" transform="matrix(0.7071 -0.7071 0.7071 0.7071 61.0829 214.6192)" width="591.3" height="1.4"/>
		<rect x="-2.9" y="36" transform="matrix(0.7071 -0.7071 0.7071 0.7071 59.8028 217.7289)" width="591.3" height="1.4"/>
		<rect x="0.2" y="39.1" transform="matrix(0.7071 -0.7071 0.7071 0.7071 58.5227 220.8385)" width="591.3" height="1.4"/>
		<rect x="3.3" y="42.2" transform="matrix(0.7071 -0.7071 0.7071 0.7071 57.2427 223.9481)" width="591.3" height="1.4"/>
		<rect x="6.4" y="45.3" transform="matrix(0.7071 -0.7071 0.7071 0.7071 55.9627 227.0577)" width="591.3" height="1.4"/>
		<rect x="9.5" y="48.4" transform="matrix(0.7071 -0.7071 0.7071 0.7071 54.6826 230.1674)" width="591.3" height="1.4"/>
		<rect x="12.5" y="51.4" transform="matrix(0.7071 -0.7071 0.7071 0.7071 53.4197 233.1184)" width="591.3" height="1.4"/>
		<rect x="15.6" y="54.5" transform="matrix(0.7071 -0.7071 0.7071 0.7071 52.1397 236.228)" width="591.3" height="1.4"/>
		<rect x="18.7" y="57.6" transform="matrix(0.7071 -0.7071 0.7071 0.7071 50.8596 239.3376)" width="591.3" height="1.4"/>
		<rect x="21.8" y="60.7" transform="matrix(0.7071 -0.7071 0.7071 0.7071 49.5796 242.4472)" width="591.3" height="1.4"/>
		<rect x="24.9" y="63.8" transform="matrix(0.7071 -0.7071 0.7071 0.7071 48.2995 245.5569)" width="591.3" height="1.4"/>
		<rect x="28" y="66.9" transform="matrix(0.7071 -0.7071 0.7071 0.7071 47.0195 248.6665)" width="591.3" height="1.4"/>
		<rect x="31" y="69.9" transform="matrix(0.7071 -0.7071 0.7071 0.7071 45.7565 251.6175)" width="591.3" height="1.4"/>
		<rect x="34.1" y="73" transform="matrix(0.7071 -0.7071 0.7071 0.7071 44.4765 254.7271)" width="591.3" height="1.4"/>
		<rect x="37.2" y="76.1" transform="matrix(0.7071 -0.7071 0.7071 0.7071 43.1964 257.8367)" width="591.3" height="1.4"/>
		<rect x="40.3" y="79.2" transform="matrix(0.7071 -0.7071 0.7071 0.7071 41.9164 260.9464)" width="591.3" height="1.4"/>
		<rect x="43.4" y="82.3" transform="matrix(0.7071 -0.7071 0.7071 0.7071 40.6363 264.0559)" width="591.3" height="1.4"/>
		<rect x="46.5" y="85.4" transform="matrix(0.7071 -0.7071 0.7071 0.7071 39.3563 267.1656)" width="591.3" height="1.4"/>
		<rect x="49.5" y="88.4" transform="matrix(0.7071 -0.7071 0.7071 0.7071 38.0933 270.1166)" width="591.3" height="1.4"/>
		<rect x="52.6" y="91.5" transform="matrix(0.7071 -0.7071 0.7071 0.7071 36.8133 273.2263)" width="591.3" height="1.4"/>
		<rect x="55.7" y="94.6" transform="matrix(0.7071 -0.7071 0.7071 0.7071 35.5333 276.3358)" width="591.3" height="1.4"/>
		<rect x="58.8" y="97.7" transform="matrix(0.7071 -0.7071 0.7071 0.7071 34.2532 279.4455)" width="591.3" height="1.4"/>
		<rect x="61.9" y="100.8" transform="matrix(0.7071 -0.7071 0.7071 0.7071 32.9731 282.5551)" width="591.3" height="1.4"/>
	</g>
</g>
<g id="Layer_1_1_" class="st0">
	<g class="st1">
		<path d="M-412.6,50.1c0.3-0.8,0.4-1.6,0.5-2.4l-8.4,8.4c1-0.2,1.9-0.5,2.8-0.9L-412.6,50.1z"/>
		<path d="M-412.5,44.3c-0.2-0.5-0.3-0.9-0.5-1.3l-13.5,13.5c0.6,0,1.2,0.1,1.7,0.1L-412.5,44.3z"/>
		<path d="M-414.7,40.9c-0.3-0.3-0.7-0.6-1.1-0.8l-5.4,5.4c0.5,0.2,0.9,0.5,1.1,0.8L-414.7,40.9z"/>
		<path d="M-429.8,56l5.3-5.3c-0.5,0-1.1-0.1-1.7-0.2l-5.2,5.2C-430.9,55.7-430.4,55.8-429.8,56"/>
		<path d="M-429.2,49.7c-0.5-0.2-0.9-0.3-1.4-0.5l-4.8,4.8c0.4,0.2,0.9,0.4,1.3,0.6L-429.2,49.7z"/>
		<path d="M-416.3,34.9c0.1,0.1,0.1,0.1,0.2,0.1l0.5-0.8L-416.3,34.9z"/>
		<path d="M-425.7,44.3c0.5,0.1,1.1,0.2,1.6,0.3l5.8-5.8c-0.5-0.2-0.9-0.3-1.4-0.5L-425.7,44.3z"/>
		<path d="M-418.5,33.3l4.3-4.3c-0.1-0.1-0.3-0.2-0.4-0.3c-0.2-0.2-0.5-0.3-0.7-0.5l-0.5,0.5h0.1l-4,4
			C-419.3,32.9-418.9,33.1-418.5,33.3"/>
		<path d="M-422.8,37.6c-0.5-0.1-1.1-0.2-1.6-0.3l-5.9,5.9c0.5,0.2,1,0.3,1.5,0.4L-422.8,37.6z"/>
		<path d="M-434.1,47l-2,2l-1.9,3.1c0.1,0.1,0.3,0.2,0.4,0.3l4.5-4.5C-433.4,47.5-433.8,47.3-434.1,47"/>
		<path d="M-427.4,36.5c-0.5-0.2-1-0.4-1.3-0.6l-5.4,5.4c0.4,0.3,0.7,0.5,1.1,0.8L-427.4,36.5z"/>
		<path d="M-422.7,31.9l3.2-3.2h-0.1l1.7-1.7c-0.5-0.2-1-0.3-1.5-0.4l-2.1,2.1h0.1l-3,3C-423.8,31.7-423.3,31.8-422.7,31.9"/>
		<path d="M-425.2,28.7L-425.2,28.7l2.7-2.8c-0.6-0.1-1.1-0.1-1.7-0.1l-2.9,2.9h0.1l-9.3,9.3c0.2,0.5,0.4,0.9,0.6,1.3L-425.2,28.7z"
			/>
		<path d="M-437,34.8l6.1-6.1h-0.1l2.6-2.6c-1,0.2-1.9,0.5-2.7,0.8l-1.8,1.8h0.1l-3.8,3.8C-436.8,33.2-436.9,34-437,34.8"/>
	</g>
	<polygon class="st1" points="-406.3,26.7 -403.7,24.1 -403.7,24.2 -398.6,19.1 -398.6,17.2 -403.7,22.3 -403.7,22.2 -406.3,24.9 	
		"/>
	<polygon class="st1" points="-406.3,21.1 -403.7,18.5 -403.7,18.5 -400.5,15.3 -402.4,15.3 -403.7,16.6 -403.7,16.6 -406.3,19.2 	
		"/>
	<polygon class="st1" points="-406.3,32.5 -403.7,29.8 -403.7,29.9 -402.5,28.7 -402.6,28.7 -398.6,24.7 -398.6,22.8 -403.7,27.9 
		-403.7,27.9 -404.5,28.7 -404.5,28.7 -406.3,30.6 	"/>
	<polygon class="st1" points="-380.6,55.9 -378.7,55.9 -378.1,55.2 -378.9,54.1 	"/>
	<polygon class="st1" points="-380.5,52 -381.3,50.9 -386.3,55.9 -384.4,55.9 	"/>
	<polygon class="st1" points="-382.9,48.7 -383.7,47.7 -389.2,53.1 -388.4,54.2 	"/>
	<polygon class="st1" points="-385.3,45.5 -386.2,44.4 -391.5,49.8 -390.7,50.9 	"/>
	<polygon class="st1" points="-398.6,53.1 -398.6,51.2 -403.3,55.9 -401.4,55.9 	"/>
	<polygon class="st1" points="-387.8,42.3 -388.6,41.2 -393.8,46.4 -393,47.5 	"/>
	<polyline class="st1" points="394.1,-114.4 395,-114.4 -46.2,-114.4 -45.3,-114.4 	"/>
	<polyline class="st1" points="-71,-113.1 -71.8,-113 420.6,-113 419.7,-113.1 	"/>
	<polygon class="st1" points="-406.3,43.8 -403.7,41.2 -403.7,41.2 -398.6,36.1 -398.6,34.2 -403.7,39.3 -403.7,39.3 -406.3,41.9 	
		"/>
	<polygon class="st1" points="-406.3,38.1 -403.7,35.5 -403.7,35.6 -398.6,30.5 -398.6,28.7 -398.6,28.5 -398.8,28.7 -398.7,28.7 
		-403.7,33.7 -403.7,33.6 -406.3,36.2 	"/>
	<polygon class="st1" points="-406.3,15.3 -406.3,15.4 -406.2,15.3 	"/>
	<g class="st1">
		<path d="M-366.1,58.4l-9.4,9.4c0.8-0.1,1.5-0.2,2.2-0.3l6.7-6.7C-366.4,59.9-366.2,59.2-366.1,58.4"/>
		<path d="M-366,54.5v-1.9l-14.7,14.7c0.5,0.1,1,0.2,1.6,0.3L-366,54.5z"/>
		<path d="M-378.5,61.3c-0.6-0.1-1.1-0.1-1.6-0.3l-3.2,3.2l-0.6,1.5c0.2,0.1,0.4,0.2,0.6,0.4L-378.5,61.3z"/>
	</g>
	<polygon class="st1" points="-366,46.9 -373.8,54.7 -373.8,56.5 -366,48.8 	"/>
	<polygon class="st1" points="-366,41.3 -373.8,49 -373.8,50.9 -366,43.2 	"/>
	<polygon class="st1" points="-366,35.6 -373.8,43.3 -373.8,45.2 -366,37.5 	"/>
	<polygon class="st1" points="-366,29.9 -373.8,37.7 -373.8,39.6 -366,31.8 	"/>
	<polygon class="st1" points="-373.8,33.9 -368.5,28.7 -368.6,28.7 -366.4,26.5 -368.3,26.5 -370.5,28.7 -370.4,28.7 -373.8,32 	"/>
	<g class="st1">
		<path d="M-369.9,23.3c0.5,0,0.9-0.1,1.3-0.3l3.1-3.1c0.1-0.4,0.3-0.8,0.3-1.3c0-0.3-0.1-0.5-0.1-0.7l-5.2,5.2
			C-370.4,23.2-370.2,23.3-369.9,23.3"/>
	</g>
	<polygon class="st1" points="-373.8,26.5 -373.8,28.2 -372,26.5 	"/>
	<g class="st1">
		<path d="M-373.2,21.9l6.5-6.5c-0.3-0.3-0.7-0.5-1.1-0.8l-6.1,6.1C-373.7,21.2-373.5,21.6-373.2,21.9"/>
		<path d="M-374.3,17.4l3-3C-372.7,14.8-373.8,15.9-374.3,17.4"/>
	</g>
	<polygon class="st1" points="-330.8,28.7 -330.8,28.7 -330.8,28.6 	"/>
	<polygon class="st1" points="-338.5,26.5 -338.5,26.9 -338,26.5 	"/>
	<polygon class="st1" points="-330.8,53.2 -330.8,51.3 -335.3,55.9 -333.4,55.9 	"/>
	<polygon class="st1" points="-330.8,45.7 -338.5,53.4 -338.5,55.3 -330.8,47.6 	"/>
	<g class="st1">
		<path d="M-330.8,40l-16.4,16.4c0.8-0.1,1.6-0.2,2.3-0.4l14.1-14.1V40L-330.8,40z"/>
	</g>
	<polygon class="st1" points="-330.8,34.4 -338.5,42.1 -338.5,44 -330.8,36.3 	"/>
	<g class="st1">
		<path d="M-351,56.4l6.9-6.9c-0.4,0.1-0.7,0.1-1.1,0.1c-0.3,0-0.5-0.1-0.8-0.1l-6.5,6.5C-352,56.2-351.5,56.4-351,56.4"/>
	</g>
	<polygon class="st1" points="-330.8,28.7 -338.5,36.4 -338.5,38.3 -330.8,30.6 	"/>
	<g class="st1">
		<path d="M-355.1,54.9l6.2-6.2c-0.3-0.3-0.6-0.6-0.9-1l-6.4,6.4C-355.8,54.3-355.4,54.6-355.1,54.9"/>
	</g>
	<polygon class="st1" points="-334.6,28.7 -332.4,26.5 -334.2,26.5 -336.5,28.7 -336.4,28.7 -338.5,30.8 -338.5,32.7 -334.5,28.7 	
		"/>
	<g class="st1">
		<path d="M-350.6,42.9l-7.4,7.4c0.1,0.5,0.3,1,0.5,1.4l7-7c0-0.2-0.1-0.3-0.1-0.4V42.9z"/>
	</g>
	<polygon class="st1" points="-350.6,37.2 -358.3,45 -358.3,46.9 -350.6,39.1 	"/>
	<polygon class="st1" points="-350.6,31.6 -358.3,39.3 -358.3,41.2 -350.6,33.5 	"/>
	<polygon class="st1" points="-351.6,28.7 -350.6,27.7 -350.6,26.5 -351.2,26.5 -353.5,28.7 -353.4,28.7 -358.3,33.6 -358.3,35.5 
		-351.5,28.7 	"/>
	<polygon class="st1" points="-356.9,26.5 -358.3,27.9 -358.3,28.7 -358.3,29.9 -357.2,28.7 -357.2,28.7 -355,26.5 	"/>
	<polygon class="st1" points="-319.4,28.7 -323.1,32.4 -323.1,34.3 -317.5,28.7 -317.5,28.7 -315.4,26.5 -315.4,24.6 	"/>
	<polygon class="st1" points="-323.1,28.6 -315.4,20.8 -315.4,18.9 -323.1,26.7 	"/>
	<polygon class="st1" points="-317.3,15.3 -323.1,21 -323.1,22.9 -315.4,15.3 	"/>
	<polygon class="st1" points="-323,15.3 -323.1,15.4 -323.1,17.3 -321.1,15.3 	"/>
	<polygon class="st1" points="-318.2,55.9 -316.4,55.9 -315.4,54.9 -315.4,53 	"/>
	<polygon class="st1" points="-323.1,55.9 -322,55.9 -315.4,49.2 -315.4,47.3 -323.1,55 	"/>
	<polygon class="st1" points="-323.1,51.3 -315.4,43.5 -315.4,41.6 -323.1,49.4 	"/>
	<polygon class="st1" points="-323.1,45.6 -315.4,37.9 -315.4,36 -323.1,43.7 	"/>
	<polygon class="st1" points="-323.1,40 -315.4,32.2 -315.4,30.3 -323.1,38.1 	"/>
	<polygon class="st1" points="-303.5,18.4 -306.1,21.1 -306.1,23 -301.6,18.4 	"/>
	<polygon class="st1" points="-311,26.5 -311,27.8 -309.6,26.5 	"/>
	<g class="st1">
		<path d="M-296.2,56.5c0.9-0.1,1.7-0.2,2.3-0.4l2.3-2.3l-0.4-1.5L-296.2,56.5z"/>
		<path d="M-293,48.9c-0.3,0.3-1.1,0.6-2,0.7l-6.4,6.4c0.5,0.2,1.1,0.2,1.6,0.3l6.9-6.9L-293,48.9z"/>
		<path d="M-298.3,47.2l-6.4,6.4c0.3,0.4,0.5,0.8,0.8,1.1l6.1-6.1C-298,48.2-298.2,47.7-298.3,47.2"/>
		<path d="M-298.4,41.6l-7.7,7.7c0,0.6,0.1,1.1,0.3,1.6l7.4-7.4L-298.4,41.6L-298.4,41.6z"/>
	</g>
	<polygon class="st1" points="-298.4,36 -306.2,43.8 -306.2,45.7 -298.4,37.9 	"/>
	<polygon class="st1" points="-295.6,33.2 -293.7,33.2 -292.4,31.9 -292.4,30 	"/>
	<polygon class="st1" points="-306.2,38.1 -306.2,40 -294.8,28.7 -294.9,28.7 -292.7,26.5 -294.6,26.5 -296.8,28.7 -296.7,28.7 	"/>
	<polygon class="st1" points="-306.2,34.3 -300.5,28.7 -300.6,28.7 -298.3,26.5 -298.4,26.5 -298.4,24.6 -302.5,28.7 -302.4,28.7 
		-306.9,33.2 -306.2,33.2 	"/>
	<polygon class="st1" points="-306.2,28.7 -298.4,20.8 -298.4,18.9 -308.1,28.7 -308.1,28.7 -311,31.7 -311,33.2 -310.7,33.2 	"/>
	<g class="st1">
		<path d="M-267,55.7c1.1-0.3,2.2-0.8,3.2-1.3l2.4-2.4l-0.8-1.1L-267,55.7z"/>
	</g>
	<polygon class="st1" points="-260.7,43.6 -259,43.6 -259,42 	"/>
	<g class="st1">
		<path d="M-264.6,47.5l-9,9c0.1,0,0.2,0,0.3,0c0.6,0,1.1-0.1,1.7-0.1l7.8-7.8L-264.6,47.5z"/>
		<path d="M-264.4,43.6l5.1-5.1c-0.1-0.5-0.3-1-0.4-1.5l-6.6,6.6H-264.4z"/>
		<path d="M-272.4,50.4c-0.2,0-0.4,0-0.7-0.1l-5.4,5.4c0.5,0.1,1,0.3,1.5,0.4l5.9-5.9C-271.6,50.4-272,50.4-272.4,50.4"/>
		<path d="M-277.4,49.1l-5,5c0.4,0.3,0.8,0.4,1.2,0.7l5-5C-276.6,49.5-277,49.3-277.4,49.1"/>
		<path d="M-266.5,38.4h-0.2l-5.2,5.2h1.9l9.5-9.5c-0.2-0.4-0.4-0.9-0.6-1.3l-5.3,5.3C-266.5,38.3-266.5,38.3-266.5,38.4"/>
	</g>
	<polygon class="st1" points="-277.6,43.6 -275.7,43.6 -270.5,38.4 -272.4,38.4 	"/>
	<g class="st1">
		<path d="M-267.4,35.3l4.7-4.7c-0.3-0.3-0.6-0.7-0.9-1l-4.5,4.5C-267.9,34.5-267.6,34.9-267.4,35.3"/>
		<path d="M-280.1,46.1l-4.5,4.5l0,0l-0.7,0.7c0.2,0.3,0.5,0.6,0.7,0.9c0.1,0.1,0.1,0.1,0.2,0.2l5.1-5.1
			C-279.7,46.9-279.9,46.5-280.1,46.1"/>
		<path d="M-284.7,46.9l8.5-8.5h-1.9l-6.6,6.6v-0.1l-2.9,2.9c0.2,0.4,0.4,0.8,0.7,1.2L-284.7,46.9L-284.7,46.9z"/>
		<path d="M-271.8,32.1c0.5,0.1,1,0.3,1.4,0.5l3.9-3.9h-0.1l0.7-0.7c-0.4-0.2-0.8-0.5-1.2-0.7l-1.4,1.4h0.1L-271.8,32.1z"/>
		<path d="M-284.7,41.2l3.9-3.9c0.6-2.3,2.2-4.6,5.3-5.3l3.4-3.4h-0.1l2.4-2.4c-0.5-0.1-1-0.2-1.6-0.3l-2.7,2.7h0.1l-10.6,10.6v-0.1
			l-4.1,4.1c0.1,0.6,0.1,1.1,0.3,1.6L-284.7,41.2L-284.7,41.2z"/>
		<path d="M-284.7,35.6l6.9-6.9h-0.1l2.8-2.8c-0.7,0.1-1.5,0.1-2.1,0.2l-2.6,2.6h0.1l-5,5v-0.1l-3.9,3.9c-0.2,0.7-0.2,1.5-0.3,2.2
			L-284.7,35.6L-284.7,35.6z"/>
	</g>
	<g class="st1">
		<path d="M256.2,152.7c3.4,0,5.6-0.9,6.8-2l-1.7-6.2c-0.4,0.5-1.6,1-2.8,1c-1.8,0-2.8-1.5-2.8-3.5v-13.9h6.3V121h-6.3v-8.4h-8.1
			v8.4h-5.2v7.1h5.1v16.1C247.5,149.8,250.5,152.7,256.2,152.7 M227.2,152.7c8.6,0,13.4-4.2,13.4-9.9c0-12.5-18.4-8.6-18.4-13.2
			c0-1.7,1.9-3,4.9-3c3.8,0,7.3,1.7,9.2,3.6l3.3-5.8c-3.1-2.4-7.2-4.2-12.4-4.2c-8.2,0-12.7,4.5-12.7,9.7c0,12.2,18.3,8,18.3,13.1
			c0,1.9-1.7,3.3-5.2,3.3c-3.8,0-8.4-2.1-10.7-4.3l-3.5,5.9C216.6,150.9,221.8,152.7,227.2,152.7 M193.7,164.5
			c9.9,0,16.4-5.3,16.4-14.6V121H202v19.6c-1.4,1.8-3.9,3.5-7,3.5c-3.5,0-5.7-1.4-5.7-5.7V121h-8.1v20.6c0,6,3.2,9.7,10,9.7
			c5.1,0,8.8-2.4,10.9-4.7v3.2c0,4.4-3.1,7.9-8.3,7.9c-3.3,0-7-1.1-9.3-3.8l-3.6,5.8C184.3,163,188.5,164.5,193.7,164.5 M179,151.9
			L166.4,135l12.2-14h-10l-11.7,13.8v-25.5h-8.1V152h8.1v-7.9l3.7-4l8.2,11.9H179V151.9z M137.9,152.7c3.4,0,5.6-0.9,6.8-2l-1.7-6.2
			c-0.4,0.5-1.6,1-2.8,1c-1.8,0-2.8-1.5-2.8-3.5v-13.9h6.3V121h-6.3v-8.4h-8.1v8.4h-5.1v7.1h5.1v16.1
			C129.2,149.8,132.2,152.7,137.9,152.7 M108.7,152.7c8.6,0,13.4-4.2,13.4-9.9c0-12.5-18.4-8.6-18.4-13.2c0-1.7,1.9-3,4.9-3
			c3.8,0,7.3,1.7,9.2,3.6l3.3-5.8c-3.1-2.4-7.2-4.2-12.4-4.2c-8.2,0-12.7,4.5-12.7,9.7c0,12.2,18.3,8,18.3,13.1
			c0,1.9-1.7,3.3-5.2,3.3c-3.8,0-8.4-2.1-10.7-4.3l-3.5,5.9C98.2,150.9,103.4,152.7,108.7,152.7 M84.9,133.5H69.7
			c0.3-3.1,2.5-6.6,7.6-6.6C82.6,126.9,84.6,130.6,84.9,133.5 M77.7,152.7c4.8,0,9.7-1.5,12.7-4.3l-3.6-5.4c-2,1.9-5.6,3-8.2,3
			c-5.2,0-8.3-3.1-8.9-6.9h23v-1.9c0-10-6.2-17-15.5-17s-16,7.2-16,16.2C61.2,146.4,68.3,152.7,77.7,152.7 M48.2,151.9l16.4-42.7
			H54.4L42.6,142l-11.8-32.8H20.4l16.4,42.7H48.2z"/>
		<path d="M124.6,84.9V63.1c0-6-3.3-9.9-10.1-9.9c-5,0-8.8,2.4-10.8,4.7v-4h-8.1v30.9h8.1V63.9c1.4-1.8,3.8-3.6,7-3.6
			c3.5,0,5.7,1.5,5.7,5.8v18.7L124.6,84.9C124.6,84.8,124.6,84.9,124.6,84.9z M82.9,66.5H67.7c0.3-3.1,2.5-6.6,7.6-6.6
			C80.6,59.9,82.6,63.6,82.9,66.5 M75.7,85.7c4.8,0,9.7-1.5,12.7-4.3L84.8,76c-2,1.9-5.6,3-8.2,3c-5.2,0-8.3-3.1-8.9-6.9h23v-1.9
			c0-10-6.2-17-15.5-17s-16,7.2-16,16.2C59.2,79.4,66.3,85.7,75.7,85.7 M39,78.5c-4.7,0-7.9-3.6-7.9-9c0-5.3,3.2-9,7.9-9
			c2.7,0,5.6,1.5,7,3.5v10.9C44.6,77,41.6,78.5,39,78.5 M54.1,84.9V42.2h-8.2v15.7c-2.4-3.2-5.9-4.7-9.5-4.7
			c-7.9,0-13.7,6.1-13.7,16.2c0,10.4,6,16.3,13.7,16.3c3.8,0,7.1-1.7,9.5-4.7v4L54.1,84.9L54.1,84.9z"/>
		<path d="M194.6,10.5c-4.7,0-7.9-3.2-7.9-8.5s3.2-8.5,7.9-8.5c2.6,0,5.6,1.5,7,3.5V7C200.2,9,197.2,10.5,194.6,10.5 M193,30.5
			c7.6,0,16.7-2.9,16.7-14.6V-13h-8.1v4c-2.5-3.2-5.9-4.7-9.6-4.7c-7.8,0-13.6,5.6-13.6,15.7c0,10.3,6,15.7,13.6,15.7
			c3.8,0,7.2-1.7,9.6-4.8v3c0,6.3-4.7,7.9-8.6,7.9c-3.8,0-7.2-1.1-9.7-3.8l-3.6,5.8C183.6,29.3,187.8,30.5,193,30.5 M159,11.5
			c-4.7,0-7.9-3.6-7.9-9c0-5.3,3.2-9,7.9-9c2.7,0,5.6,1.5,7,3.6V8C164.6,10,161.7,11.5,159,11.5 M174.2,17.9V-13H166v4
			c-2.5-3.2-5.9-4.7-9.5-4.7c-7.9,0-13.7,6.1-13.7,16.2c0,10.4,6,16.3,13.7,16.3c3.8,0,7.1-1.7,9.5-4.7v4h8.2V17.9z M123.5,11.5
			c-4.7,0-7.9-3.6-7.9-9c0-5.3,3.2-9,7.9-9c2.7,0,5.6,1.5,7,3.5V7.9C129.2,10,126.2,11.5,123.5,11.5 M138.7,17.9v-42.6h-8.2V-9
			c-2.4-3.2-5.9-4.7-9.5-4.7c-7.9,0-13.7,6.1-13.7,16.2c0,10.4,6,16.3,13.7,16.3c3.8,0,7.1-1.7,9.5-4.7v4h8.2V17.9z M87.8,11.5
			c-2.6,0-5.6-1.6-7-3.6V-3c1.4-2,4.4-3.5,7-3.5c4.7,0,7.9,3.6,7.9,9C95.7,7.8,92.5,11.5,87.8,11.5 M90.4,18.7
			c7.9,0,13.7-6,13.7-16.3s-5.8-16.2-13.7-16.2c-3.8,0-7.2,1.7-9.5,4.7V-13h-8.1v42.7h8.1V14C83.4,17.2,86.7,18.7,90.4,18.7
			 M45.2,10.7c-7.9,0-13-6.1-13-14c0-8,5.1-14,13-14s12.9,6,12.9,14C58.1,4.6,53,10.7,45.2,10.7 M45.2,18.7
			c12.9,0,22.3-9.2,22.3-22.1s-9.4-22.1-22.3-22.1S22.9-16.3,22.9-3.4C22.8,9.5,32.2,18.7,45.2,18.7"/>
	</g>
	<polyline class="st1" points="-71,-99.9 -71.8,-99.9 420.6,-99.9 419.7,-99.9 	"/>
	<g class="st1">
		<path d="M328.9,70.2c0-10-6.2-17-15.5-17s-16,7.2-16,16.2c0,9.9,7.1,16.3,16.5,16.3c4.8,0,9.7-1.5,12.7-4.3L323,76
			c-2,1.9-5.6,3-8.2,3c-5.2,0-8.3-3.1-8.9-6.9h23V70.2z M305.8,66.5c0.3-3.1,2.5-6.6,7.6-6.6c5.4,0,7.4,3.6,7.7,6.6H305.8z"/>
		<path d="M291,78.5c-1.8,0-2.8-1.5-2.8-3.5V61.1h6.8V54h-6.8V43h-8.1v11h-4.6v7.1h4.6v16.1c0,5.6,3,8.5,8.7,8.5
			c3.4,0,5.6-0.9,6.8-2l-1.7-6.2C293.4,78,292.2,78.5,291,78.5z"/>
		<path d="M271.8,78.5c-1.8,0-2.8-1.5-2.8-3.5V43.1h-8.1v34.1c0,5.6,3,8.5,8.7,8.5c3.3,0,5.6-0.9,6.8-2l-1.7-6.2
			C274.2,78,273.1,78.5,271.8,78.5z"/>
		<path d="M246,75c-1.4,1.8-3.9,3.5-7,3.5c-3.5,0-5.7-1.4-5.7-5.7V54h-8.1v22c0,6,3.2,9.7,10,9.7c5.1,0,8.8-2.4,10.9-4.7v3.9h8.1V54
			h-8.1L246,75L246,75z"/>
		<path d="M211.3,85.8c0,3.5-1.7,5.1-4.2,5.1c-1.9,0-2.9-0.6-4.2-1.6l-2.2,6c2.2,1.6,3.8,2.2,7.7,2.2c7.4,0,11-4.7,11-11.7V54.1
			h-8.1V85.8L211.3,85.8z"/>
		<path d="M215.4,41c-2.6,0-4.8,2.1-4.8,4.8s2.2,4.9,4.8,4.9c2.7,0,4.9-2.2,4.9-4.9S218,41,215.4,41z"/>
		<polygon points="193.5,68.1 205.7,54 195.7,54 184,67.8 184,42.3 175.9,42.3 175.9,84.9 184,84.9 184,77 187.7,73 195.9,84.9 
			206.1,84.9 		"/>
		<path d="M153.8,62.7c0-1.7,1.9-3,4.9-3c3.8,0,7.3,1.7,9.2,3.6l3.3-5.8c-3.1-2.4-7.2-4.2-12.4-4.2c-8.2,0-12.7,4.5-12.7,9.7
			c0,12.2,18.3,8,18.3,13.1c0,1.9-1.7,3.3-5.2,3.3c-3.8,0-8.4-2.1-10.7-4.3L145,81c3.3,3,8.4,4.8,13.8,4.8c8.6,0,13.4-4.2,13.4-9.9
			C172.2,63.4,153.8,67.2,153.8,62.7z"/>
	</g>
</g>
<g id="tekst" class="st0">
</g>
<g id="Layer_3" class="st0">
</g>
<g id="streger" class="st0">
</g>
<g id="Opdag_den_skjulte_Vestkyst_neg">
	<g>
		<path class="st2" d="M235.8,178.5c3.4,0,5.6-0.9,6.8-2l-1.7-6.2c-0.4,0.5-1.6,1-2.8,1c-1.8,0-2.8-1.5-2.8-3.5v-13.9h6.3v-7.1h-6.3
			v-8.4h-8.1v8.4H222v7.1h5.1V170C227.1,175.6,230.1,178.5,235.8,178.5 M206.8,178.5c8.6,0,13.4-4.2,13.4-9.9
			c0-12.5-18.4-8.6-18.4-13.2c0-1.7,1.9-3,4.9-3c3.8,0,7.3,1.7,9.2,3.6l3.3-5.8c-3.1-2.4-7.2-4.2-12.4-4.2c-8.2,0-12.7,4.5-12.7,9.7
			c0,12.2,18.3,8,18.3,13.1c0,1.9-1.7,3.3-5.2,3.3c-3.8,0-8.4-2.1-10.7-4.3l-3.5,5.9C196.2,176.7,201.4,178.5,206.8,178.5
			 M173.3,190.3c9.9,0,16.4-5.3,16.4-14.6v-28.9h-8.1v19.6c-1.4,1.8-3.9,3.5-7,3.5c-3.5,0-5.7-1.4-5.7-5.7v-17.4h-8.1v20.6
			c0,6,3.2,9.7,10,9.7c5.1,0,8.8-2.4,10.9-4.7v3.2c0,4.4-3.1,7.9-8.3,7.9c-3.3,0-7-1.1-9.3-3.8l-3.6,5.8
			C163.9,188.8,168.1,190.3,173.3,190.3 M158.6,177.7L146,160.8l12.2-14h-10l-11.7,13.8v-25.5h-8.1v42.7h8.1v-7.9l3.7-4l8.2,11.9
			h10.2L158.6,177.7L158.6,177.7z M117.5,178.5c3.4,0,5.6-0.9,6.8-2l-1.7-6.2c-0.4,0.5-1.6,1-2.8,1c-1.8,0-2.8-1.5-2.8-3.5v-13.9
			h6.3v-7.1H117v-8.4h-8.1v8.4h-5.1v7.1h5.1V170C108.8,175.6,111.8,178.5,117.5,178.5 M88.3,178.5c8.6,0,13.4-4.2,13.4-9.9
			c0-12.5-18.4-8.6-18.4-13.2c0-1.7,1.9-3,4.9-3c3.8,0,7.3,1.7,9.2,3.6l3.3-5.8c-3.1-2.4-7.2-4.2-12.4-4.2c-8.2,0-12.7,4.5-12.7,9.7
			c0,12.2,18.3,8,18.3,13.1c0,1.9-1.7,3.3-5.2,3.3c-3.8,0-8.4-2.1-10.7-4.3l-3.5,5.9C77.8,176.7,83,178.5,88.3,178.5 M64.5,159.3
			H49.3c0.3-3.1,2.5-6.6,7.6-6.6C62.2,152.7,64.2,156.4,64.5,159.3 M57.3,178.5c4.8,0,9.7-1.5,12.7-4.3l-3.6-5.4c-2,1.9-5.6,3-8.2,3
			c-5.2,0-8.3-3.1-8.9-6.9h23V163c0-10-6.2-17-15.5-17s-16,7.2-16,16.2C40.8,172.2,47.9,178.5,57.3,178.5 M27.8,177.7L44.2,135H34
			l-11.8,32.8L10.4,135H0l16.4,42.7H27.8z"/>
		<path class="st2" d="M104.2,110.7V88.9c0-6-3.3-9.9-10.1-9.9c-5,0-8.8,2.4-10.8,4.7v-4h-8.1v30.9h8.1V89.7c1.4-1.8,3.8-3.6,7-3.6
			c3.5,0,5.7,1.5,5.7,5.8v18.7L104.2,110.7C104.2,110.6,104.2,110.7,104.2,110.7z M62.5,92.3H47.3c0.3-3.1,2.5-6.6,7.6-6.6
			C60.2,85.7,62.2,89.4,62.5,92.3 M55.3,111.5c4.8,0,9.7-1.5,12.7-4.3l-3.6-5.4c-2,1.9-5.6,3-8.2,3c-5.2,0-8.3-3.1-8.9-6.9h23V96
			c0-10-6.2-17-15.5-17s-16,7.2-16,16.2C38.8,105.2,45.9,111.5,55.3,111.5 M18.6,104.3c-4.7,0-7.9-3.6-7.9-9c0-5.3,3.2-9,7.9-9
			c2.7,0,5.6,1.5,7,3.5v10.9C24.2,102.8,21.2,104.3,18.6,104.3 M33.7,110.7V68h-8.2v15.7C23.1,80.5,19.6,79,16,79
			C8.1,79,2.3,85.1,2.3,95.2c0,10.4,6,16.3,13.7,16.3c3.8,0,7.1-1.7,9.5-4.7v4h8.2V110.7z"/>
		<path class="st2" d="M174.2,36.3c-4.7,0-7.9-3.2-7.9-8.5s3.2-8.5,7.9-8.5c2.6,0,5.6,1.5,7,3.5v10
			C179.8,34.8,176.8,36.3,174.2,36.3 M172.6,56.3c7.6,0,16.7-2.9,16.7-14.6V12.8h-8.1v4c-2.5-3.2-5.9-4.7-9.6-4.7
			c-7.8,0-13.6,5.6-13.6,15.7c0,10.3,6,15.7,13.6,15.7c3.8,0,7.2-1.7,9.6-4.8v3c0,6.3-4.7,7.9-8.6,7.9c-3.8,0-7.2-1.1-9.7-3.8
			l-3.6,5.8C163.2,55.1,167.4,56.3,172.6,56.3 M138.6,37.3c-4.7,0-7.9-3.6-7.9-9c0-5.3,3.2-9,7.9-9c2.7,0,5.6,1.5,7,3.6v10.9
			C144.2,35.8,141.3,37.3,138.6,37.3 M153.8,43.7V12.8h-8.2v4c-2.5-3.2-5.9-4.7-9.5-4.7c-7.9,0-13.7,6.1-13.7,16.2
			c0,10.4,6,16.3,13.7,16.3c3.8,0,7.1-1.7,9.5-4.7v4h8.2V43.7z M103.1,37.3c-4.7,0-7.9-3.6-7.9-9c0-5.3,3.2-9,7.9-9
			c2.7,0,5.6,1.5,7,3.5v10.9C108.8,35.8,105.8,37.3,103.1,37.3 M118.3,43.7V1.1h-8.2v15.7c-2.4-3.2-5.9-4.7-9.5-4.7
			c-7.9,0-13.7,6.1-13.7,16.2c0,10.4,6,16.3,13.7,16.3c3.8,0,7.1-1.7,9.5-4.7v4h8.2V43.7z M67.4,37.3c-2.6,0-5.6-1.6-7-3.6V22.8
			c1.4-2,4.4-3.5,7-3.5c4.7,0,7.9,3.6,7.9,9C75.3,33.6,72.1,37.3,67.4,37.3 M70,44.5c7.9,0,13.7-6,13.7-16.3S77.9,12,70,12
			c-3.8,0-7.2,1.7-9.5,4.7v-3.9h-8.1v42.7h8.1V39.8C63,43,66.3,44.5,70,44.5 M24.8,36.5c-7.9,0-13-6.1-13-14c0-8,5.1-14,13-14
			s12.9,6,12.9,14C37.7,30.4,32.6,36.5,24.8,36.5 M24.8,44.5c12.9,0,22.3-9.2,22.3-22.1S37.7,0.3,24.8,0.3S2.5,9.5,2.5,22.4
			C2.4,35.3,11.8,44.5,24.8,44.5"/>
	</g>
	<g>
		<path class="st3" d="M125.4,87.6L132,80C128.1,81.5,125.8,84.4,125.4,87.6z"/>
		<path class="st3" d="M138,79.1c-0.3,0-0.5,0-0.8,0l-11.3,13c0.2,0.5,0.5,1,0.7,1.5l12.6-14.4C138.8,79.1,138.4,79.1,138,79.1z"/>
		<path class="st3" d="M139.9,85.6l4.8-5.5c-0.5-0.2-1.1-0.3-1.6-0.5l-5,5.8C138.7,85.5,139.3,85.5,139.9,85.6z"/>
		<path class="st3" d="M134.1,90l-5.1,5.9c0.4,0.3,0.9,0.5,1.4,0.8l5.2-6C135,90.4,134.5,90.2,134.1,90z"/>
		<path class="st3" d="M155.2,68.1L155.2,68.1L155.2,68.1z"/>
		<polygon class="st3" points="159.6,68.1 155.2,73.1 155.2,75.4 161.6,68.1 		"/>
		<path class="st3" d="M129.8,102.3l-4.5,5.2c0.4,0.3,0.8,0.6,1.3,0.9l4.6-5.3C130.6,102.9,130.2,102.6,129.8,102.3z"/>
		<path class="st3" d="M139.3,91.4l-5.5,6.4c0.6,0.1,1.1,0.3,1.7,0.4l5.6-6.4C140.4,91.6,139.8,91.5,139.3,91.4z"/>
		<path class="st3" d="M144.9,87.3l4.3-4.9c-0.4-0.3-0.9-0.6-1.3-0.8l-4.4,5C143.9,86.8,144.4,87.1,144.9,87.3z"/>
		<path class="st3" d="M144.5,92.7l-5.4,6.2c0.6,0.1,1.1,0.3,1.7,0.4l5.3-6C145.5,93.1,145,92.9,144.5,92.7z"/>
		<polygon class="st3" points="163.3,71.1 155.2,80.4 155.2,82.8 163.3,73.4 		"/>
		<path class="st3" d="M134.3,104.4l-4.8,5.5c0.5,0.2,1,0.4,1.5,0.5l4.9-5.6C135.4,104.7,134.9,104.6,134.3,104.4z"/>
		<polygon class="st3" points="163.3,78.4 155.2,87.8 155.2,90.1 163.3,80.7 		"/>
		<path class="st3" d="M148.8,95.1l-5.3,6.1c0.1,0.2,0.1,0.4,0.1,0.6c0,1.6-1.1,2.7-3.4,3.1l-5.5,6.3c0.6,0.1,1.2,0.1,1.9,0.2
			l13.2-15.2C149.5,95.8,149.2,95.5,148.8,95.1z"/>
		<polygon class="st3" points="163.3,85.8 155.2,95.1 155.2,97.4 163.3,88.1 		"/>
		<path class="st3" d="M151.5,101.7L151.5,101.7c0-0.8-0.1-1.5-0.2-2.1l-10.2,11.7c0.9-0.1,1.7-0.3,2.4-0.5L151.5,101.7z"/>
		<polygon class="st3" points="175,79.8 163.3,93.6 163.3,93.1 155.2,102.4 155.2,104.8 176.9,79.8 		"/>
		<polygon class="st3" points="181.3,79.8 155.2,109.8 155.2,110.7 156.4,110.7 183.3,79.8 		"/>
		<path class="st3" d="M190.6,69.1c-0.5,0.7-0.8,1.6-0.8,2.6c0,0.2,0,0.4,0.1,0.6l4.6-5.3c-1.2,0-2.2,0.5-3,1.2L190.6,69.1z"/>
		<polygon class="st3" points="162.8,110.7 163.3,110.1 163.3,107.8 160.7,110.7 		"/>
		<path class="st3" d="M192.9,76.1l6-6.9c-0.3-0.4-0.6-0.8-1-1.2l-6.3,7.3C192,75.7,192.4,75.9,192.9,76.1z"/>
		<polygon class="st3" points="174,95.5 168.8,101.4 169.7,102.7 175,96.7 		"/>
		<polygon class="st3" points="177,99.4 171.7,105.5 172.5,106.8 177.9,100.7 		"/>
		<polygon class="st3" points="194,79.8 190.6,83.7 190.6,86 196,79.8 		"/>
		<polygon class="st3" points="179.9,103.4 174.5,109.6 175.2,110.7 175.5,110.7 180.9,104.6 		"/>
		<polygon class="st3" points="198.8,81.7 190.6,91.1 190.6,93.4 198.8,84 		"/>
		<polygon class="st3" points="181.9,110.7 183.8,108.6 182.9,107.3 179.9,110.7 		"/>
		<polygon class="st3" points="206.8,79.8 204.5,82.5 204.5,84.8 208.8,79.8 		"/>
		<polygon class="st3" points="198.8,89.1 190.6,98.4 190.6,100.7 198.8,91.4 		"/>
		<path class="st3" d="M182.4,115.2l-0.4,0.4l-1.4,4l3.1-3.5C183.3,115.8,182.8,115.5,182.4,115.2z"/>
		<polygon class="st3" points="212.6,80.5 204.5,89.8 204.5,92.1 212.6,82.8 		"/>
		<polygon class="st3" points="198.8,96.4 190.6,105.7 190.6,108.1 198.8,98.7 		"/>
		<polygon class="st3" points="212.6,87.8 204.5,97.2 204.5,99.5 212.6,90.1 		"/>
		<path class="st3" d="M198.8,103.7l-8.3,9.6c-0.4,1.8-1.4,2.8-2.8,3.2l-5.2,6c0.5,0.2,1,0.4,1.6,0.5l14.7-16.9V103.7L198.8,103.7z"
			/>
		<polygon class="st3" points="225.9,79.8 225.4,80.5 225.4,82.8 228,79.8 		"/>
		<path class="st3" d="M212.6,95.2l-7.9,9.1c0.1,0.6,0.3,1.2,0.5,1.8l7.4-8.6V95.2z"/>
		<path class="st3" d="M198.7,113.5c0.1-0.6,0.1-1.3,0.1-1.9v-0.5l-10.6,12.2c0.8,0,1.5-0.1,2.2-0.2L198.7,113.5z"/>
		<path class="st3" d="M213.2,101.8L207,109c0.4,0.4,0.8,0.7,1.2,1l6-6.9C213.8,102.7,213.5,102.3,213.2,101.8z"/>
		<polygon class="st3" points="241.8,68.9 240.2,70.8 240.2,73.1 243.9,68.9 		"/>
		<polygon class="st3" points="233.5,79.8 232.3,79.8 225.4,87.9 225.4,90.2 233.5,80.8 		"/>
		<path class="st3" d="M218.3,104.3c-0.3,0-0.6,0-0.8,0l-6.1,7c0.6,0.1,1.2,0.2,1.8,0.3l6.3-7.3
			C219.1,104.2,218.7,104.3,218.3,104.3z"/>
		<polygon class="st3" points="233.5,85.8 225.4,95.2 225.4,97.5 233.5,88.2 		"/>
		<polygon class="st3" points="248.3,68.9 248.2,68.9 240.2,78.1 240.2,80.4 248.3,71.1 		"/>
		<polygon class="st3" points="248.3,76.1 240.2,85.5 240.2,87.8 248.3,78.4 		"/>
		<path class="st3" d="M233.5,93.2l-15.6,18c1-0.2,2-0.6,2.9-1l12.8-14.7L233.5,93.2L233.5,93.2z"/>
		<polygon class="st3" points="261,68.8 259.4,70.7 259.4,73 263.1,68.8 		"/>
		<polygon class="st3" points="248.3,83.4 240.2,92.8 240.2,95.1 248.3,85.8 		"/>
		<polygon class="st3" points="233.5,100.5 225.4,109.9 225.4,110.7 226.6,110.7 233.5,102.8 		"/>
		<polygon class="st3" points="233,110.7 233.5,110.2 233.5,107.9 231,110.7 		"/>
		<polygon class="st3" points="248.3,90.8 240.2,100.1 240.2,102.4 248.3,93.1 		"/>
		<polygon class="st3" points="267.5,68.8 267.4,68.8 259.4,78.1 259.4,79.8 257.9,79.8 254.3,84 254.3,86.3 267.5,71 		"/>
		<polygon class="st3" points="267.5,76.1 258.1,86.9 259.4,86.9 259.4,87.7 267.5,78.4 		"/>
		<path class="st3" d="M248.3,98.1l-7.5,8.7c0.2,0.5,0.4,1,0.7,1.5l6.8-7.8V98.1z"/>
		<polygon class="st3" points="270.6,79.8 259.4,92.7 259.4,95.1 272.6,79.8 		"/>
		<path class="st3" d="M251.2,104.3c-0.6,0-1-0.2-1.4-0.4l-5.7,6.6c0.5,0.2,1,0.4,1.5,0.6l5.9-6.8
			C251.3,104.3,251.2,104.3,251.2,104.3z"/>
		<polygon class="st3" points="267.5,90.7 259.4,100.1 259.4,102.4 267.5,93 		"/>
		<polygon class="st3" points="272.8,86.9 274.4,85.2 274.4,82.9 270.8,86.9 		"/>
		<path class="st3" d="M255.1,107.3l-0.5-1.8l-5.1,5.9c0.8,0,1.5-0.1,2.2-0.2L255.1,107.3z"/>
		<path class="st3" d="M278.3,88l5.5-6.4C281.4,83.2,279.5,85.4,278.3,88z"/>
		<path class="st3" d="M267.5,98.1l-7.5,8.7c0.2,0.5,0.4,1,0.7,1.5l6.8-7.8V98.1z"/>
		<path class="st3" d="M290.3,79.3l-13.6,15.6c0,0.1,0,0.3,0,0.4c0,0.6,0,1.2,0.1,1.8l15.7-18C291.7,79.1,291,79.2,290.3,79.3z"/>
		<path class="st3" d="M270.3,104.3c-0.6,0-1.1-0.2-1.5-0.4l-5.7,6.6c0.5,0.2,1,0.4,1.5,0.6l5.9-6.8
			C270.5,104.3,270.4,104.3,270.3,104.3z"/>
		<path class="st3" d="M292.7,85.7c0.1,0,0.2,0,0.3,0l5-5.8c-0.5-0.2-1.1-0.3-1.6-0.5l-5.6,6.4C291.4,85.8,292,85.7,292.7,85.7z"/>
		<path class="st3" d="M274.3,107.3l-0.5-1.8l-5.2,5.9c0.8,0,1.5-0.1,2.2-0.2L274.3,107.3z"/>
		<path class="st3" d="M285.3,92.3l-7.7,8.8c0.2,0.5,0.4,1.1,0.6,1.6l9-10.4H285.3L285.3,92.3z"/>
		<path class="st3" d="M297.9,87.4l4.4-5.1c-0.4-0.3-0.8-0.6-1.2-0.9l-4.5,5.1C297.1,86.8,297.6,87.1,297.9,87.4z"/>
		<polygon class="st3" points="291.7,92.3 286.8,97.9 288.8,97.9 293.7,92.3 		"/>
		<path class="st3" d="M285.5,99.4l-5.5,6.3c0.3,0.4,0.7,0.8,1,1.1l5.1-5.9C286,100.4,285.7,99.9,285.5,99.4z"/>
		<path class="st3" d="M300.3,92l5.2-6c-0.3-0.5-0.6-0.9-0.9-1.3l-4.8,5.5C300.1,90.8,300.3,91.4,300.3,92z"/>
		<path class="st3" d="M288.5,103.3l-4.9,5.6c0.4,0.3,0.9,0.5,1.3,0.8l4.9-5.6C289.4,103.8,288.9,103.6,288.5,103.3z"/>
		<polygon class="st3" points="298.1,92.3 293.2,97.9 295.2,97.9 300.1,92.3 		"/>
		<path class="st3" d="M294.1,104.9c-0.2,0-0.4,0-0.5,0l-5.3,6c0.6,0.1,1.1,0.3,1.7,0.4l5.7-6.5
			C295.1,104.8,294.6,104.9,294.1,104.9z"/>
		<path class="st3" d="M301.6,97.9l6-6.9c-0.1-0.6-0.3-1.2-0.5-1.7l-7.6,8.7L301.6,97.9L301.6,97.9z"/>
		<path class="st3" d="M303.3,103.3l-0.9-1.3l-8.2,9.5c0.7,0,1.5-0.1,2.2-0.2L303.3,103.3z"/>
		<path class="st3" d="M307.9,97.9l0.2-0.3v-1.7c0-0.2,0-0.4,0-0.6l-2.2,2.6H307.9z"/>
		<path class="st3" d="M305.9,107.2l-0.7-1.1l-3.1,3.6C303.5,109,304.9,108.2,305.9,107.2z"/>
	</g>
</g>
<g>
	<path class="st2" d="M235.8,178.5c3.4,0,5.6-0.9,6.8-2l-1.7-6.2c-0.4,0.5-1.6,1-2.8,1c-1.8,0-2.8-1.5-2.8-3.5v-13.9h6.3v-7.1h-6.3
		v-8.4h-8.1v8.4H222v7.1h5.1V170C227.1,175.6,230.1,178.5,235.8,178.5 M206.8,178.5c8.6,0,13.4-4.2,13.4-9.9
		c0-12.5-18.4-8.6-18.4-13.2c0-1.7,1.9-3,4.9-3c3.8,0,7.3,1.7,9.2,3.6l3.3-5.8c-3.1-2.4-7.2-4.2-12.4-4.2c-8.2,0-12.7,4.5-12.7,9.7
		c0,12.2,18.3,8,18.3,13.1c0,1.9-1.7,3.3-5.2,3.3c-3.8,0-8.4-2.1-10.7-4.3l-3.5,5.9C196.2,176.7,201.4,178.5,206.8,178.5
		 M173.3,190.3c9.9,0,16.4-5.3,16.4-14.6v-28.9h-8.1v19.6c-1.4,1.8-3.9,3.5-7,3.5c-3.5,0-5.7-1.4-5.7-5.7v-17.4h-8.1v20.6
		c0,6,3.2,9.7,10,9.7c5.1,0,8.8-2.4,10.9-4.7v3.2c0,4.4-3.1,7.9-8.3,7.9c-3.3,0-7-1.1-9.3-3.8l-3.6,5.8
		C163.9,188.8,168.1,190.3,173.3,190.3 M158.6,177.7L146,160.8l12.2-14h-10l-11.7,13.8v-25.5h-8.1v42.7h8.1v-7.9l3.7-4l8.2,11.9
		h10.2L158.6,177.7L158.6,177.7z M117.5,178.5c3.4,0,5.6-0.9,6.8-2l-1.7-6.2c-0.4,0.5-1.6,1-2.8,1c-1.8,0-2.8-1.5-2.8-3.5v-13.9h6.3
		v-7.1H117v-8.4h-8.1v8.4h-5.1v7.1h5.1V170C108.8,175.6,111.8,178.5,117.5,178.5 M88.3,178.5c8.6,0,13.4-4.2,13.4-9.9
		c0-12.5-18.4-8.6-18.4-13.2c0-1.7,1.9-3,4.9-3c3.8,0,7.3,1.7,9.2,3.6l3.3-5.8c-3.1-2.4-7.2-4.2-12.4-4.2c-8.2,0-12.7,4.5-12.7,9.7
		c0,12.2,18.3,8,18.3,13.1c0,1.9-1.7,3.3-5.2,3.3c-3.8,0-8.4-2.1-10.7-4.3l-3.5,5.9C77.8,176.7,83,178.5,88.3,178.5 M64.5,159.3
		H49.3c0.3-3.1,2.5-6.6,7.6-6.6C62.2,152.7,64.2,156.4,64.5,159.3 M57.3,178.5c4.8,0,9.7-1.5,12.7-4.3l-3.6-5.4c-2,1.9-5.6,3-8.2,3
		c-5.2,0-8.3-3.1-8.9-6.9h23V163c0-10-6.2-17-15.5-17s-16,7.2-16,16.2C40.8,172.2,47.9,178.5,57.3,178.5 M27.8,177.7L44.2,135H34
		l-11.8,32.8L10.4,135H0l16.4,42.7H27.8z"/>
	<path class="st2" d="M104.2,110.7V88.9c0-6-3.3-9.9-10.1-9.9c-5,0-8.8,2.4-10.8,4.7v-4h-8.1v30.9h8.1V89.7c1.4-1.8,3.8-3.6,7-3.6
		c3.5,0,5.7,1.5,5.7,5.8v18.7L104.2,110.7C104.2,110.6,104.2,110.7,104.2,110.7z M62.5,92.3H47.3c0.3-3.1,2.5-6.6,7.6-6.6
		C60.2,85.7,62.2,89.4,62.5,92.3 M55.3,111.5c4.8,0,9.7-1.5,12.7-4.3l-3.6-5.4c-2,1.9-5.6,3-8.2,3c-5.2,0-8.3-3.1-8.9-6.9h23V96
		c0-10-6.2-17-15.5-17s-16,7.2-16,16.2C38.8,105.2,45.9,111.5,55.3,111.5 M18.6,104.3c-4.7,0-7.9-3.6-7.9-9c0-5.3,3.2-9,7.9-9
		c2.7,0,5.6,1.5,7,3.5v10.9C24.2,102.8,21.2,104.3,18.6,104.3 M33.7,110.7V68h-8.2v15.7C23.1,80.5,19.6,79,16,79
		C8.1,79,2.3,85.1,2.3,95.2c0,10.4,6,16.3,13.7,16.3c3.8,0,7.1-1.7,9.5-4.7v4h8.2V110.7z"/>
	<path class="st2" d="M174.2,36.3c-4.7,0-7.9-3.2-7.9-8.5s3.2-8.5,7.9-8.5c2.6,0,5.6,1.5,7,3.5v10C179.8,34.8,176.8,36.3,174.2,36.3
		 M172.6,56.3c7.6,0,16.7-2.9,16.7-14.6V12.8h-8.1v4c-2.5-3.2-5.9-4.7-9.6-4.7c-7.8,0-13.6,5.6-13.6,15.7c0,10.3,6,15.7,13.6,15.7
		c3.8,0,7.2-1.7,9.6-4.8v3c0,6.3-4.7,7.9-8.6,7.9c-3.8,0-7.2-1.1-9.7-3.8l-3.6,5.8C163.2,55.1,167.4,56.3,172.6,56.3 M138.6,37.3
		c-4.7,0-7.9-3.6-7.9-9c0-5.3,3.2-9,7.9-9c2.7,0,5.6,1.5,7,3.6v10.9C144.2,35.8,141.3,37.3,138.6,37.3 M153.8,43.7V12.8h-8.2v4
		c-2.5-3.2-5.9-4.7-9.5-4.7c-7.9,0-13.7,6.1-13.7,16.2c0,10.4,6,16.3,13.7,16.3c3.8,0,7.1-1.7,9.5-4.7v4h8.2V43.7z M103.1,37.3
		c-4.7,0-7.9-3.6-7.9-9c0-5.3,3.2-9,7.9-9c2.7,0,5.6,1.5,7,3.5v10.9C108.8,35.8,105.8,37.3,103.1,37.3 M118.3,43.7V1.1h-8.2v15.7
		c-2.4-3.2-5.9-4.7-9.5-4.7c-7.9,0-13.7,6.1-13.7,16.2c0,10.4,6,16.3,13.7,16.3c3.8,0,7.1-1.7,9.5-4.7v4h8.2V43.7z M67.4,37.3
		c-2.6,0-5.6-1.6-7-3.6V22.8c1.4-2,4.4-3.5,7-3.5c4.7,0,7.9,3.6,7.9,9C75.3,33.6,72.1,37.3,67.4,37.3 M70,44.5
		c7.9,0,13.7-6,13.7-16.3S77.9,12,70,12c-3.8,0-7.2,1.7-9.5,4.7v-3.9h-8.1v42.7h8.1V39.8C63,43,66.3,44.5,70,44.5 M24.8,36.5
		c-7.9,0-13-6.1-13-14c0-8,5.1-14,13-14s12.9,6,12.9,14C37.7,30.4,32.6,36.5,24.8,36.5 M24.8,44.5c12.9,0,22.3-9.2,22.3-22.1
		S37.7,0.3,24.8,0.3S2.5,9.5,2.5,22.4C2.4,35.3,11.8,44.5,24.8,44.5"/>
</g>
<g>
	<path class="st3" d="M125.4,87.6L132,80C128.1,81.5,125.8,84.4,125.4,87.6z"/>
	<path class="st3" d="M138,79.1c-0.3,0-0.5,0-0.8,0l-11.3,13c0.2,0.5,0.5,1,0.7,1.5l12.6-14.4C138.8,79.1,138.4,79.1,138,79.1z"/>
	<path class="st3" d="M139.9,85.6l4.8-5.5c-0.5-0.2-1.1-0.3-1.6-0.5l-5,5.8C138.7,85.5,139.3,85.5,139.9,85.6z"/>
	<path class="st3" d="M134.1,90l-5.1,5.9c0.4,0.3,0.9,0.5,1.4,0.8l5.2-6C135,90.4,134.5,90.2,134.1,90z"/>
	<path class="st3" d="M155.2,68.1L155.2,68.1L155.2,68.1z"/>
	<polygon class="st3" points="159.6,68.1 155.2,73.1 155.2,75.4 161.6,68.1 	"/>
	<path class="st3" d="M129.8,102.3l-4.5,5.2c0.4,0.3,0.8,0.6,1.3,0.9l4.6-5.3C130.6,102.9,130.2,102.6,129.8,102.3z"/>
	<path class="st3" d="M139.3,91.4l-5.5,6.4c0.6,0.1,1.1,0.3,1.7,0.4l5.6-6.4C140.4,91.6,139.8,91.5,139.3,91.4z"/>
	<path class="st3" d="M144.9,87.3l4.3-4.9c-0.4-0.3-0.9-0.6-1.3-0.8l-4.4,5C143.9,86.8,144.4,87.1,144.9,87.3z"/>
	<path class="st3" d="M144.5,92.7l-5.4,6.2c0.6,0.1,1.1,0.3,1.7,0.4l5.3-6C145.5,93.1,145,92.9,144.5,92.7z"/>
	<polygon class="st3" points="163.3,71.1 155.2,80.4 155.2,82.8 163.3,73.4 	"/>
	<path class="st3" d="M134.3,104.4l-4.8,5.5c0.5,0.2,1,0.4,1.5,0.5l4.9-5.6C135.4,104.7,134.9,104.6,134.3,104.4z"/>
	<polygon class="st3" points="163.3,78.4 155.2,87.8 155.2,90.1 163.3,80.7 	"/>
	<path class="st3" d="M148.8,95.1l-5.3,6.1c0.1,0.2,0.1,0.4,0.1,0.6c0,1.6-1.1,2.7-3.4,3.1l-5.5,6.3c0.6,0.1,1.2,0.1,1.9,0.2
		l13.2-15.2C149.5,95.8,149.2,95.5,148.8,95.1z"/>
	<polygon class="st3" points="163.3,85.8 155.2,95.1 155.2,97.4 163.3,88.1 	"/>
	<path class="st3" d="M151.5,101.7L151.5,101.7c0-0.8-0.1-1.5-0.2-2.1l-10.2,11.7c0.9-0.1,1.7-0.3,2.4-0.5L151.5,101.7z"/>
	<polygon class="st3" points="175,79.8 163.3,93.6 163.3,93.1 155.2,102.4 155.2,104.8 176.9,79.8 	"/>
	<polygon class="st3" points="181.3,79.8 155.2,109.8 155.2,110.7 156.4,110.7 183.3,79.8 	"/>
	<path class="st3" d="M190.6,69.1c-0.5,0.7-0.8,1.6-0.8,2.6c0,0.2,0,0.4,0.1,0.6l4.6-5.3c-1.2,0-2.2,0.5-3,1.2L190.6,69.1z"/>
	<polygon class="st3" points="162.8,110.7 163.3,110.1 163.3,107.8 160.7,110.7 	"/>
	<path class="st3" d="M192.9,76.1l6-6.9c-0.3-0.4-0.6-0.8-1-1.2l-6.3,7.3C192,75.7,192.4,75.9,192.9,76.1z"/>
	<polygon class="st3" points="174,95.5 168.8,101.4 169.7,102.7 175,96.7 	"/>
	<polygon class="st3" points="177,99.4 171.7,105.5 172.5,106.8 177.9,100.7 	"/>
	<polygon class="st3" points="194,79.8 190.6,83.7 190.6,86 196,79.8 	"/>
	<polygon class="st3" points="179.9,103.4 174.5,109.6 175.2,110.7 175.5,110.7 180.9,104.6 	"/>
	<polygon class="st3" points="198.8,81.7 190.6,91.1 190.6,93.4 198.8,84 	"/>
	<polygon class="st3" points="181.9,110.7 183.8,108.6 182.9,107.3 179.9,110.7 	"/>
	<polygon class="st3" points="206.8,79.8 204.5,82.5 204.5,84.8 208.8,79.8 	"/>
	<polygon class="st3" points="198.8,89.1 190.6,98.4 190.6,100.7 198.8,91.4 	"/>
	<path class="st3" d="M182.4,115.2l-0.4,0.4l-1.4,4l3.1-3.5C183.3,115.8,182.8,115.5,182.4,115.2z"/>
	<polygon class="st3" points="212.6,80.5 204.5,89.8 204.5,92.1 212.6,82.8 	"/>
	<polygon class="st3" points="198.8,96.4 190.6,105.7 190.6,108.1 198.8,98.7 	"/>
	<polygon class="st3" points="212.6,87.8 204.5,97.2 204.5,99.5 212.6,90.1 	"/>
	<path class="st3" d="M198.8,103.7l-8.3,9.6c-0.4,1.8-1.4,2.8-2.8,3.2l-5.2,6c0.5,0.2,1,0.4,1.6,0.5l14.7-16.9V103.7L198.8,103.7z"
		/>
	<polygon class="st3" points="225.9,79.8 225.4,80.5 225.4,82.8 228,79.8 	"/>
	<path class="st3" d="M212.6,95.2l-7.9,9.1c0.1,0.6,0.3,1.2,0.5,1.8l7.4-8.6V95.2z"/>
	<path class="st3" d="M198.7,113.5c0.1-0.6,0.1-1.3,0.1-1.9v-0.5l-10.6,12.2c0.8,0,1.5-0.1,2.2-0.2L198.7,113.5z"/>
	<path class="st3" d="M213.2,101.8L207,109c0.4,0.4,0.8,0.7,1.2,1l6-6.9C213.8,102.7,213.5,102.3,213.2,101.8z"/>
	<polygon class="st3" points="241.8,68.9 240.2,70.8 240.2,73.1 243.9,68.9 	"/>
	<polygon class="st3" points="233.5,79.8 232.3,79.8 225.4,87.9 225.4,90.2 233.5,80.8 	"/>
	<path class="st3" d="M218.3,104.3c-0.3,0-0.6,0-0.8,0l-6.1,7c0.6,0.1,1.2,0.2,1.8,0.3l6.3-7.3C219.1,104.2,218.7,104.3,218.3,104.3
		z"/>
	<polygon class="st3" points="233.5,85.8 225.4,95.2 225.4,97.5 233.5,88.2 	"/>
	<polygon class="st3" points="248.3,68.9 248.2,68.9 240.2,78.1 240.2,80.4 248.3,71.1 	"/>
	<polygon class="st3" points="248.3,76.1 240.2,85.5 240.2,87.8 248.3,78.4 	"/>
	<path class="st3" d="M233.5,93.2l-15.6,18c1-0.2,2-0.6,2.9-1l12.8-14.7L233.5,93.2L233.5,93.2z"/>
	<polygon class="st3" points="261,68.8 259.4,70.7 259.4,73 263.1,68.8 	"/>
	<polygon class="st3" points="248.3,83.4 240.2,92.8 240.2,95.1 248.3,85.8 	"/>
	<polygon class="st3" points="233.5,100.5 225.4,109.9 225.4,110.7 226.6,110.7 233.5,102.8 	"/>
	<polygon class="st3" points="233,110.7 233.5,110.2 233.5,107.9 231,110.7 	"/>
	<polygon class="st3" points="248.3,90.8 240.2,100.1 240.2,102.4 248.3,93.1 	"/>
	<polygon class="st3" points="267.5,68.8 267.4,68.8 259.4,78.1 259.4,79.8 257.9,79.8 254.3,84 254.3,86.3 267.5,71 	"/>
	<polygon class="st3" points="267.5,76.1 258.1,86.9 259.4,86.9 259.4,87.7 267.5,78.4 	"/>
	<path class="st3" d="M248.3,98.1l-7.5,8.7c0.2,0.5,0.4,1,0.7,1.5l6.8-7.8V98.1z"/>
	<polygon class="st3" points="270.6,79.8 259.4,92.7 259.4,95.1 272.6,79.8 	"/>
	<path class="st3" d="M251.2,104.3c-0.6,0-1-0.2-1.4-0.4l-5.7,6.6c0.5,0.2,1,0.4,1.5,0.6l5.9-6.8
		C251.3,104.3,251.2,104.3,251.2,104.3z"/>
	<polygon class="st3" points="267.5,90.7 259.4,100.1 259.4,102.4 267.5,93 	"/>
	<polygon class="st3" points="272.8,86.9 274.4,85.2 274.4,82.9 270.8,86.9 	"/>
	<path class="st3" d="M255.1,107.3l-0.5-1.8l-5.1,5.9c0.8,0,1.5-0.1,2.2-0.2L255.1,107.3z"/>
	<path class="st3" d="M278.3,88l5.5-6.4C281.4,83.2,279.5,85.4,278.3,88z"/>
	<path class="st3" d="M267.5,98.1l-7.5,8.7c0.2,0.5,0.4,1,0.7,1.5l6.8-7.8V98.1z"/>
	<path class="st3" d="M290.3,79.3l-13.6,15.6c0,0.1,0,0.3,0,0.4c0,0.6,0,1.2,0.1,1.8l15.7-18C291.7,79.1,291,79.2,290.3,79.3z"/>
	<path class="st3" d="M270.3,104.3c-0.6,0-1.1-0.2-1.5-0.4l-5.7,6.6c0.5,0.2,1,0.4,1.5,0.6l5.9-6.8
		C270.5,104.3,270.4,104.3,270.3,104.3z"/>
	<path class="st3" d="M292.7,85.7c0.1,0,0.2,0,0.3,0l5-5.8c-0.5-0.2-1.1-0.3-1.6-0.5l-5.6,6.4C291.4,85.8,292,85.7,292.7,85.7z"/>
	<path class="st3" d="M274.3,107.3l-0.5-1.8l-5.2,5.9c0.8,0,1.5-0.1,2.2-0.2L274.3,107.3z"/>
	<path class="st3" d="M285.3,92.3l-7.7,8.8c0.2,0.5,0.4,1.1,0.6,1.6l9-10.4H285.3L285.3,92.3z"/>
	<path class="st3" d="M297.9,87.4l4.4-5.1c-0.4-0.3-0.8-0.6-1.2-0.9l-4.5,5.1C297.1,86.8,297.6,87.1,297.9,87.4z"/>
	<polygon class="st3" points="291.7,92.3 286.8,97.9 288.8,97.9 293.7,92.3 	"/>
	<path class="st3" d="M285.5,99.4l-5.5,6.3c0.3,0.4,0.7,0.8,1,1.1l5.1-5.9C286,100.4,285.7,99.9,285.5,99.4z"/>
	<path class="st3" d="M300.3,92l5.2-6c-0.3-0.5-0.6-0.9-0.9-1.3l-4.8,5.5C300.1,90.8,300.3,91.4,300.3,92z"/>
	<path class="st3" d="M288.5,103.3l-4.9,5.6c0.4,0.3,0.9,0.5,1.3,0.8l4.9-5.6C289.4,103.8,288.9,103.6,288.5,103.3z"/>
	<polygon class="st3" points="298.1,92.3 293.2,97.9 295.2,97.9 300.1,92.3 	"/>
	<path class="st3" d="M294.1,104.9c-0.2,0-0.4,0-0.5,0l-5.3,6c0.6,0.1,1.1,0.3,1.7,0.4l5.7-6.5C295.1,104.8,294.6,104.9,294.1,104.9
		z"/>
	<path class="st3" d="M301.6,97.9l6-6.9c-0.1-0.6-0.3-1.2-0.5-1.7l-7.6,8.7L301.6,97.9L301.6,97.9z"/>
	<path class="st3" d="M303.3,103.3l-0.9-1.3l-8.2,9.5c0.7,0,1.5-0.1,2.2-0.2L303.3,103.3z"/>
	<path class="st3" d="M307.9,97.9l0.2-0.3v-1.7c0-0.2,0-0.4,0-0.6l-2.2,2.6H307.9z"/>
	<path class="st3" d="M305.9,107.2l-0.7-1.1l-3.1,3.6C303.5,109,304.9,108.2,305.9,107.2z"/>
</g>
</svg>
