<?xml version="1.0" encoding="utf-8"?>
<!-- Generator: Adobe Illustrator 22.0.1, SVG Export Plug-In . SVG Version: 6.00 Build 0)  -->
<svg version="1.1" id="Layer_1" xmlns="http://www.w3.org/2000/svg" xmlns:xlink="http://www.w3.org/1999/xlink" x="0px" y="0px"
	 viewBox="0 0 751.6 167" style="enable-background:new 0 0 751.6 167;" xml:space="preserve">
<style type="text/css">
	.st0{fill:#F8D747;}
</style>
<path class="st0" d="M645.7,166c-1.3-0.7-1.2-1.9-1.2-3.1c0-7.3,0.1-14.6,0-21.9c0-2,0.9-3.5,1.8-5c20.7-33.8,41.5-67.6,62.2-101.4
	c0.6-0.9,1.1-1.8,1.6-2.7c-0.7-1-1.7-0.6-2.4-0.6c-6.4,0-12.9-0.1-19.3,0c-2.3,0-3.3-0.6-3.3-3.1c0.1-7.9,0.1-15.9,0-23.8
	c0-2,0.7-2.9,2.8-2.9c19.9,0,39.7,0,59.6,0c0.7,0,1.5-0.1,2,0.7c0.6,7,0.1,14,0.3,21.1c0,2-0.8,3.7-1.8,5.4
	c-20.2,33.9-40.7,67.6-61,101.5c-0.9,1.5-2.1,3-2.6,4.8c1.1,0.9,2.3,0.5,3.4,0.5c12.9,0,25.7,0.2,38.6-0.1
	c6.4-0.1,12.8-0.7,19.3-0.5c1.9,0.1,4.1,0,4,2.9c0,8.2,0,16.3,0,24.4c0,1-0.3,2.1,0.3,3.1c-0.3,0.4,0.6,1.4-0.6,1.3
	c-1.1-0.6-2.3-0.3-3.5-0.3c-32.3,0-64.5,0-96.8,0C648.1,166.2,646.9,166.4,645.7,166z"/>
<path class="st0" d="M594.3,1.5c17.9,0,35.8,0,53.8,0c4.1,0,4.1,0,4.1,4.2c0,7.3-0.1,14.6,0.1,21.9c0.1,2.8-0.9,3.8-3.7,3.7
	c-11.5-0.1-23,0.1-34.4-0.1c-3.3-0.1-3.8,1-3.8,4c0.1,29.5,0,59,0.1,88.5c0,3.2-0.9,4.3-4.2,4.2c-7.9-0.2-15.9-0.1-23.8-0.1
	c-4,0-4.1-0.2-4.1-4.2c0-29.6,0-59.2,0.1-88.9c0-2.9-0.8-3.6-3.6-3.5c-11.4,0.2-22.8,0-34.1,0.1c-2.8,0-4-0.6-3.9-3.7
	c0.2-7.4,0.2-14.8,0-22.2c-0.1-3.3,1.1-3.9,4.1-3.9C558.7,1.5,576.5,1.5,594.3,1.5z"/>
<path class="st0" d="M58.1,1.5C76,1.5,94,1.5,111.9,1.4c2.8,0,3.8,0.7,3.7,3.6c-0.2,7.6-0.1,15.2,0,22.9c0,2.5-0.8,3.4-3.3,3.3
	c-11.4-0.1-22.8,0.1-34.1-0.1C75,31.1,74,31.7,74,35.1c0.2,29.4,0.1,58.8,0.1,88.3c0,4.3-0.2,4.4-4.3,4.4c-7.9,0-15.9-0.1-23.8,0.1
	c-3.1,0.1-4-0.9-4-4c0.1-29.5,0-59.1,0.2-88.6c0-3.5-1-4.1-4.3-4.1c-11.2,0.2-22.3,0.1-33.5,0.1c-4,0-4.1-0.1-4.1-4.3
	c0-7,0-14,0-20.9c0-4.5,0-4.5,4.4-4.5C22.5,1.5,40.3,1.5,58.1,1.5z"/>
<path class="st0" d="M516.9,166c-10.1-0.1-20.2-0.1-30.3-0.2c-0.9-1-0.7-2.2-0.7-3.4c0-37.6,0-75.2-0.1-112.7c0-3,1-3.9,3.9-3.8
	c8.2,0.2,16.3,0.2,24.5,0c3-0.1,3.8,1,3.8,3.9c-0.1,37.6-0.1,75.2-0.1,112.7C518.1,163.8,518.3,165.2,516.9,166z"/>
<path class="st0" d="M165.7,165.9c-10.1,0-20.2,0-30.3-0.1c-1-1-0.7-2.2-0.7-3.3c0-37.7,0-75.3-0.1-113c0-2.8,0.9-3.7,3.7-3.7
	c8.3,0.1,16.5,0.1,24.8,0c2.6,0,3.6,0.8,3.6,3.5c0,37.8,0,75.5,0,113.3C166.8,163.9,166.8,165.1,165.7,165.9z"/>
<path class="st0" d="M324,159.7c-10.6-21.2-21.3-42.3-32.1-63.4c-0.9-1.7-1-2.6,1-3.6c3.9-2,7.5-4.6,10.6-7.7
	c11.7-11.9,15.5-26.3,13.7-42.5C314.4,18,297.3,2.1,272.7,1.6c-22-0.4-44-0.1-66-0.2c-2.5,0-3.1,1-3.1,3.3c0.1,10.5,0,21,0,31.6
	c0,29.2,0,58.4-0.1,87.6c0,3.2,1,4,4.1,4c8.2-0.2,16.3-0.1,24.5,0c2.5,0,3.4-0.9,3.3-3.4c-0.1-7.4,0-14.8-0.1-22.2
	c0-2.1,0.4-3.1,2.8-3c6,0.2,12,0.1,18,0c2-0.1,2.8,0.8,3.6,2.4c6,12.9,12,25.9,18.1,38.7c4,8.5,7.6,17.2,12.2,25.5
	c11.8,0,23.6,0.1,35.5,0.1C327.4,163.3,324.9,161.6,324,159.7z M287.9,50.9c-1.7,11.7-9.5,18.5-21.3,18.5c-9.4,0-18.9-0.1-28.3,0
	c-2.2,0-3-0.5-2.9-2.8c0.1-10.9,0.1-21.9,0-32.8c0-2,0.6-2.6,2.5-2.5c5.8,0.1,11.6,0,17.4,0c0,0,0,0.1,0,0.1c5.6,0,11.2-0.2,16.7,0
	C283.1,31.8,289.5,39.8,287.9,50.9z"/>
<path class="st0" d="M467.3,42c-2.8-23.8-20.1-39.9-44-40.3c-21.8-0.4-43.6-0.1-65.4-0.2c-4.2,0-4.2,0-4.2,4.4c0,19.5,0,39.1,0,58.6
	c0,19.9,0,39.7,0,59.6c0,2.8,0.8,3.8,3.7,3.8c8.3-0.1,16.5-0.1,24.8,0c2.9,0,3.7-1.1,3.7-3.8c-0.1-7.2,0.1-14.4-0.1-21.6
	c-0.1-2.6,0.8-3.2,3.3-3.2c9.9,0.1,19.8,0.2,29.6,0c12.7-0.3,24.1-4.3,33.5-12.8C465.3,74.5,469.3,59.2,467.3,42z M438.2,50.7
	c-1.3,11.3-9.5,18.6-20.9,18.6c-9.5,0-19.1-0.1-28.6,0.1c-2.2,0-2.9-0.6-2.9-2.9c0.1-10.8,0.1-21.7,0-32.5c0-2.3,0.7-2.9,2.9-2.8
	c5.6,0.1,11.2,0,16.7,0c0,0,0,0,0,0c5.5,0,10.9-0.2,16.4,0C433.2,31.7,439.5,39.4,438.2,50.7z"/>
</svg>
