<?xml version="1.0" encoding="utf-8"?>
<!-- Generator: Adobe Illustrator 22.0.1, SVG Export Plug-In . SVG Version: 6.00 Build 0)  -->
<svg version="1.1" id="Layer_1" xmlns="http://www.w3.org/2000/svg" xmlns:xlink="http://www.w3.org/1999/xlink" x="0px" y="0px"
	 viewBox="0 0 250 250.5" style="enable-background:new 0 0 250 250.5;" xml:space="preserve">
<style type="text/css">
	.st0{fill:none;}
	.st1{fill:#F8D747;}
	.st2{opacity:0.25;fill:#F8D747;}
	.st3{fill:none;stroke:#F8D747;stroke-width:7.5;}
	.st4{font-family:'ArialRoundedMTBold';}
	.st5{font-size:244px;}
</style>
<g id="Path_11" transform="translate(387 92.619)">
	<path class="st0" d="M-262-92.5c69,0,125,56,125,125s-56,125-125,125s-125-56-125-125S-331-92.5-262-92.5z"/>
	<path class="st1" d="M-262,150c64.8,0,117.5-52.7,117.5-117.5S-197.2-85-262-85S-379.5-32.3-379.5,32.5S-326.8,150-262,150
		 M-262,157.5c-69,0-125-56-125-125s56-125,125-125s125,56,125,125S-193,157.5-262,157.5z"/>
</g>
<path id="Intersection_3" class="st2" d="M124.2,250.1h-0.2c-0.5,0-1,0-1.5,0L250,122.7c0.1,4,0,8.1-0.4,12.1L134.7,249.8
	c-2.2,0.2-4.4,0.3-6.7,0.3h0l-0.2,0c-0.9,0-1.9,0-2.8,0L124.2,250.1z M101.3,247.9l146.5-146.5c0.7,3.4,1.2,6.8,1.5,10.2
	L111.5,249.4C108.1,249.1,104.7,248.5,101.3,247.9L101.3,247.9z M247.8,148.5c-1,5.4-2.4,10.7-4.1,15.9l-79.5,79.5
	c-5.2,1.7-10.5,3.1-15.9,4.1L247.8,148.5z M82.7,242.8L242.7,82.9c1.1,3,2,5.9,2.8,9L91.7,245.7C88.7,244.8,85.7,243.9,82.7,242.8z
	 M66.4,235.6l169-169c1.4,2.6,2.7,5.2,3.9,7.9l-165,165C71.6,238.3,69,237,66.4,235.6z M234.7,185.2c-5.4,9.8-12.1,18.9-19.9,27
	l-0.1,0.1l0,0c-0.4,0.4-0.8,0.8-1.2,1.2c-0.5,0.5-1.1,1.1-1.6,1.6l-0.1,0.1l0,0c-8,7.7-16.9,14.2-26.6,19.6L234.7,185.2z
	 M51.9,226.5L226.4,52c1.7,2.3,3.2,4.6,4.7,7L58.9,231.3C56.5,229.8,54.2,228.2,51.9,226.5z M39,215.9L215.7,39.1
	c0.2,0.2,0.4,0.4,0.5,0.6l0,0l0,0c1.7,1.8,3.4,3.7,5,5.7l-176,176C43.1,219.6,41,217.8,39,215.9z M27.7,203.6L203.5,27.8
	c2.2,1.8,4.3,3.6,6.3,5.5L33.1,209.9C31.3,207.9,29.4,205.8,27.7,203.6z M18,189.7L189.6,18.1c2.4,1.5,4.8,3,7.1,4.7L22.6,196.9
	C21,194.6,19.4,192.2,18,189.7z M10,174.2l164-164c2.7,1.2,5.4,2.4,8,3.8L13.7,182.2C12.4,179.6,11.1,176.9,10,174.2z M4,156.6
	L156.4,4.1c3,0.8,6.1,1.7,9.1,2.7L6.7,165.6C5.7,162.7,4.8,159.6,4,156.6z M0.5,136.5L136.3,0.7c3.5,0.3,7,0.8,10.4,1.4L1.9,146.9
	C1.3,143.4,0.8,140,0.5,136.5z M0,125.1c0-1.3,0-2.5,0.1-3.8c0.1-2.8,0.3-5.7,0.5-8.5L112.7,0.7c4-0.4,8.1-0.6,12.1-0.6h0.3L0,125.1
	C0,125.2,0,125.2,0,125.1z M7.5,82.3L82.2,7.7c5.4-2,10.9-3.5,16.5-4.7l-96,96C4,93.3,5.6,87.7,7.5,82.3z M59.3,18.8L18.6,59.4
	C28.9,42.9,42.8,29,59.3,18.8z"/>
<text transform="matrix(1 0 0 1 83.75 209.0304)" class="st3 st4 st5">!</text>
</svg>
