<svg xmlns="http://www.w3.org/2000/svg" viewBox="3775 210.5 150 150">
  <defs>
    <style>
      .cls-1, .cls-5 {
        fill: none;
      }

      .cls-1, .cls-3 {
        stroke: #f8d747;
      }

      .cls-1 {
        stroke-width: 5px;
      }

      .cls-2 {
        fill: rgba(248,215,71,0.25);
      }

      .cls-3 {
        fill: #f8d747;
        stroke-miterlimit: 10;
      }

      .cls-4 {
        stroke: none;
      }
    </style>
  </defs>
  <g id="Group_21" data-name="Group 21" transform="translate(9 -1054.5)">
    <g id="Group_20" data-name="Group 20" transform="translate(-357 136)">
      <g id="Ellipse_3" data-name="Ellipse 3" class="cls-1" transform="translate(4123 1129)">
        <circle class="cls-4" cx="75" cy="75" r="75"/>
        <circle class="cls-5" cx="75" cy="75" r="72.5"/>
      </g>
      <path id="Intersection_3" data-name="Intersection 3" class="cls-2" d="M74.539,150h-.108q-.44,0-.879-.012l76.434-76.433q.07,3.644-.213,7.284L80.836,149.774q-2,.155-4,.2h-.015l-.138,0Q75.846,150,75,150Zm-13.786-1.356,87.888-87.888q.588,3.058.922,6.15L66.9,149.565Q63.815,149.231,60.754,148.643ZM148.69,88.99a74.9,74.9,0,0,1-2.456,9.528L98.517,146.234a74.88,74.88,0,0,1-9.528,2.457ZM49.649,145.6,145.6,49.65q.952,2.658,1.7,5.373L55.022,147.3Q52.313,146.558,49.649,145.6Zm-9.8-4.338L141.267,39.845q1.24,2.332,2.316,4.755L44.6,143.583Q42.174,142.506,39.845,141.267ZM140.8,111.025a75.237,75.237,0,0,1-11.961,16.192l-.066.068-.02.02q-.356.366-.719.728-.478.478-.963.946l-.079.076,0,0a75.222,75.222,0,0,1-15.964,11.74ZM31.131,135.839,135.839,31.131q1.489,2.062,2.842,4.229L35.36,138.68Q33.2,137.331,31.131,135.839Zm-7.731-6.41L129.428,23.4l.324.344h0l.011.012q1.545,1.65,2.988,3.391L27.146,132.752Q25.219,131.153,23.4,129.429Zm-6.789-7.353L122.075,16.611q1.952,1.576,3.794,3.277L19.887,125.869Q18.187,124.028,16.611,122.075Zm-5.83-8.313L113.763,10.781q2.189,1.324,4.28,2.792L13.573,118.042Q12.107,115.954,10.781,113.763Zm-4.793-9.349L104.414,5.988q2.451,1.046,4.812,2.259L8.247,109.225Q7.036,106.868,5.988,104.414ZM2.4,93.862,93.861,2.4c1.828.473,3.646,1.017,5.441,1.631L4.028,99.3Q3.108,96.609,2.4,93.862ZM.307,81.81l81.5-81.5c2.088.19,4.173.466,6.241.83L1.138,88.051C.774,85.983.5,83.9.307,81.81ZM0,75q0-1.145.034-2.283.077-2.556.328-5.1L67.612.363Q71.241.006,74.888,0h.159L0,75.047C0,75.031,0,75.015,0,75ZM4.514,49.318l44.8-44.8a74.763,74.763,0,0,1,9.919-2.849L1.666,59.238A74.866,74.866,0,0,1,4.514,49.318ZM35.577,11.185,11.186,35.575A75.387,75.387,0,0,1,35.577,11.185Z" transform="translate(4123 1129)"/>
    </g>
    <path id="Path_9" data-name="Path 9" class="cls-3" d="M172.984,204.042c-2.834-.625-5.66-1.282-8.5-1.9a1.821,1.821,0,0,1-1.306-.918q-4.053-7-8.169-13.939a23.02,23.02,0,0,0-2.945-4.623c-3.166-3.3-6.427-6.57-9.641-9.855a2.533,2.533,0,0,0-1.045-.673q-9.546-3.079-19.069-6.166a.95.95,0,0,0-1.124.261q-5.747,5.913-11.541,11.786a4.259,4.259,0,0,0-1.045,1.8c-.879,2.794-1.789,5.58-2.668,8.375a2.375,2.375,0,0,1-.792,1.172c-3.253,2.739-6.491,5.541-9.76,8.24a2.517,2.517,0,0,0-1.005,1.749q-.792,7.449-1.662,14.873a2.7,2.7,0,0,0,.475,1.971c3.166,4.749,6.332,9.5,9.554,14.248a2.414,2.414,0,0,1,.4,1.963q-2.517,13.243-4.995,26.493a4.266,4.266,0,0,0-.111,2.169q2.636,8.256,5.2,16.536a2.153,2.153,0,0,0,.95,1.219c2.715,1.773,5.446,3.53,8.105,5.375a3.063,3.063,0,0,0,2.976.522,12.665,12.665,0,0,1,9.063.079,2.462,2.462,0,0,0,2.09-.222q16.789-7.916,33.586-15.831a1.8,1.8,0,0,0,.934-.918q4.369-9.435,8.77-18.863a1.963,1.963,0,0,0,.253-1.124c-.483-3.807-.982-7.607-1.409-11.414a9.165,9.165,0,0,1-.214-3.594c1.029-3.689,1.987-7.4,2.8-11.145a87.636,87.636,0,0,0,2.5-16.884C173.791,204.311,173.467,204.144,172.984,204.042Zm-9.673,5.842c.142-1.789.325-3.586.443-5.383.04-.57.15-.792.792-.641,1.971.483,3.958.918,5.929,1.346.538.111.7.277.285.752l-7.377,8.446c-.071.079-.158.142-.427.38C163.066,213.01,163.176,211.451,163.311,209.883Zm-1.251-5.2c-.182,2.375-.38,4.71-.578,7.061-.095,1.092-.19,2.177-.3,3.5l-6.792-8.391c-.269-.332-.206-.514.214-.641q3.467-1.069,6.918-2.169C162.274,203.8,162.092,204.35,162.06,204.683Zm-22.773-.712a1.353,1.353,0,0,1,.792-.412v26.422a3.071,3.071,0,0,1-.491,1.741q-3.681,5.77-7.306,11.58c-.364.594-.673.633-1.274.332q-12.158-6.1-24.348-12.158c-.879-.435-.879-.443-.127-1.053Zm-32.193,23.462c.388-.744.792-1.488,1.164-2.232q4.8-9.325,9.578-18.665a1.583,1.583,0,0,1,1.361-1.021c6.055-.839,12.111-1.718,18.158-2.58a3.165,3.165,0,0,1,.5.04L107.3,227.63Zm31.813-28.306-25.045-18a3.435,3.435,0,0,1,1.646.166c5.921,1.274,11.873,2.58,17.755,3.839a1.638,1.638,0,0,1,1.393,1.211c1.354,3.958,2.77,7.916,4.164,11.873.087.253.158.522.237.792Zm-6.768,56.762q.42-5.058.792-10.108a1.662,1.662,0,0,1,.245-.792l6.95-10.995a2.084,2.084,0,0,1,.277-.253c.237,1.583.459,2.992.673,4.433.546,3.736,1.069,7.464,1.662,11.193a1.48,1.48,0,0,1-.879,1.852c-3.032,1.583-6.008,3.325-9.008,4.995-.34.2-.776.5-.712-.34Zm9.609-51.958c0-1.108,0-1.116,1.045-.728,2.66,1,5.319,2.011,7.995,2.984.546.2.6.427.372.926q-4.528,9.689-9.016,19.385a4.643,4.643,0,0,1-.253.443,1.187,1.187,0,0,1-.135-.863q-.016-11.082-.008-22.164Zm.166,28.353a.887.887,0,0,1,.427-1.045q8.881-5.81,17.747-11.644c.206-.135.42-.4.665-.293s0,.467.095.594c-.214,3.3-.412,6.507-.641,9.712a4.8,4.8,0,0,0,.38,2.129c1.544,3.871,3.055,7.757,4.607,11.628a.831.831,0,0,1-.317,1.187q-4.187,3.166-8.327,6.332a1.884,1.884,0,0,1-1.48.412q-4.868-.522-9.752-.966c-.578-.055-.792-.253-.879-.855-.847-5.731-1.639-11.47-2.525-17.208Zm11.177-44.937,4.575,7.765c1.243,2.113,2.462,4.235,3.728,6.332.332.554.372.831-.356,1.045-2.272.665-4.528,1.393-6.776,2.129-.617.206-.792.087-.847-.6-.079-4.061-.222-8.113-.317-12.166C153.044,190.348,153.092,188.931,153.092,187.348Zm-.665,21.047c.309-.657.459-.792.958-.135,2.224,2.8,4.488,5.541,6.744,8.351.317.388.546.649-.055,1.037q-8.177,5.343-16.33,10.726c-.142.087-.293.15-.443.23l-.158-.135c.451-.989.894-1.987,1.354-2.976,2.62-5.739,5.28-11.43,7.908-17.137Zm-1.021-21.3v4.456q.15,6.174.348,12.34c0,.633-.055.894-.792.609-2.707-1.045-5.43-2.05-8.153-3.063-.388-.142-.673-.23-.348-.744q4.227-6.736,8.414-13.456c.055-.166.111-.269.507-.182Zm-9.15-12.079c2.739,2.842,5.541,5.66,8.272,8.47.261.269.412.483.174.871q-4.7,7.48-9.372,14.984c0,.04-.095.063-.15.1-.285-.15-.293-.467-.38-.72q-2.375-6.649-4.749-13.306a1.362,1.362,0,0,1,.135-1.267q2.565-4.48,5.09-8.976c.3-.554.483-.681.958-.19Zm-25.615-1.686c1.662-1.694,3.325-3.372,4.963-5.082a1.013,1.013,0,0,1,1.179-.332q8.438,2.755,16.892,5.462c.459.142.578.293.309.792q-2.588,4.5-5.129,9.04c-.293.522-.665.483-1.14.38l-18.689-4.156-3.649-.792c1.86-1.892,3.554-3.617,5.24-5.351Zm-9.024,15.127c.792-2.375,1.583-4.749,2.311-7.124.158-.491.285-.736.839-.34q13.638,9.847,27.309,19.654c.135.095.253.206.57.475l-5.636.792c-4.662.665-9.317,1.314-13.971,1.995a1.282,1.282,0,0,1-1.417-.586q-4.844-6.673-9.744-13.306a1.5,1.5,0,0,1-.285-1.6ZM97.81,197.78q3.958-3.364,7.916-6.72c.38-.325.6-.372.926.079q4.274,5.889,8.58,11.739a4.449,4.449,0,0,1,.253.5l-3.768-.989-13.694-3.72c-.237-.063-.578,0-.649-.3S97.628,197.931,97.81,197.78ZM94.6,212.741l1.33-11.873c.119-1.061.111-1.061,1.172-.792l16.955,4.686c.269.071.53.158.792.237v.19l-5.121,2.161L95.4,213.4c-.887.356-.887.3-.807-.657Zm.6,3.4c-.317-.459-.4-.7.23-.966q9.9-4.148,19.789-8.335c.15-.063.309-.1.689-.222l-11.691,22.733c-.332-.063-.4-.3-.515-.475q-4.251-6.372-8.5-12.736Zm9.166,59.367c-1.3-4.2-2.628-8.39-3.958-12.586,0-.127-.111-.261,0-.4.285-.063.467.142.673.269,3.166,1.884,6.332,3.784,9.5,5.66.538.317.673.514.174,1.029-1.9,2.011-3.752,4.061-5.62,6.095-.253.34-.515.76-.768-.04Zm7.916,6.617-6.332-4.179c-.23-.15-.42-.3-.15-.594l6.15-6.673c.253,3.166.491,6.135.72,9.071l.166,2.018c.032.491-.111.689-.554.38Zm-.269-14.778c-3.847-2.3-7.686-4.623-11.557-6.879a1.148,1.148,0,0,1-.625-1.433c1.092-5.7,2.153-11.406,3.23-17.106.538-2.881,1.1-5.763,1.583-8.644.119-.657.245-.879.942-.522q12.483,6.245,24.974,12.459c.348.174.792.309.6.9-.253,3.57-.522,7.2-.792,10.821a1.029,1.029,0,0,1-.594.934q-8.335,4.749-16.623,9.546a1,1,0,0,1-1.14-.055Zm6.095,15.04-2.968.649c-.356.079-.554,0-.578-.4l-.712-9.317.206-.04,4.369,8.462c.206.4.071.586-.317.649Zm1.813-1.409q-2.9-5.652-5.826-11.264c-.269-.507-.222-.792.3-1.061q7.567-4.306,15.119-8.644c.364-.206.792-.483.673.3l-.792,15.451a1.029,1.029,0,0,1-.578.934c-2.636,1.52-5.272,3.04-7.916,4.6-.5.332-.728.19-.982-.309Zm5.272,1.852a.57.57,0,0,1-.712.277,10,10,0,0,1-2.1-.72l4.607-2.691.158.2Zm2.937-.91-.19-.182q1.33-1.995,2.668-3.958a1.053,1.053,0,0,1,.657-.348l16.29-4.939a.367.367,0,0,1,.3.142Zm20.493-9.594s-.063-.063-.1-.095a.95.95,0,0,1,.19-.119l.135.1a.965.965,0,0,1-.222.119Zm18.514-21.594c-2.493,4.987-4.749,10.084-7.124,15.158a2.731,2.731,0,0,1-1.892,1.67c-8.62,2.557-17.216,5.177-25.821,7.773-1.251.38-1.251.388-1.187-.879q.4-7.646.792-15.277a.9.9,0,0,1,.53-.863c3.673-2.034,7.346-4.069,11-6.135a2.62,2.62,0,0,1,1.639-.182c3.586.364,7.179.72,10.765,1.1a1.4,1.4,0,0,0,1.061-.412c2.9-2.224,5.834-4.433,8.707-6.681.515-.4.681-.277,1.108.158,1.472,1.472,1.3,2.818.42,4.575Zm.633-6.222a1.243,1.243,0,0,1-.6-.792q-2.208-5.541-4.4-11.137a3.091,3.091,0,0,1-.087-.467l3.435,1.583a.736.736,0,0,1,.507.617q.6,4.971,1.2,9.958a.939.939,0,0,1-.055.245Zm3.4-31.52c-1.013,6.127-2.454,12.15-4.061,18.135-.293,1.077-.3,1.077-1.322.609s-2.137-1.013-3.222-1.48a.894.894,0,0,1-.657-1.013c.253-3.657.475-7.314.712-10.971a1.417,1.417,0,0,1,.325-.847q4.369-4.995,8.707-9.989a29.381,29.381,0,0,1-.483,5.565Z" transform="translate(3708.21 1114.751)"/>
  </g>
</svg>
