<?xml version="1.0" encoding="utf-8"?>
<!-- Generator: Adobe Illustrator 22.0.1, SVG Export Plug-In . SVG Version: 6.00 Build 0)  -->
<svg version="1.1" id="Layer_1" xmlns="http://www.w3.org/2000/svg" xmlns:xlink="http://www.w3.org/1999/xlink" x="0px" y="0px"
	 viewBox="0 0 230 237.3" style="enable-background:new 0 0 230 237.3;" xml:space="preserve">
<style type="text/css">
	.st0{opacity:0.5;}
	.st1{fill:none;}
	.st2{fill:none;stroke:#F8D747;stroke-width:5;}
	.st3{opacity:0.25;fill:#F8D747;}
	.st4{fill:#F8D747;stroke:#F8D747;stroke-miterlimit:10;}
	.st5{fill:#F8D747;}
	.st6{fill:none;stroke:#000000;stroke-width:5;}
</style>
<g class="st0">
	<g id="Ellipse_3" transform="translate(4123 1129)">
		<circle class="st1" cx="-4008.2" cy="-1014" r="40"/>
		<circle class="st2" cx="-4008.2" cy="-1014" r="38.7"/>
	</g>
	<path id="Intersection_3" class="st3" d="M114.5,155L114.5,155c-0.2,0-0.4,0-0.5,0l40.8-40.8c0,1.3,0,2.6-0.1,3.9l-36.8,36.8
		c-0.7,0.1-1.4,0.1-2.1,0.1h0h-0.1c-0.3,0-0.6,0-0.9,0H114.5z M107.2,154.3l46.9-46.9c0.2,1.1,0.4,2.2,0.5,3.3l-44.1,44.1
		C109.3,154.6,108.3,154.5,107.2,154.3L107.2,154.3z M154.1,122.5c-0.3,1.7-0.8,3.4-1.3,5.1L127.3,153c-1.7,0.5-3.4,1-5.1,1.3
		L154.1,122.5z M101.2,152.7l51.2-51.2c0.3,0.9,0.6,1.9,0.9,2.9l-49.2,49.2C103.1,153.3,102.2,153,101.2,152.7z M96,150.3l54.1-54.1
		c0.4,0.8,0.9,1.7,1.2,2.5l-52.8,52.8C97.7,151.2,96.8,150.8,96,150.3L96,150.3z M149.9,134.2c-1.7,3.2-3.9,6.1-6.4,8.6l0,0l0,0
		c-0.1,0.1-0.3,0.3-0.4,0.4c-0.2,0.2-0.3,0.3-0.5,0.5l0,0l0,0c-2.5,2.5-5.4,4.6-8.5,6.3L149.9,134.2z M91.4,147.4l55.8-55.8
		c0.5,0.7,1,1.5,1.5,2.3L93.6,149C92.9,148.5,92.1,148,91.4,147.4z M87.2,144l56.5-56.5l0.2,0.2l0,0l0,0c0.5,0.6,1.1,1.2,1.6,1.8
		l-56.3,56.3C88.6,145.2,87.9,144.6,87.2,144z M83.6,140.1l56.2-56.2c0.7,0.6,1.4,1.1,2,1.7l-56.5,56.5
		C84.8,141.5,84.2,140.8,83.6,140.1L83.6,140.1z M80.5,135.7l54.9-54.9c0.8,0.5,1.5,1,2.3,1.5L82,138
		C81.5,137.2,81,136.5,80.5,135.7z M78,130.7l52.5-52.5c0.9,0.4,1.7,0.8,2.6,1.2l-53.9,53.9C78.7,132.4,78.3,131.6,78,130.7z
		 M76,125.1l48.8-48.8c1,0.3,1.9,0.5,2.9,0.9L76.9,128C76.6,127,76.3,126,76,125.1z M74.9,118.6l43.5-43.5c1.1,0.1,2.2,0.2,3.3,0.4
		L75.4,122C75.2,120.9,75,119.7,74.9,118.6z M74.8,115c0-0.4,0-0.8,0-1.2c0-0.9,0.1-1.8,0.2-2.7l35.9-35.9c1.3-0.1,2.6-0.2,3.9-0.2
		h0.1L74.8,115C74.8,115,74.8,115,74.8,115z M77.2,101.3l23.9-23.9c1.7-0.6,3.5-1.1,5.3-1.5l-30.7,30.7
		C76,104.8,76.5,103,77.2,101.3z M93.7,81l-13,13C84,88.7,88.5,84.2,93.7,81z"/>
	<path id="Path_9" class="st4" d="M136.2,103.7c-1.5-0.3-3-0.7-4.5-1c-0.3,0-0.6-0.2-0.7-0.5c-1.4-2.5-2.9-5-4.4-7.4
		c-0.4-0.9-1-1.7-1.6-2.5c-1.7-1.8-3.4-3.5-5.1-5.3c-0.2-0.2-0.3-0.3-0.6-0.4c-3.4-1.1-6.8-2.2-10.2-3.3c-0.2-0.1-0.5,0-0.6,0.1
		c-2,2.1-4.1,4.2-6.2,6.3c-0.3,0.3-0.5,0.6-0.6,1c-0.5,1.5-1,3-1.4,4.5c-0.1,0.2-0.2,0.5-0.4,0.6c-1.7,1.5-3.5,3-5.2,4.4
		c-0.3,0.2-0.5,0.6-0.5,0.9c-0.3,2.6-0.6,5.3-0.9,7.9c-0.1,0.4,0,0.7,0.3,1.1c1.7,2.5,3.4,5.1,5.1,7.6c0.2,0.3,0.3,0.7,0.2,1
		c-0.9,4.7-1.8,9.4-2.7,14.1c-0.1,0.4-0.1,0.8-0.1,1.2c0.9,2.9,1.9,5.9,2.8,8.8c0.1,0.3,0.3,0.5,0.5,0.7c1.4,0.9,2.9,1.9,4.3,2.9
		c0.4,0.4,1,0.5,1.6,0.3c1.6-0.6,3.3-0.6,4.8,0c0.4,0.1,0.8,0.1,1.1-0.1c6-2.8,11.9-5.6,17.9-8.4c0.2-0.1,0.4-0.3,0.5-0.5
		c1.6-3.4,3.1-6.7,4.7-10.1c0.1-0.2,0.2-0.4,0.1-0.6c-0.3-2-0.5-4.1-0.8-6.1c-0.2-0.6-0.2-1.3-0.1-1.9c0.5-2,1.1-3.9,1.5-5.9
		c0.7-3,1.2-6,1.3-9C136.6,103.8,136.5,103.7,136.2,103.7z M131,106.8c0.1-1,0.2-1.9,0.2-2.9c0-0.3,0.1-0.4,0.4-0.3
		c1.1,0.3,2.1,0.5,3.2,0.7c0.3,0.1,0.4,0.1,0.2,0.4l-3.9,4.5c0,0-0.1,0.1-0.2,0.2C130.9,108.5,131,107.6,131,106.8L131,106.8z
		 M130.4,104c-0.1,1.3-0.2,2.5-0.3,3.8c-0.1,0.6-0.1,1.2-0.2,1.9l-3.6-4.5c-0.1-0.2-0.1-0.3,0.1-0.3c1.2-0.4,2.5-0.8,3.7-1.2
		C130.5,103.6,130.4,103.9,130.4,104L130.4,104z M118.2,103.7c0.1-0.1,0.3-0.2,0.4-0.2v14.1c0,0.3-0.1,0.7-0.3,0.9
		c-1.3,2.1-2.6,4.1-3.9,6.2c-0.2,0.3-0.4,0.3-0.7,0.2c-4.3-2.2-8.7-4.3-13-6.5c-0.5-0.2-0.5-0.2-0.1-0.6L118.2,103.7z M101.1,116.2
		c0.2-0.4,0.4-0.8,0.6-1.2c1.7-3.3,3.4-6.6,5.1-10c0.1-0.3,0.4-0.5,0.7-0.5c3.2-0.4,6.5-0.9,9.7-1.4c0.1,0,0.2,0,0.3,0l-16.3,13.1
		L101.1,116.2z M118,101.1l-13.4-9.6c0.3,0,0.6,0,0.9,0.1c3.2,0.7,6.3,1.4,9.5,2c0.4,0,0.7,0.3,0.7,0.6c0.7,2.1,1.5,4.2,2.2,6.3
		C118,100.7,118.1,100.9,118,101.1L118,101.1z M114.4,131.3c0.1-1.8,0.3-3.6,0.4-5.4c0-0.1,0.1-0.3,0.1-0.4l3.7-5.9
		c0,0,0.1-0.1,0.1-0.1c0.1,0.8,0.2,1.6,0.4,2.4c0.3,2,0.6,4,0.9,6c0.1,0.4-0.1,0.8-0.5,1c-1.6,0.8-3.2,1.8-4.8,2.7
		C114.6,131.6,114.4,131.8,114.4,131.3L114.4,131.3z M119.5,103.6c0-0.6,0-0.6,0.6-0.4c1.4,0.5,2.8,1.1,4.3,1.6
		c0.3,0.1,0.3,0.2,0.2,0.5c-1.6,3.4-3.2,6.9-4.8,10.3c0,0.1-0.1,0.2-0.1,0.2c-0.1-0.1-0.1-0.3-0.1-0.5
		C119.5,111.5,119.5,107.6,119.5,103.6L119.5,103.6z M119.6,118.8c-0.1-0.2,0-0.5,0.2-0.6c3.2-2.1,6.3-4.1,9.5-6.2
		c0.1-0.1,0.2-0.2,0.4-0.2c0.1,0.1,0,0.2,0.1,0.3c-0.1,1.8-0.2,3.5-0.3,5.2c0,0.4,0,0.8,0.2,1.1c0.8,2.1,1.6,4.1,2.5,6.2
		c0.1,0.2,0.1,0.5-0.1,0.6c0,0,0,0,0,0c-1.5,1.1-3,2.3-4.4,3.4c-0.2,0.2-0.5,0.3-0.8,0.2c-1.7-0.2-3.5-0.4-5.2-0.5
		c-0.3,0-0.4-0.1-0.5-0.5C120.5,124.9,120.1,121.8,119.6,118.8L119.6,118.8z M125.6,94.8l2.4,4.1c0.7,1.1,1.3,2.3,2,3.4
		c0.2,0.3,0.2,0.4-0.2,0.6c-1.2,0.4-2.4,0.7-3.6,1.1c-0.3,0.1-0.4,0-0.5-0.3c0-2.2-0.1-4.3-0.2-6.5
		C125.6,96.4,125.6,95.6,125.6,94.8L125.6,94.8z M125.2,106c0.2-0.4,0.2-0.4,0.5-0.1c1.2,1.5,2.4,3,3.6,4.5c0.2,0.2,0.3,0.3,0,0.6
		c-2.9,1.9-5.8,3.8-8.7,5.7c-0.1,0-0.2,0.1-0.2,0.1l-0.1-0.1c0.2-0.5,0.5-1.1,0.7-1.6C122.4,112.1,123.8,109,125.2,106L125.2,106z
		 M124.7,94.7V97c0.1,2.2,0.1,4.4,0.2,6.6c0,0.3,0,0.5-0.4,0.3c-1.4-0.6-2.9-1.1-4.3-1.6c-0.2-0.1-0.4-0.1-0.2-0.4
		c1.5-2.4,3-4.8,4.5-7.2C124.4,94.6,124.5,94.6,124.7,94.7L124.7,94.7z M119.8,88.2c1.5,1.5,3,3,4.4,4.5c0.1,0.1,0.2,0.3,0.1,0.5
		c-1.7,2.7-3.3,5.3-5,8c0,0-0.1,0-0.1,0.1c-0.2-0.1-0.2-0.2-0.2-0.4c-0.8-2.4-1.7-4.7-2.5-7.1c-0.1-0.2-0.1-0.5,0.1-0.7
		c0.9-1.6,1.8-3.2,2.7-4.8C119.4,88,119.5,87.9,119.8,88.2L119.8,88.2z M106.1,87.3c0.9-0.9,1.8-1.8,2.6-2.7
		c0.1-0.2,0.4-0.3,0.6-0.2c3,1,6,2,9,2.9c0.2,0.1,0.3,0.2,0.2,0.4c-0.9,1.6-1.8,3.2-2.7,4.8c-0.2,0.3-0.4,0.3-0.6,0.2l-10-2.2
		l-1.9-0.4C104.3,89.1,105.2,88.2,106.1,87.3L106.1,87.3z M101.3,95.4c0.4-1.3,0.8-2.5,1.2-3.8c0.1-0.3,0.2-0.4,0.4-0.2
		c4.8,3.5,9.7,7,14.6,10.5c0.1,0.1,0.1,0.1,0.3,0.3l-3,0.4c-2.5,0.4-5,0.7-7.5,1.1c-0.3,0.1-0.6-0.1-0.8-0.3
		c-1.7-2.4-3.5-4.7-5.2-7.1C101.3,96,101.2,95.6,101.3,95.4L101.3,95.4z M96.1,100.3c1.4-1.2,2.8-2.4,4.2-3.6c0.2-0.2,0.3-0.2,0.5,0
		c1.5,2.1,3,4.2,4.6,6.3c0.1,0.1,0.1,0.2,0.1,0.3l-2-0.5l-7.3-2c-0.1,0-0.3,0-0.3-0.2C95.8,100.5,96,100.4,96.1,100.3z M94.4,108.3
		l0.7-6.3c0.1-0.6,0.1-0.6,0.6-0.4l9,2.5c0.1,0,0.3,0.1,0.4,0.1v0.1l-2.7,1.2l-7.6,3.2C94.3,108.9,94.3,108.8,94.4,108.3L94.4,108.3
		z M94.7,110.1c-0.2-0.2-0.2-0.4,0.1-0.5c3.5-1.5,7-3,10.6-4.4c0.1,0,0.2-0.1,0.4-0.1l-6.2,12.1c-0.2,0-0.2-0.2-0.3-0.3
		C97.7,114.7,96.2,112.4,94.7,110.1L94.7,110.1z M99.6,141.8c-0.7-2.2-1.4-4.5-2.1-6.7c0-0.1-0.1-0.1,0-0.2c0.2,0,0.2,0.1,0.4,0.1
		c1.7,1,3.4,2,5.1,3c0.3,0.2,0.4,0.3,0.1,0.5c-1,1.1-2,2.2-3,3.3C99.9,142,99.7,142.2,99.6,141.8L99.6,141.8z M103.8,145.3l-3.4-2.2
		c-0.1-0.1-0.2-0.2-0.1-0.3l3.3-3.6c0.1,1.7,0.3,3.3,0.4,4.8l0.1,1.1C104.1,145.4,104.1,145.5,103.8,145.3L103.8,145.3z
		 M103.7,137.5c-2.1-1.2-4.1-2.5-6.2-3.7c-0.3-0.1-0.4-0.5-0.3-0.8c0.6-3,1.1-6.1,1.7-9.1c0.3-1.5,0.6-3.1,0.8-4.6
		c0.1-0.4,0.1-0.5,0.5-0.3c4.4,2.2,8.9,4.4,13.3,6.6c0.2,0.1,0.4,0.2,0.3,0.5c-0.1,1.9-0.3,3.8-0.4,5.8c0,0.2-0.1,0.4-0.3,0.5
		c-3,1.7-5.9,3.4-8.9,5.1C104.1,137.6,103.9,137.6,103.7,137.5L103.7,137.5z M106.9,145.5l-1.6,0.3c-0.2,0-0.3,0-0.3-0.2l-0.4-5
		l0.1,0l2.3,4.5C107.2,145.3,107.1,145.4,106.9,145.5L106.9,145.5z M107.9,144.7c-1-2-2.1-4-3.1-6c-0.1-0.3-0.1-0.4,0.2-0.6
		c2.7-1.5,5.4-3.1,8.1-4.6c0.2-0.1,0.4-0.3,0.4,0.2l-0.4,8.2c0,0.2-0.1,0.4-0.3,0.5c-1.4,0.8-2.8,1.6-4.2,2.5
		C108.2,145.1,108,145,107.9,144.7L107.9,144.7z M110.7,145.7c-0.1,0.1-0.2,0.2-0.4,0.1c-0.4-0.1-0.8-0.2-1.1-0.4l2.5-1.4l0.1,0.1
		L110.7,145.7z M112.3,145.2l-0.1-0.1c0.5-0.7,0.9-1.4,1.4-2.1c0.1-0.1,0.2-0.2,0.4-0.2l8.7-2.6c0.1,0,0.1,0,0.2,0.1L112.3,145.2z
		 M123.2,140.1C123.2,140.1,123.2,140.1,123.2,140.1c0-0.1,0-0.1,0-0.1l0.1,0.1C123.3,140.1,123.3,140.1,123.2,140.1L123.2,140.1z
		 M133.1,128.6c-1.3,2.7-2.5,5.4-3.8,8.1c-0.2,0.4-0.5,0.8-1,0.9c-4.6,1.4-9.2,2.8-13.8,4.1c-0.7,0.2-0.7,0.2-0.6-0.5
		c0.1-2.7,0.3-5.4,0.4-8.1c0-0.2,0.1-0.4,0.3-0.5c2-1.1,3.9-2.2,5.9-3.3c0.3-0.1,0.6-0.2,0.9-0.1c1.9,0.2,3.8,0.4,5.7,0.6
		c0.2,0,0.4-0.1,0.6-0.2c1.5-1.2,3.1-2.4,4.6-3.6c0.3-0.2,0.4-0.1,0.6,0.1C133.6,126.9,133.5,127.7,133.1,128.6L133.1,128.6z
		 M133.4,125.3c-0.2-0.1-0.3-0.2-0.3-0.4c-0.8-2-1.6-4-2.3-5.9c0-0.1,0-0.2,0-0.2l1.8,0.8c0.1,0,0.3,0.2,0.3,0.3
		c0.2,1.8,0.4,3.5,0.6,5.3C133.4,125.2,133.4,125.2,133.4,125.3L133.4,125.3z M135.2,108.5c-0.5,3.3-1.3,6.5-2.2,9.7
		c-0.2,0.6-0.2,0.6-0.7,0.3c-0.5-0.2-1.1-0.5-1.7-0.8c-0.2-0.1-0.4-0.3-0.4-0.5c0.1-2,0.3-3.9,0.4-5.9c0-0.2,0.1-0.3,0.2-0.5
		c1.6-1.8,3.1-3.6,4.6-5.3C135.5,106.5,135.4,107.5,135.2,108.5L135.2,108.5z"/>
</g>
<g id="Ellipse_11" transform="translate(13524 1065)">
	<circle class="st1" cx="-13409" cy="-950" r="50"/>
	<circle class="st2" cx="-13409" cy="-950" r="47.5"/>
</g>
<rect id="Rectangle_203" x="110" class="st5" width="10" height="50"/>
<rect id="Rectangle_208" y="110" class="st5" width="50" height="10"/>
<rect id="Rectangle_205" x="180" y="110" class="st5" width="50" height="10"/>
<rect id="Rectangle_206" x="110" y="180" class="st5" width="10" height="50"/>
<g id="Group_237" transform="translate(4419.608 4004.608) rotate(-30)">
	<g id="Group_221" transform="translate(-96 -3)">
		<g id="Rectangle_175" transform="translate(9450 2087)">
			<path class="st1" d="M-11119.3-7595.5L-11119.3-7595.5c20.2,0,36.5,16.3,36.5,36.5v81.5l0,0h-73l0,0v-81.5
				C-11155.8-7579.2-11139.5-7595.5-11119.3-7595.5z"/>
			<path class="st6" d="M-11119.3-7593L-11119.3-7593c18.8,0,34,15.2,34,34v77.2c0,1-0.8,1.8-1.8,1.8l0,0h-64.4
				c-1,0-1.8-0.8-1.8-1.8l0,0v-77.2C-11153.3-7577.8-11138.1-7593-11119.3-7593z"/>
		</g>
		<g id="Rectangle_175-2" transform="translate(9448 2085)">
			<path class="st1" d="M-11117.3-7595.5L-11117.3-7595.5c21.3,0,38.5,17.2,38.5,38.5v83.5l0,0h-77l0,0v-83.5
				C-11155.8-7578.3-11138.6-7595.5-11117.3-7595.5z"/>
			<path class="st6" d="M-11117.3-7593L-11117.3-7593c19.9,0,36,16.1,36,36v79.1c0,1-0.8,1.9-1.9,1.9h-68.2c-1,0-1.9-0.8-1.9-1.9
				v-79.1C-11153.3-7576.9-11137.2-7593-11117.3-7593z"/>
		</g>
	</g>
	<g id="Group_220" transform="translate(-78 -138)">
		<g id="Rectangle_176" transform="translate(9438 2235)">
			<path class="st1" d="M-11130.8-7595.5h12c13.8,0,25,11.2,25,25v2c0,5.5-4.5,10-10,10h-42c-5.5,0-10-4.5-10-10v-2
				C-11155.8-7584.3-11144.6-7595.5-11130.8-7595.5z"/>
			<path class="st6" d="M-11130.8-7593h12c12.4,0,22.5,10.1,22.5,22.5v2c0,4.1-3.4,7.5-7.5,7.5h-42c-4.1,0-7.5-3.4-7.5-7.5v-2
				C-11153.3-7583-11143.3-7593-11130.8-7593z"/>
		</g>
		<g id="Rectangle_178" transform="translate(9440 2237)">
			<path class="st1" d="M-11132.3-7595.5h10.9c13,0,23.6,10.6,23.6,23.6l0,0l0,0c0,5.2-4.2,9.4-9.4,9.4c0,0,0,0,0,0h-39.1
				c-5.2,0-9.4-4.2-9.4-9.4c0,0,0,0,0,0l0,0C-11155.8-7585-11145.3-7595.5-11132.3-7595.5
				C-11132.3-7595.5-11132.3-7595.5-11132.3-7595.5z"/>
			<path class="st6" d="M-11132.3-7593h11c11.6,0,21,9.4,21,21l0,0c0,3.9-3.1,7-7,7h-39c-3.9,0-7-3.1-7-7l0,0
				C-11153.3-7583.6-11143.9-7593-11132.3-7593z"/>
		</g>
	</g>
	<g id="Rectangle_175-3" transform="translate(9353 2083)">
		<path class="st1" d="M-11118.3-7595.5L-11118.3-7595.5c20.7,0,37.5,16.8,37.5,37.5v82.5l0,0h-75l0,0v-82.5
			C-11155.8-7578.7-11139-7595.5-11118.3-7595.5z"/>
		<path class="st2" d="M-11118.3-7593L-11118.3-7593c19.3,0,35,15.7,35,35v78.2c0,1-0.8,1.8-1.8,1.8c0,0,0,0,0,0h-66.3
			c-1,0-1.8-0.8-1.8-1.8l0,0v-78.2C-11153.3-7577.4-11137.7-7593-11118.3-7593z"/>
	</g>
	<g id="Rectangle_176-2" transform="translate(9361 2098)">
		<path class="st1" d="M-11130.8-7595.5h10c13.8,0,25,11.2,25,25l0,0c0,5.5-4.5,10-10,10h-40c-5.5,0-10-4.5-10-10l0,0
			C-11155.8-7584.3-11144.6-7595.5-11130.8-7595.5z"/>
		<path class="st2" d="M-11130.8-7593h10c12.4,0,22.5,10.1,22.5,22.5l0,0c0,4.1-3.4,7.5-7.5,7.5h-40c-4.1,0-7.5-3.4-7.5-7.5l0,0
			C-11153.3-7583-11143.3-7593-11130.8-7593z"/>
	</g>
</g>
<rect id="Rectangle_204" x="153.6" y="46.4" transform="matrix(0.7071 -0.7071 0.7071 0.7071 16.0051 141.36)" class="st5" width="50" height="10"/>
<rect id="Rectangle_202" x="46.4" y="26.4" transform="matrix(0.7071 -0.7071 0.7071 0.7071 -21.2739 51.3605)" class="st5" width="10" height="50"/>
<rect id="Rectangle_207" x="26.4" y="173.6" transform="matrix(0.7071 -0.7071 0.7071 0.7071 -111.2738 88.6398)" class="st5" width="50" height="10"/>
</svg>
