<svg xmlns="http://www.w3.org/2000/svg" viewBox="13219 300 280 138.941">
  <defs>
    <style>
      .cls-1 {
        opacity: 0.501;
      }

      .cls-2, .cls-5, .cls-7 {
        fill: none;
      }

      .cls-2, .cls-5 {
        stroke: #f8d747;
      }

      .cls-2 {
        stroke-miterlimit: 10;
        stroke-width: 2px;
      }

      .cls-3 {
        opacity: 0.503;
      }

      .cls-4 {
        fill: #f8d747;
      }

      .cls-5 {
        stroke-width: 3px;
      }

      .cls-6 {
        stroke: none;
      }
    </style>
  </defs>
  <g id="Group_366" data-name="Group 366" transform="translate(13177 16)">
    <g id="Group_236" data-name="Group 236" class="cls-1" transform="matrix(0.875, 0.485, -0.485, 0.875, 68.411, 292.185)">
      <g id="Pil" transform="translate(34.003 2.43) rotate(120)">
        <path id="Path_40" data-name="Path 40" class="cls-2" d="M11.349,5.814l-2.2-.486L5.354,8.7,3.9,6.326,0,0,6.982,1.721,11.349,2.8V5.814L43.107,18.853" transform="translate(0 0)"/>
        <path id="Path_41" data-name="Path 41" class="cls-2" d="M0,4.507,3.147,0l.326.078,1.845,3.53" transform="translate(3.835 1.721)"/>
      </g>
    </g>
    <g id="Group_242" data-name="Group 242" transform="translate(-1 25)">
      <g id="Mammut" class="cls-3" transform="translate(103.045 264.028)">
        <path id="Path_31" data-name="Path 31" class="cls-4" d="M29.274,261.617c.255-2.438.564-4.875.646-7.322a11.169,11.169,0,0,1,2.492-6.7c2.992-3.875,5.766-7.931,8.649-11.9a3.156,3.156,0,0,0,.655-2.146c-.273-5.021-.509-10-.755-15.052q-.564-11.2-1.128-22.4a3.484,3.484,0,0,1,.273-1.546q5.457-12.788,10.914-25.594a2.447,2.447,0,0,1,1.31-1.337c7.449-3.456,14.871-6.976,22.329-10.4,4.629-2.128,9.1-4.629,13.97-6.239,12.479-4.147,24.984-8.24,37.463-12.378a5.384,5.384,0,0,1,2.865-.146c6.676,1.392,13.37,2.729,20.009,4.129a3.147,3.147,0,0,0,2-.218q10.478-4.311,20.973-8.613a6.585,6.585,0,0,1,2.61-.518c2.246,0,4.548.045,6.749,0a2.519,2.519,0,0,1,2.037.91q2.729,2.947,5.621,5.821a2.8,2.8,0,0,1,.91,2.165v13.488a10.914,10.914,0,0,0,.309,2.538c1.664,7.158,3.911,14.17,4.92,21.483a97.3,97.3,0,0,1,1.355,15.671c-.1,4.457-.291,8.9-.537,13.352,0,.473-.173,1.01.246,1.392,2.465,2.283,4.3,5.248,7.467,6.8,2.3,1.137,4.338,2.91,6.794,3.638a154.082,154.082,0,0,0,27.649,5.193l5.9.628a76.018,76.018,0,0,1-7.14,4.411,1.819,1.819,0,0,1-.955.1c-5.175-.427-10.359-.546-15.516-1.228-6.567-.91-13.088-1.91-19.1-4.993a17.834,17.834,0,0,1-2.347-1.292c-1.255-.909-2.547-1.819-3.838-2.647-.246-.164-.755-.609-.8.055-.073,1.1-.346,2.246.473,3.283,1.573,1.983,3.147,3.984,4.548,6.066,2.074,3.038,5.239,4.684,8.3,6.285a22.738,22.738,0,0,0,12.9,2.583c1.983-.191,4,0,6,0a3.547,3.547,0,0,0,1.446-.182c3.056-1.255,6.194-2.292,9.022-4.084,3.374-2.146,6.867-4.12,10.3-6.185a1.119,1.119,0,0,1,1.61.155c.546.546.373.964.045,1.5q-2.11,3.447-4.184,6.921a3.511,3.511,0,0,1-1.3,1.255c-3.393,1.974-6.767,3.975-10.15,5.948a4.757,4.757,0,0,1-1.228.537,50.379,50.379,0,0,1-15.635,1.764,3.8,3.8,0,0,1-.728-.073,51.9,51.9,0,0,1-11.387-4.329c-3-1.655-6.085-3.156-9-4.975-.855-.528-1.1-.355-1.082.628V246c0,1.819.427,3.8-.218,5.33s-2.41,2.729-3.693,4.011c-.282.291-.6.737-.91.764-2.028.127-4.111.482-6.076-.155-4.166-1.337-6.567-4.748-9.3-8.258,1.564,0,2.82-.045,4.075,0a2.629,2.629,0,0,0,2.156-.91c1.946-1.955,1.974-1.937,3.22.555,1.137,2.274,1.1,2.21,3.383.91a1.683,1.683,0,0,0,.91-2.165c-1.237-5.921-2.5-11.824-3.565-17.781-1.819-10.123-4.766-20.009-5.221-30.4,0-.664-.355-.728-.91-.546-1.128.364-2.265.682-3.374,1.1a4.493,4.493,0,0,1-3.211,0c-3.474-1.182-7-2.237-10.478-3.429-.982-.346-1.328-.091-1.692.809q-4.548,11.26-9.168,22.465a3.138,3.138,0,0,0-.064,2.465c2.119,5.83,4.193,11.687,6.3,17.526a3.247,3.247,0,0,1,.073,2.137c-.709,2.392-1.146,4.884-2.083,7.176a11.232,11.232,0,0,0,.591,10.487c.782,1.346.455,2.3-.628,3.383a3.856,3.856,0,0,1-3.274,1.419,46.289,46.289,0,0,0-5.148,0,2.483,2.483,0,0,1-1.774-.664c-1.983-1.7-3.975-3.393-6-5.039a6.74,6.74,0,0,1-2.065-2.665c-.782-1.819-1.592-3.638-2.51-5.457a1.892,1.892,0,0,1,.255-2.31c1.182-1.564,2.274-3.192,3.42-4.784.264-.382.509-.719.3-1.228-1.155-2.729-2.292-5.5-3.438-8.258-.109-.246-.291-.655-.591-.309-1.155,1.328-2.883,2.192-3.383,4.075-1.337,5.1-2.665,10.2-4.056,15.28a3.183,3.183,0,0,0,.3,2.556c1.319,2.356,2.5,4.775,3.838,7.112.573,1,.3,1.419-.628,1.819-1.264.564-2.5,1.21-3.729,1.819a3.711,3.711,0,0,1-1.764.418H111.967a2.865,2.865,0,0,1-1.428-.264c-1.292-.709-2.592-1.382-3.893-2.083-.355-.191-.773-.355-.755-.91.127-2.929-.437-5.885.364-8.777q3.711-13.27,7.44-26.549c.109-.4.409-.809.127-1.328-.373.182-.746.346-1.1.546-5.284,2.938-10.55,5.9-15.853,8.8a1.819,1.819,0,0,0-1.064,1.819v14.834a2.574,2.574,0,0,0,.864,2.037c2.028,1.965,4,3.975,5.994,5.966.409.409.7.737-.118,1.019-3.574,1.21-7.021,2.874-11,2.438a33.076,33.076,0,0,0-6,0,12.733,12.733,0,0,1-8.377-2.019l-.109-.055c-.8-.273-1.082-.709-.91-1.655.782-3.92,1.446-7.867,2.174-11.824a4.329,4.329,0,0,0-.173-2.4c-.564-1.528-1.11-3.065-1.619-4.62a1.819,1.819,0,0,0-.982-1.164q-4.111-2.083-8.186-4.22a.91.91,0,0,0-1.355.218q-7.7,8.649-15.462,17.281a1.592,1.592,0,0,0-.355,1.764c1.1,3.411,1.937,6.93,4.047,9.932.209.291.582.773-.1.964-2.547.709-5,1.919-7.667,2.046-3.747.173-7.513,0-11.278,0a2,2,0,0,1-1.537-.582c-1.282-1.255-2.592-2.492-3.911-3.711A1.51,1.51,0,0,1,29.274,261.617Zm208.8-33.961a6.639,6.639,0,0,0-2.674-.246C236.4,228.893,236.744,228.911,238.072,227.656Zm-4.548,1.155c-1.246-1.983-2.046-2.046-4.975-.509,1.628.446,3.256.218,4.957.509Zm-10.641-1.2c.155.182.373.127.573.064l4.275-1.292v-.236l-6.767-1.191A15.835,15.835,0,0,0,222.883,227.61Zm-2.41,0c-.791-1.037-1.355-1.764-1.91-2.5a.673.673,0,0,0-.864-.236,24.914,24.914,0,0,0-3.82,1.719Zm-7.9-2.729c.828-.318,1.637-.655,2.456-.982l-.109-.246c-1.137-.291-2.274-.582-3.411-.91-.609-.164-.91,0-.91.673C210.5,225.646,210.486,225.664,212.569,224.882Zm-8.313-1.137c1.191.491,2.392.964,3.583,1.473.546.227.8.155.91-.509.227-2.092.1-2.228-1.983-1.819l-2.483.528Zm.209-2.283c.709-.146,1.419-.318,2.5-.555l-4.548-2.556c-.446-.255-.682-.146-.691.382a.521.521,0,0,1,0,.118c-.455,3.3-.455,3.3,2.738,2.6Zm-5.33-.337c.337.246.509.073.582-.282v-.236c.509-2.792.309-2.983-2.456-2.328l-1.546.373a28.622,28.622,0,0,0,3.42,2.465Zm-3.711-4.347a.557.557,0,0,0,.118,0c1.082-.327,2.729-.173,3.111-.955s-1.246-1.546-1.919-2.383a2.729,2.729,0,0,0-1.319-1.082c-.246,1.3-.491,2.556-.709,3.82-.1.518.2.7.719.591Zm47.931,18.9c.746-1.21,1.473-2.419,2.21-3.638l-.218-.227-6.785,4.038.055.291h4.066a.791.791,0,0,0,.673-.473Zm-3.4,2.474a23.074,23.074,0,0,0-4.111-.118c-.427,0-.618.3-.755.673a12.416,12.416,0,0,0-.728,2.729ZM182.718,250.1c-.246-.464-.491-.909-.728-1.41s-.464-.473-.746-.136a3.165,3.165,0,0,1-3.083,1.091c.209.364.255.473.327.564,1.4,1.819,2.137,1.883,3.975.582.282-.2.427-.373.255-.7Zm-.591,3.092a4.548,4.548,0,0,0,3.947,1.055c-1.064-2.083-2.083-2.392-3.947-1.064Zm-145.659-7.9c-.982,1.355-1.937,2.729-2.938,4.066-.373.509-.473.91.318.955l12.806,1.555c.91.109.646-.455.482-.91q-1.519-4.466-3.038-8.9c-.528-1.573-1.064-3.147-1.7-5.039-2.11,2.929-4.011,5.594-5.93,8.267Zm15.544-73.907c-3.02,7.194-6.094,14.361-9.15,21.537-.582,1.373-.546,1.455.91,1.337,9-.773,17.981-1.573,26.967-2.347,3.338-.291,6.676-.546,10-.828.682-.064,1.373-.155,2.056-.227l.082-.282-7.6-5.1c-7.222-4.848-14.461-9.686-21.656-14.552-.882-.609-1.2-.527-1.61.455ZM84.8,154.531Q73.613,159.8,62.39,165.017L54.077,168.9c.955.664,1.646,1.155,2.356,1.628l27.285,18.3c.391.255.782.828,1.255.564s.182-.828.191-1.255q.273-13.233.518-26.458c.045-2.165.082-4.329.173-6.485.009-.909-.218-1.064-1.055-.673Zm2.91.509c-.136,8.9-.327,17.79-.473,26.694-.045,2.6,0,5.2,0,7.995l44.33-27.6c-1.737-.346-3.111-.637-4.493-.91l-37.981-7.276c-1.064-.209-1.364,0-1.382,1.091Zm39.437-13.761c-.173-.591-.337-.91-1.082-.691q-17.281,5.757-34.653,11.487c-.073,0-.127.091-.409.318l8.358,1.619,31.878,6.121a4.451,4.451,0,0,1,.482.082c.91.282,1.064.055.791-.846-1.11-3.593-2.156-7.2-3.22-10.805C128.575,146.136,127.847,143.716,127.147,141.279Zm9.641,23.284a7.955,7.955,0,0,0-.782-.382c1.883,5.593,3.638,10.914,5.457,16.171,1.41,4.184,2.82,8.349,4.193,12.542.282.837.437,1.228,1.273.364,3.993-4.138,8.031-8.24,12.069-12.333.546-.555.819-.91,0-1.492Q147.848,172.03,136.788,164.563Zm21,11.5c-.573-.91-1.155-1.91-1.737-2.865-1.965-3.2-3.947-6.367-5.875-9.614a1.819,1.819,0,0,0-1.764-.973c-3.511,0-7.021,0-10.678.3l19.837,13.352Zm-12.46,24.266c-.491-5-2.456-9.541-3.965-14.225-2.119-6.567-4.384-13.088-6.594-19.627-.127-.373-.282-.746-.427-1.128h-.273q-1.419,4.675-2.829,9.359-6.9,23.111-13.816,46.24c-.409,1.382-.373,1.4,1.11,1.246l23.02-2.392c1.664-.173,3.32-.373,4.993-.5.91-.073,1.155-.5,1.046-1.364C146.8,212.021,145.9,206.173,145.328,200.325Zm1.946-56.126c-5.794-1.173-11.587-2.383-17.381-3.556-.309-.064-.91-.364-.91.364.082.255.146.491.218.728q2.474,8.331,4.939,16.662c.109.364.073.909.555.991s.573-.418.809-.682q6.03-6.749,12.06-13.524c.555-.637.509-.873-.291-1.028Zm3.465,1.555c-.437-.427-.719-.527-1.182,0q-6.4,7.244-12.833,14.461a.91.91,0,0,0-.127.318c.337.291.719.164,1.064.164h10.914a2.492,2.492,0,0,0,1.946-.791q3.329-3.247,6.721-6.43c.582-.546.628-.91,0-1.446C155.051,149.974,152.886,147.864,150.74,145.754ZM165.01,157.2c-.337-.191-.591.164-.837.346-1.774,1.246-3.52,2.519-5.284,3.765-.437.309-.773.564-.327,1.164,2.1,2.865,4.175,5.748,6.267,8.622a1.092,1.092,0,0,1,.382.1v-13.1c-.009-.318.127-.728-.2-.91Zm-.291-2.383a2.574,2.574,0,0,0,1.082-1.064h-5.648a1.146,1.146,0,0,0-.682.209c-2.265,2.137-4.548,4.293-6.967,6.63,2.246.118,4.075.318,5.794-1.119,2.046-1.692,4.275-3.111,6.421-4.629Zm5.739-18.463c-5.757,2.592-11.678,4.848-17.526,7.276-.337.146-.646.318-.91.446,1.6,1.655,3.138,3.329,4.757,4.93.828.819,1.519,2.192,2.628,2.228s1.819-1.228,2.729-1.946q8.031-6.512,16.044-13.042c.3-.246.728-.4.91-.991-3.038-.1-5.83-.173-8.631,1.091Zm10.55.291c-.373-.209-.573.182-.809.373q-5.757,4.657-11.505,9.332Q165.838,148.673,163,151c-.236.2-.573.327-.664.855H180.19c.682,0,.955-.282.955-.91V137.223c.018-.218-.018-.518-.136-.564Zm-13.643,31.233,12.26-13.779-.136-.346H168.148c-.491,0-1.055-.055-1.064.673-.036,4.429-.027,8.859.255,13.443Zm20.473-26.376c-1.592-1.483-3.22-2.929-4.82-4.384V140.3c0,3.638,0,7.276-.055,10.914a1.61,1.61,0,0,0,.91,1.592c1.091.637,2.165,1.31,3.211,2.019.837.555,1.019.255,1.01-.609V142.589c-.082-.373,0-.809-.282-1.064Zm3.138,27.431c-.855-3.392-1.746-6.785-2.565-10.187a2.419,2.419,0,0,0-1.246-1.683c-1.182-.7-2.328-1.446-3.82-2.374.509,3.192,1.037,5.985,1.373,8.8a6.366,6.366,0,0,0,2.128,4.211,34.561,34.561,0,0,0,4.7,3.693c-.218-.809-.391-1.628-.6-2.447Zm-7.9-.837c-.564.391-1.182.719-1.774,1.073-.246.146-.509.273-.518.618s.218.418.437.537.646.327.973.5c1.764.91,1.728.91,2.8-.773a1.255,1.255,0,0,0-.155-1.819,1.137,1.137,0,0,0-1.755-.118Zm10.559,14.625c-.391-2.246-.728-4.548-1.055-6.767a2.219,2.219,0,0,0-.855-1.537c-1.328-1.082-2.656-2.183-3.92-3.329-.673-.618-.91-.437-1.464.246a3.283,3.283,0,0,0-.309,3.684c2.638,6.239,5.139,12.533,7.685,18.8.155.373.327.737.491,1.1a40.928,40.928,0,0,0-.573-12.2Zm.791,19.7c.064-.782-.136-1.191-.982-1.346-1.555-.291-3.1-.673-4.648-1.055-.582-.136-.91,0-.746.618,1,5.694,1.619,11.469,4.047,16.808a2.728,2.728,0,0,0,.346.427c.518-2.81,1.119-5.457,1.464-8.186C194.224,207.319,194.242,204.872,194.424,202.426ZM230.968,241.4c.7.609,1.037.582,1.282-.346.173-.655.437-1.282.773-2.246-.809.282-1.3.446-1.819.628C229.468,240.116,229.468,240.107,230.968,241.4Zm-.91,1.728-1.692-1.546a.437.437,0,0,0-.728.082c-.518.709-1.019,1.437-1.673,2.365a20,20,0,0,0,4.093-.9Zm-14.234-1.4c.91,2.82.91,2.829,3.938,2.829h.364c3.456,0,3.438,0,5.266-3,.382-.628.327-.91-.437-.855h-8.322C215.825,240.662,215.534,240.835,215.825,241.726Zm-2.883,1.919c.491.1,1.1.6,1.455.164s-.191-.964-.327-1.455c-.2-.709-.546-.837-1.091-.291-.373.373-.755.719-1.292,1.219a12.016,12.016,0,0,0,1.264.364Zm-3.183-2.028c.182.409.455.409.755.136.518-.491,1.392-.964,1.455-1.519s-1.019-.537-1.583-.8-.973-.346-1.819-.646c.482,1.155.837,1.992,1.2,2.829Zm-2.056.1c-.527-1.219-.91-2.092-1.273-2.974a.546.546,0,0,0-.764-.355,11.424,11.424,0,0,0-2.674.91Zm-7.276-4.448a.628.628,0,0,0,.91.4l3.02-.91c-2.119-1.774-4.6-2.619-6.212-4.684q1.187,2.606,2.337,5.193Zm-7.276-4.193c1.091,1.764,2.983,2.228,4.484,3.32l.255-.218c-.5-1.137-1-2.283-1.51-3.42-1.073-2.419-2.183-4.83-3.229-7.276a2.474,2.474,0,0,0-1.71-1.51,47.989,47.989,0,0,0-5.321-1.446l2.5,3.729c1.519,2.265,3.111,4.493,4.538,6.812Zm-.737,15.353c0-1.337.1-2.638-.828-3.829-1.037-1.337-1.874-2.829-2.8-4.257l-.273.118c.455,2.265.828,4.548,1.4,6.776.227.91,1.31,1.164,2.046,1.646.409.264.455-.173.464-.455Zm-4.548,4.548c.337.291.682.564,1,.819.609-.118.864-.573,1.2-.909,1.819-1.819,1.819-1.819-.337-3.238a1.246,1.246,0,0,0-1.546,0c-2.374,1.5-2.419,1.492-.282,3.347Zm4.548-10.96v-6.23a1.819,1.819,0,0,0-.355-1.028q-3-4.475-6.021-8.941c-.064-.091-.191-.127-.291-.2a25.53,25.53,0,0,0,6.667,16.417Zm-6.6-21.874c1.819.591,3.711,1.21,5.9,1.919-1.019-2.81-1.937-5.366-2.965-8.186-1.237,1.955-2.265,3.638-3.32,5.248C185.083,219.67,185.211,219.943,185.811,220.143Zm-3.638-11.824c.573,3.083,1.155,6.167,1.819,9.641,1.3-2.056,2.392-3.8,3.483-5.548.264-.409,0-.682-.282-.91l-4.693-3.738h0c-.118-.146-.282-.364-.446-.173s-.036.455.118.691Zm5.393.7c-.437-2.547-.91-5.1-1.31-7.649-.082-.482-.291-.655-.709-.246-1.073,1.064-2.146,2.11-3.238,3.147-.291.282-.364.518,0,.8l5.057,4.12Zm-6.649-10.769a28.2,28.2,0,0,0,.355,4.1l.373.264c.91-1.046,1.883-2.092,2.847-3.129.373-.4.246-.609-.209-.773-.91-.337-1.819-.673-2.729-1.037-.655-.3-.673.055-.646.537Zm.982-2.474a54.387,54.387,0,0,0,10.769,3.174c.309.055.673.327.91,0s-.064-.618-.182-.91q-4.757-11.733-9.523-23.465c-.573-1.419-1.91-1.583-3.111-2.319,0,.564-.055.91-.055,1.282v20.437A1.6,1.6,0,0,0,181.9,195.777Zm-9.032.418a1.128,1.128,0,0,0,1.528.491c1.191-.437,2.4-.8,3.638-1.173a.909.909,0,0,0,.773-.91V172.585l-.282-.1c-1.655,2.365-3.311,4.72-4.957,7.094-1.864,2.674-3.711,5.366-5.621,8.013a1.373,1.373,0,0,0,0,1.919c1.692,2.183,3.311,4.448,4.92,6.694Zm-2.729-.055.173-.236-4.056-5.584c-.246-.355-.518-.318-.828-.082l-4.066,3.02Zm-10.65-3.865a30.924,30.924,0,0,0,9.886-10c2.528-4.047,5.457-7.822,8.113-11.824a10.914,10.914,0,0,1,4.548-3.929,1.583,1.583,0,0,0,.964-2.037c-.537-2.729-.91-5.457-1.355-8.186-.055-.355-.155-.7-.236-1.046-.455,0-.618.327-.828.564-4.211,4.72-8.4,9.468-12.633,14.179a3.265,3.265,0,0,0-.91,2.528c.073,1.419,0,2.847,0,4.338-.655,0-.773-.528-1-.846-2.938-4.029-5.875-8.058-8.74-12.133a2.383,2.383,0,0,0-2.51-1.264c-.91.146-2.2-.446-2.619.273-.337.582.719,1.51,1.182,2.265,2.792,4.548,5.575,9.1,8.413,13.643a1.464,1.464,0,0,1-.218,2.183c-4.093,4.111-8.122,8.277-12.178,12.433-.218.227-.409.473-.618.719l.136.227c3.256-.546,6.512-1.082,9.768-1.646a2.784,2.784,0,0,0,.855-.427Zm-6.512,14.279c1.437-3.52,2.847-7.04,4.329-10.541.437-1.028.155-1.182-.819-1.01-2.774.5-5.539,1.01-8.331,1.392-1.119.155-1.446.564-1.3,1.655.564,4,1.064,8,1.592,12.015.227,1.728.446,3.456.673,5.175h.291q1.837-4.329,3.583-8.677Zm1.264,34.88c.155-.564.091-.846-.609-.755l-12.524,1.483,5.712,5.084c1.282,1.137,2.592,2.247,3.856,3.4.555.509.864.518,1.073-.264q1.246-4.457,2.51-8.941Zm-1.655,17.508c.5,0,.491-.346.364-.682-.509-1.337-1.037-2.665-1.555-3.993a1.019,1.019,0,0,0-.737-.591l-11.678-3.229a1.248,1.248,0,0,0-.491.127l4.993,4.393a23.647,23.647,0,0,1,2.856,2.5c1.764,2.156,4.1,1.364,6.267,1.482ZM138.752,255.3c2.256,1.919,4.548,3.8,6.849,5.7h0c2.11.5,4.229.082,6.367.227v-.446h-4.657l-9.7-8.431a4.02,4.02,0,0,0,1.164,2.929Zm-2.583-8.431c-.364.509-.264.746.355.91,3.72,1.019,7.44,2.074,11.151,3.12l.136-.218-8.186-7.276c-.455-.409-.755-.3-1.082.164-.773,1.1-1.564,2.228-2.356,3.283Zm.209-13.743c.909,2.146,1.819,4.293,2.674,6.449.227.537.491.909,1.164.809l11.56-1.355c-1.037-.691-14.1-6.367-15.462-6.776-.346.309-.027.591.082.855Zm17.736,4.648c-.691-1.974-1.264-3.638-1.819-5.239q-1.819-5.184-3.711-10.359c-.182-.5-.291-1.091-1.055-.518-3.747,2.729-7.5,5.457-11.46,8.34Zm-24.048-4.729c3.638-4.275,8.5-7.085,12.915-10.432l1.155-.91-.082-.318-6.549.637L119.5,223.918c-.355,0-.91-.118-1.01.246s.391.637.673.91l9.477,7.949c.509.4.919.628,1.446.045Zm-2.137,4.375c.264-.973,0-1.11-.91-.91-4.266,1.082-8.54,2.119-12.824,3.174-.709.173-1.2.337-.4,1.119,3.311,3.265,6.594,6.558,9.886,9.841a4.542,4.542,0,0,0,.6.418c.373-1.4.709-2.729,1.055-3.984.882-3.211,1.719-6.449,2.61-9.677Zm-3.511,17.063a.746.746,0,0,0-.846-.337l-11.278,1.228v.337l15.307,4.775c-1.155-2.237-2.156-4.129-3.165-6.021Zm-16.635,3.256a2.432,2.432,0,0,0,0,.364c.164,1.191-.6,2.729.382,3.5a7.888,7.888,0,0,0,5.23,2.056c3.22-.146,6.458-.091,9.677,0a6.521,6.521,0,0,0,3.82-1.364l-3.52-1.11-14.261-4.457c-1.291-.446-1.3-.437-1.31.991Zm.528-4.639c-.146.518-.073.8.537.737l13.361-1.446-10.7-10.687c-1.019,3.693-2.1,7.54-3.183,11.369Zm4.484-15.953c-.091.327-.609,1.064.546.855,3.8-.91,7.685-1.874,11.569-2.865.728-.182,1.91-.091,2.074-.728s-.91-1.073-1.51-1.564c-2.729-2.356-5.566-4.666-8.34-7.012-.655-.564-1-.691-1.273.346-.991,3.647-2.037,7.294-3.047,10.951Zm1.528-16.635c.864.91.91.91,1.328-.318q4.147-13.834,8.286-27.686l8.186-27.285c.1-.337.173-.691.255-1.037-.509-.127-.764.2-1.055.382L89.2,190.757a6.373,6.373,0,0,1-.618.391c-.91.409-.91.828-.218,1.537q11.56,12.333,23.047,24.73C112.377,218.424,113.341,219.479,114.323,220.516Zm-15.462,37.9-3.947-3.938a.828.828,0,0,0-.91-.209c-3.493.91-6.985,1.819-10.478,3.02L98.7,258.67ZM93.9,237.287c0-.564.136-1.191-.864-.91-4.411,1.028-8.831,2.019-13.252,3.029a2.588,2.588,0,0,0-.446.218c1.974,1.573,3.875,3.092,5.794,4.6q3.838,3.038,7.7,6.066c.264.209.518.655.91.455s.155-.6.155-.909Q93.95,243.545,93.9,237.287Zm-10,11.878c-.973-.427-1.946-.846-2.91-1.3-.546-.264-.782-.164-.909.473-.409,2.41-.91,4.811-1.319,7.222-.073.4-.064.8.518.646l12.733-3.365Zm3.638-.655-8.086-6.367c.291,1.728.355,3.447,2.437,4.147a58.426,58.426,0,0,1,5.539,2.428Zm-9.313,10.578a.446.446,0,0,0,.282.491c1.428.637,2.674,1.655,4.4,1.619,3.747-.073,7.494,0,11.242,0a3.074,3.074,0,0,0,2.347-.8l-6.512-.618-10.223-.91c-.318,0-.646-.055-.973-.055s-.473-.055-.527.273Zm1.392-21.656c4.739-1.073,9.486-2.11,14.216-3.229,1.819-.427,3.274-1.628,4.884-2.5,4.766-2.6,9.5-5.284,14.261-7.895.91-.491,1.082-.809.291-1.646q-12.278-13.1-24.5-26.249a12.216,12.216,0,0,0-2.174-2.165c-.6,3.129-1.182,6.076-1.746,9.031l-6.276,33.1a2.921,2.921,0,0,1-.1.473c-.218,1.382-.218,1.392,1.182,1.082ZM68.7,233.668c2.237,1.082,4.457,2.228,6.649,3.411.8.437,1.01.236,1.164-.6q2.638-14.025,5.321-28.022.828-4.32,1.646-8.649l-.209-.136c-.91,1.983-1.883,3.956-2.81,5.948-4.1,8.759-8.186,17.526-12.324,26.276-.373.9-.282,1.328.618,1.774Zm-2-3.156q8.677-18.363,17.244-36.717c.509-1.073.482-1.082-1.473-.991l-21.483,1.874c-5.894.509-11.824,1.037-17.69,1.5-1.064.082-1.219.373-.91,1.328q1.519,4.129,2.883,8.331a6.9,6.9,0,0,0,1.473,2.228q9.222,11.3,18.49,22.556c.937,1.073.964,1.082,1.519-.109Zm-2.647,2c.182-.409-.246-.655-.464-.91Q54.095,220,44.563,208.392a5.694,5.694,0,0,1-1.01-1.819c-.382-1.146-.8-2.283-1.2-3.42H42.18c0,1.119-.045,2.237,0,3.356q.564,11.26,1.155,22.51c.064,1.31.173,2.61.2,3.911,0,.746.273.991,1.028.91,6.194-.409,12.4-.782,18.591-1.173.373.064.782.191.955-.155Zm-.473,2.665a1.819,1.819,0,0,0,.155-.409,12.133,12.133,0,0,0-2.929,0c-5.221.309-10.432.655-15.644.909-.864.046-1.173.218-.846,1.155,1.546,4.438,3.038,8.886,4.548,13.334.191.582.337,1.055.991.309q6.9-7.631,13.779-15.3Zm-12.824,29.1c.355-.146,1.219,0,.828-.8-.246-.537-.355-1.41-1.419-1.055-2.856.909-5.739,1.819-8.6,2.729a17.226,17.226,0,0,0,9.25-.891Zm-18.536-1.555c.773.791,1.583,1.537,2.392,2.283.191.182.446.182.864.082l3.62-1.1c3.347-1.055,6.685-2.128,10.05-3.147.782-.236,1.073-.527.755-1.373-.509-1.373-.91-2.792-1.328-4.2-.182-.628-.455-.764-1.055-.464-4.948,2.41-9.914,4.793-14.871,7.2-.282.091-.846.218-.373.7Zm-.155-2.592,12.961-6.257-.064-.3c-3.192-.382-6.367-.809-9.568-1.146-1.037-.109-2.274-.746-3.083-.127s-.437,1.983-.564,3.01c-.182,1.419-.282,2.838-.418,4.257-.009.573.146.864.773.546Z" transform="translate(-29.273 -133.228)"/>
        <path id="Path_32" data-name="Path 32" class="cls-4" d="M143.021,273.46c-.5.655-1.128.236-1.7.218h0A4.184,4.184,0,0,0,143.021,273.46Z" transform="translate(-24.974 -145.917)"/>
        <path id="Path_33" data-name="Path 33" class="cls-4" d="M103.069,215.12h0l-.309.573C102.606,215.366,102.615,215.12,103.069,215.12Z" transform="translate(50.13 -140.638)"/>
      </g>
      <g id="Ellipse_10" data-name="Ellipse 10" class="cls-5" transform="translate(43 259)">
        <circle class="cls-6" cx="31.422" cy="31.422" r="31.422"/>
        <circle class="cls-7" cx="31.422" cy="31.422" r="29.922"/>
      </g>
    </g>
  </g>
</svg>
