<svg xmlns="http://www.w3.org/2000/svg" viewBox="13574 251 230 237.328">
  <defs>
    <style>
      .cls-1 {
        opacity: 0.501;
      }

      .cls-2, .cls-3, .cls-4, .cls-6, .cls-8 {
        fill: none;
      }

      .cls-2, .cls-3, .cls-4 {
        stroke: #f8d747;
      }

      .cls-2, .cls-3 {
        stroke-miterlimit: 10;
      }

      .cls-2 {
        stroke-width: 3.5px;
      }

      .cls-3 {
        stroke-width: 2px;
      }

      .cls-4, .cls-6 {
        stroke-width: 5px;
      }

      .cls-5 {
        fill: #f8d747;
      }

      .cls-6 {
        stroke: #000;
      }

      .cls-7 {
        stroke: none;
      }
    </style>
  </defs>
  <g id="Group_239" data-name="Group 239" transform="translate(115 -749)">
    <g id="Group_238" data-name="Group 238" class="cls-1" transform="matrix(0.875, 0.485, -0.485, 0.875, 13583.375, 705.07)">
      <g id="Pil" transform="translate(220.761 338.173) rotate(120)">
        <path id="Path_40" data-name="Path 40" class="cls-2" d="M20.189,10.8l-3.5-.773L10.65,15.39,8.331,11.616,2.13,1.55,13.24,4.288,20.189,6v4.8L70.724,31.55"/>
        <path id="Path_41" data-name="Path 41" class="cls-3" d="M9.55,12.051,14.558,4.88,15.076,5l2.936,5.617" transform="translate(-1.318 -0.592)"/>
      </g>
    </g>
    <g id="Ellipse_11" data-name="Ellipse 11" class="cls-4" transform="translate(13524 1065)">
      <circle class="cls-7" cx="50" cy="50" r="50"/>
      <circle class="cls-8" cx="50" cy="50" r="47.5"/>
    </g>
    <rect id="Rectangle_203" data-name="Rectangle 203" class="cls-5" width="10" height="50" transform="translate(13569 1000)"/>
    <rect id="Rectangle_208" data-name="Rectangle 208" class="cls-5" width="10" height="50" transform="translate(13459 1120) rotate(-90)"/>
    <rect id="Rectangle_205" data-name="Rectangle 205" class="cls-5" width="10" height="50" transform="translate(13639 1120) rotate(-90)"/>
    <rect id="Rectangle_206" data-name="Rectangle 206" class="cls-5" width="10" height="50" transform="translate(13569 1180)"/>
    <g id="Group_237" data-name="Group 237" transform="translate(4419.608 4004.608) rotate(-30)">
      <g id="Group_221" data-name="Group 221" transform="translate(-96 -3)">
        <g id="Rectangle_175" data-name="Rectangle 175" class="cls-6" transform="translate(9450 2087)">
          <path class="cls-7" d="M36.5,0h0A36.5,36.5,0,0,1,73,36.5V118a0,0,0,0,1,0,0H0a0,0,0,0,1,0,0V36.5A36.5,36.5,0,0,1,36.5,0Z"/>
          <path class="cls-8" d="M36.5,2.5h0a34,34,0,0,1,34,34v77.211a1.789,1.789,0,0,1-1.789,1.789H4.289A1.789,1.789,0,0,1,2.5,113.711V36.5a34,34,0,0,1,34-34Z"/>
        </g>
        <g id="Rectangle_175-2" data-name="Rectangle 175" class="cls-6" transform="translate(9448 2085)">
          <path class="cls-7" d="M38.5,0h0A38.5,38.5,0,0,1,77,38.5V122a0,0,0,0,1,0,0H0a0,0,0,0,1,0,0V38.5A38.5,38.5,0,0,1,38.5,0Z"/>
          <path class="cls-8" d="M38.5,2.5h0a36,36,0,0,1,36,36v79.105a1.895,1.895,0,0,1-1.895,1.895H4.395A1.895,1.895,0,0,1,2.5,117.605V38.5A36,36,0,0,1,38.5,2.5Z"/>
        </g>
      </g>
      <g id="Group_220" data-name="Group 220" transform="translate(-78 -138)">
        <g id="Rectangle_176" data-name="Rectangle 176" class="cls-6" transform="translate(9438 2235)">
          <path class="cls-7" d="M25,0H37A25,25,0,0,1,62,25v2A10,10,0,0,1,52,37H10A10,10,0,0,1,0,27V25A25,25,0,0,1,25,0Z"/>
          <path class="cls-8" d="M25,2.5H37A22.5,22.5,0,0,1,59.5,25v2A7.5,7.5,0,0,1,52,34.5H10A7.5,7.5,0,0,1,2.5,27V25A22.5,22.5,0,0,1,25,2.5Z"/>
        </g>
        <g id="Rectangle_178" data-name="Rectangle 178" class="cls-6" transform="translate(9440 2237)">
          <path class="cls-7" d="M23.571,0H34.429A23.571,23.571,0,0,1,58,23.571v0A9.429,9.429,0,0,1,48.571,33H9.429A9.429,9.429,0,0,1,0,23.571v0A23.571,23.571,0,0,1,23.571,0Z"/>
          <path class="cls-8" d="M23.5,2.5h11a21,21,0,0,1,21,21v0a7,7,0,0,1-7,7H9.5a7,7,0,0,1-7-7v0A21,21,0,0,1,23.5,2.5Z"/>
        </g>
      </g>
      <g id="Rectangle_175-3" data-name="Rectangle 175" class="cls-4" transform="translate(9353 2083)">
        <path class="cls-7" d="M37.5,0h0A37.5,37.5,0,0,1,75,37.5V120a0,0,0,0,1,0,0H0a0,0,0,0,1,0,0V37.5A37.5,37.5,0,0,1,37.5,0Z"/>
        <path class="cls-8" d="M37.5,2.5h0a35,35,0,0,1,35,35v78.158a1.842,1.842,0,0,1-1.842,1.842H4.342A1.842,1.842,0,0,1,2.5,115.658V37.5a35,35,0,0,1,35-35Z"/>
      </g>
      <g id="Rectangle_176-2" data-name="Rectangle 176" class="cls-4" transform="translate(9361 2098)">
        <path class="cls-7" d="M25,0H35A25,25,0,0,1,60,25v0A10,10,0,0,1,50,35H10A10,10,0,0,1,0,25v0A25,25,0,0,1,25,0Z"/>
        <path class="cls-8" d="M25,2.5H35A22.5,22.5,0,0,1,57.5,25v0A7.5,7.5,0,0,1,50,32.5H10A7.5,7.5,0,0,1,2.5,25v0A22.5,22.5,0,0,1,25,2.5Z"/>
      </g>
    </g>
    <rect id="Rectangle_204" data-name="Rectangle 204" class="cls-5" width="10" height="50" transform="translate(13651.781 1030.147) rotate(45)"/>
    <rect id="Rectangle_202" data-name="Rectangle 202" class="cls-5" width="10" height="50" transform="translate(13489.147 1037.218) rotate(-45)"/>
    <rect id="Rectangle_207" data-name="Rectangle 207" class="cls-5" width="10" height="50" transform="translate(13524.503 1157.426) rotate(45)"/>
  </g>
</svg>
