<svg xmlns="http://www.w3.org/2000/svg" viewBox="7682 -1717.106 380.557 244.196">
  <defs>
    <style>
      .cls-1 {
        fill: #f8d747;
      }

      .cls-2, .cls-3 {
        fill: none;
        stroke: #f8d747;
        stroke-miterlimit: 10;
      }

      .cls-2 {
        stroke-width: 3.5px;
      }

      .cls-3 {
        stroke-width: 2px;
      }
    </style>
  </defs>
  <g id="Group_367" data-name="Group 367" transform="translate(7170 -1874)">
    <g id="Mammut_Cry" data-name="Mammut Cry" transform="translate(512.017 188.02)">
      <path id="Path_34" data-name="Path 34" class="cls-1" d="M402.944,288.117c-.417-3.937-.8-7.889-1.081-11.841a13.23,13.23,0,0,0-2.81-7.487c-3.443-4.462-6.36-9.355-10-13.632-4.076-4.817-6.175-9.865-4.631-16.179a20.853,20.853,0,0,0,.139-3.69c.648-12.489,1.189-24.994,1.976-37.483a35.646,35.646,0,0,0-2.933-18.417c-4.832-10.1-8.939-20.517-13.246-30.876a6.684,6.684,0,0,0-3.705-3.8c-8.969-4.107-17.877-8.367-26.847-12.474-8.568-3.921-16.827-8.63-25.735-11.7-19.575-6.762-39.3-13.06-58.957-19.575a7.533,7.533,0,0,0-4.137-.247c-9.386,1.961-18.834,3.736-28.205,5.851-2.81.633-4.153,0-5.589-2.5a67.928,67.928,0,0,0-8.043-12c-5.357-5.789-11.486-7.719-19.066-6.885a8.722,8.722,0,0,0-6.052,2.5,120.416,120.416,0,0,1-30.166,23.3,138.941,138.941,0,0,0-36.387,27.788c-3.952,4.261-9.124,6.885-13.678,10.343a3.535,3.535,0,0,1-2.269.509,95.347,95.347,0,0,1-11.887-.108c-3.628-.479-7.086-1.822-8.614-5.882-1.9-5.033-3.952-9.988-6.067-14.944a11.1,11.1,0,0,1-.9-5.65c.463-4.292.849-8.583,1.328-12.875a7.1,7.1,0,0,0-.34-3.365c-1.1-2.98-2.146-5.974-3.227-8.954-.324-.911-.6-1.791-1.7-2.192-5.758-2.13-11.378-4.909-17.815-4.029-.926.124-2.192-.479-2.671.525-.371.756.54,1.544,1.081,2.269,3.088,3.659,4.539,7.379,1.158,11.686-.849,1.081-.386,1.76,1.034,1.729,2.563,0,5.125.108,7.719,0,2.146-.108,2.563.756,2.161,2.686-.54,2.485-.756,5.048-1.3,7.549a32.636,32.636,0,0,0,.232,15.1,59.482,59.482,0,0,0,5.2,14.9c.371.664,1.065,1.544.571,2.177-.633.942-1.544.124-2.424,0a11.007,11.007,0,0,1-7.842-4.307,41.682,41.682,0,0,0-4.631-4.755,9.155,9.155,0,0,1-2.825-4.925c-1-4.2-2.146-8.367-3.242-12.551-.108-.417-.247-.834-.34-1.266-.232-1.034-.6-1.806-1.9-1.714s-1.389.772-1.652,1.7c-3.288,11.5-2.964,15.592,2.964,25.766,1.93,3.319,4.091,7.132,7.472,8.753,8.182,3.937,16.318,8.553,26.013,7.534,3.628-.386,5.99,2.208,9.263,3.721-7.457,2.362-14.234,4-21.52,1.744-6.175-1.9-12.026-3.736-16.658-8.522-5.542-5.727-12-10.652-14.527-18.773-.865-2.779-1.636-5.573-2.362-8.383-1.667-6.484-3.242-12.983-4.878-19.483-.17-.679-.448-1.328-.9-2.624-1.76,6.36-3.35,12.042-4.863,17.738a5.172,5.172,0,0,0,0,2.331c2.1,9.911,4.045,19.9,10.807,27.989,0,.077.077.154.139.232a58.665,58.665,0,0,0,11.131,11.007,50.837,50.837,0,0,0,15.7,7.379q8.414,2.362,16.75,4.925a9.433,9.433,0,0,0,4.631.216c5.434-1.081,10.807-2.208,16.349-3.088a30.629,30.629,0,0,0,10.807-4.045c6.793-4.06,13.771-7.842,20.7-11.7,1.05-.587,2.377-1.961,3.288,0s4,2.933,1.652,6.005c-2.779,3.659-5.45,6.885-10.7,5.727-.633-.139-1.76-.093-1.683.787a31.247,31.247,0,0,0,2.146,8.661.772.772,0,0,0,.648.355c3.721-.216,7.626,1.158,11.115-.973a70.088,70.088,0,0,1,21.814-9.124,3.088,3.088,0,0,1,3.782,1.281c3.2,4.446,6.654,8.692,9.757,13.184,1.42,2.038,2.624,2.146,4.755,1.127,6.762-3.211,13.647-6.175,20.44-9.263,1.853-.865,2.841-.849,3.8,1.3q8.692,19.56,17.646,39.012a4.832,4.832,0,0,1,.093,4.029c-2.192,5.944-3.921,12.119-6.561,17.846-3.211,6.993-3.705,13.74-.618,20.779,2.841,6.453,3.2,12.875-.571,19.143a1.544,1.544,0,0,1-.093.247,2.316,2.316,0,0,0,.494,2.856,9.14,9.14,0,0,0,7.441,3.458c5.388.293,9.8-.9,13.462-4.971A41.144,41.144,0,0,1,237,282.173a8.275,8.275,0,0,0,2.424-3.088c1.374-3.088,2.7-6.175,4.184-9.139a2.609,2.609,0,0,0-.309-3.088c-1.7-2.254-3.288-4.631-4.925-6.885-.571-.8-1.25-1.544-.818-2.64,1.667-4.076,3.381-8.136,5.064-12.211.278-.633.71-1.22,1.343-.525,1.791,2.007,4.23,3.474,4.971,6.345q2.964,11.532,6.052,23.018a4.631,4.631,0,0,1-.432,3.751c-1.991,3.628-3.906,7.318-5.8,10.992-.371.726-1.189,1.714,0,2.254,3.35,1.544,6.175,4.168,10.143,4.184,5.635,0,11.285.077,16.982,0,3.721,0,6.438-2.624,9.525-4.245a1.544,1.544,0,0,0,.509-1.158c0-4.215.664-8.475-.494-12.628-2.841-10.266-5.774-20.532-8.645-30.783-1.112-3.952-2.177-7.92-3.35-12.181a11.175,11.175,0,0,1,1.359.432q12.482,6.947,24.963,13.894a3.088,3.088,0,0,1,1.636,3.273v21.613a4.724,4.724,0,0,1-1.544,3.721c-2.933,2.81-5.712,5.758-8.645,8.568-1.266,1.22-.973,1.7.525,2.254,5.789,2.13,11.532,4.338,17.939,3.6a33.838,33.838,0,0,1,7.395,0,20.563,20.563,0,0,0,12.8-3.242,2.316,2.316,0,0,0,1.374-2.918c-1.112-5.619-2.007-11.27-3.088-16.889-.942-4.724,1.806-8.475,3.088-12.6.154-.448.942-.741,1.544-1.019,3.736-1.976,7.534-3.844,11.239-5.9a2.3,2.3,0,0,1,3.365.633q11.3,12.767,22.755,25.411a2.949,2.949,0,0,1,.726,3.319c-1.667,4.817-2.655,9.9-5.7,14.157-1.127,1.544-.479,2.115,1.142,2.748,6.638,2.578,13.524,2.578,20.517,2.856,6.005.247,10.807-.88,14.45-5.9a1.543,1.543,0,0,1,.4-.355,3.427,3.427,0,0,0,1.281-3.69ZM43.334,134.4a21.474,21.474,0,0,1,1.4-5.758c.633,2.269,1.2,4.076,1.636,5.928.17.71.8,1.544,0,2.177-.247.2-.988-.124-1.451-.309C44.028,136.038,43.071,135.636,43.334,134.4Zm3.319,8.661c-1.173-.695-1.389-1.883-1.976-3.3,2.377.324,3.288,1.173,1.945,3.273Zm2.856,5.558c-.8-.6-1.1-1.2-.262-2.269a2.022,2.022,0,0,1,.262,2.269Zm18.525-44.863c.509-.8.973-1.621,1.467-2.439,1.1.556,1.112,1.544,1.389,2.316s1.127,1.652.355,2.408-1.544-.139-2.238-.2c-1.7-.124-1.853-.88-1.1-2.084Zm2.3,7.565c-1.652,2.455-3.4,4.847-5.11,7.256a19.05,19.05,0,0,1,.818-9.093c.772-2.408,2.918-.556,4.292-.278,1.636.34.293,1.482-.124,2.115Zm-9.263-6.283H59.76c-3.767,0-3.829,0-2.455-3.335a3.088,3.088,0,0,0-.371-3.088,8.676,8.676,0,0,1-1.945-3.69c2.084-.664,3.535-.324,4.338,1.945s1.606,4.323,2.532,6.484c.525,1.1.262,1.714-.988,1.714ZM62,95.776c1.961.695,3.257,1.173,4.631,1.544s1.3,1.2.633,2.192-.88,2.578-1.914,2.609-1.482-1.683-1.945-2.578-.911-2.084-1.544-3.736Zm5.666,44.276a2.733,2.733,0,0,1-1.744-2.13c-.726-3.365-1.544-6.715-2.223-10.066a2.732,2.732,0,0,1,.247-2.3,106.77,106.77,0,0,1,8.136-10.575c-.262,2.81-.448,5.65-.834,8.445a9.494,9.494,0,0,0,.679,5.141c2.13,5.079,4.153,10.2,6.175,15.33l-.54.371c-3.474-1.4-6.777-2.841-10.1-4.215ZM55.082,152.51c-1,.324-1.019-.4-1.173-.942-.509-1.837-.957-3.69-1.42-5.527l.973-.633c.865,1.112,1.667,2.254,2.609,3.288,1.266,1.636.88,3.134-1.189,3.813Zm9.263,6.005c-.432.571-.88,0-1.281-.293a36.837,36.837,0,0,1-6.36-2.9c2.763-3.088,2.763-3.088,5.2,0,.6.741,1.189,1.544,1.775,2.238.123.262.695.618.432.957Zm6.777,1.451c-1.034.772-1.544.185-2.192-.54l-5.156-6.376c3.643.679,6.885.679,7.719,4.631.046.926.309,1.59-.6,2.285Zm15.3,2.532c0,1.158-.973.695-1.544.355-3.273-1.883-6.561-3.767-9.8-5.681a2.872,2.872,0,0,1-1.065-1.127c-1.837-3.89-3.628-7.8-5.419-11.7l.448-.54a121.82,121.82,0,0,1,16.611,7.719c.34.216.772.648.787.988-.2,3.319-.124,6.592-.247,9.988ZM27.757,124.042c.988,3.952,1.914,7.626,2.933,11.671C25.349,131.792,24.808,129.322,27.757,124.042Zm.957,21.165c-.648-2.7-1.266-5.28-1.914-8.012C31.848,139.789,32.419,142.12,28.714,145.208Zm2.516,2.547c-.185-.618,1.2-2.408,1.714-2.347,1.9.262,1.544,2.285,2.748,4.215-2.069-.834-3.968-.2-4.462-1.93Zm9.263,15.438c-2.671-1.343-6.87-6.947-8.321-11.115,4.2,0,4.863.479,6.175,4.137.741,2.146,1.451,4.323,2.161,6.484a1.312,1.312,0,0,1-.046.448Zm4.168,2.841c-.9-2.516-1.729-5.048-2.594-7.58l.6-.463c2.362,2.377,4.724,4.739,7.071,7.117.154.154.278.618.185.71a9.556,9.556,0,0,1-3.8,1.621c-1.173.324-1.25-.772-1.5-1.451Zm6.839,5.419c-1.25.463-2.115-.679-3.628-1.683,1.7-.309,2.655-1.714,3.751-.448C52.072,169.908,52.072,171.282,51.5,171.452Zm3.319.309a1.822,1.822,0,0,1,0-2.377c1.544-1.019,2.686.525,4.369,1.25-1.667.818-2.81,2.238-4.369,1.173Zm6.87,3.643c-1.343,1.081-2.3-.479-3.5-.756,1.235-.525,2.177-2.007,3.52-.957a1.775,1.775,0,0,1-.015,1.76Zm3.427-.077a2.316,2.316,0,0,1-.139-2.022c.17-.664.726-.664,1.266-.556l3.319.633v.525l-3.088,1.374c-.386.247-.942.6-1.359.093ZM76.324,179.8c-.8,1.065-2.254-.124-3.4-.371-1.451-.324-2.856-.818-4.276-1.25l-.093-.6c1.544-.695,3.211-1.359,4.786-2.1,1.1-.509,1.667,0,1.991.942s1.636,2.547.988,3.427Zm307.94,73.469c3.921,5.527,7.889,11.007,11.872,16.5.741,1.034,1.142,1.853-.679,2.069-6.036.679-12.057,1.4-17.646,2.069-2.053.278-2.47-.324-1.93-1.9,2.115-6.175,4.184-12.35,6.252-18.526C382.705,251.729,383.276,251.868,384.264,253.273Zm-1.3-48.475q-.88,19.776-1.76,39.567c0,1.544-.525,2.3-2.208,2.192-9.263-.587-18.618-1.112-27.927-1.7-2.3-.139-.988-1.25-.4-1.961q7.719-9.448,15.438-18.819c4.354-5.311,8.676-10.652,13.091-15.9,1.775-2.1,2.316-4.631,3.3-7.132h0c.17-.479.324-.973.494-1.451a8.12,8.12,0,0,1-.031,5.2Zm-14.4-52.89c4.431,10.652,8.969,21.258,13.539,31.848.741,1.714.865,2.532-1.544,2.331q-29.07-2.609-58.139-5.125a17.2,17.2,0,0,1-1.883-.262l16.982-11.439c9.139-6.175,18.309-12.227,27.4-18.525,2.069-1.25,2.81-.9,3.674,1.173Zm-49.571-26.244q22.323,10.513,44.693,20.934a8.463,8.463,0,0,1,1.1.756q-2.316,1.714-4.631,3.242-19.946,13.416-39.907,26.769c-.695.463-1.4,1.451-2.269.973s-.587-1.544-.587-2.455c-.278-16.194-.509-32.42-.8-48.568,0-1.883.432-2.563,2.439-1.606Zm-5.326.679c.278,16.982.648,33.963.973,50.945a15.337,15.337,0,0,1-.2,1.76l-67.17-41.7a6.175,6.175,0,0,1,3.829-1.25q29.965-5.836,59.93-11.563c1.667-.324,2.624-.324,2.671,1.853Zm-60.378-20.594c.432-1.544,1.034-2.022,2.609-1.544q25.951,8.63,51.918,17.2c.154,0,.262.216.772.664l-26.538,5.079c-11.517,2.208-23.018,4.384-34.5,6.669-2.053.417-2.717.278-2.022-2.022C248.117,123.178,250.68,114.471,253.289,105.748Zm-29.594,3.535c8.367-1.652,16.719-3.427,25.071-5.11.787-.154,2.238-.865,1.652,1.112-2.7,9.17-5.434,18.34-8.275,27.974-3.01-3.35-5.712-6.33-8.383-9.263-3.628-4.076-7.21-8.2-10.807-12.227-1.451-1.513-1.374-2.069.664-2.486Zm27,58.432,17.368,57.954c.926,3.088.926,3.2-2.393,2.856-13.894-1.4-27.68-2.871-41.513-4.245-1.652-.17-2.1-.834-1.883-2.377q2.13-16.1,4.215-32.219a8.846,8.846,0,0,1,.463-1.775l15.006-44.863c.139-.4.324-.787.787-1.868,2.733,9.355,5.3,17.923,7.873,26.538Zm-47.58-76.8a54.927,54.927,0,0,1,8.136,8.522c5.9,8.553,8.29,18.387,11.3,28.035.448,1.4.293,2.13-1.436,2.084h-11.9c-1.328,0-1.853-.509-2.007-1.822-1.451-11.98-2.964-23.96-4.446-35.939C202.745,91.654,202.884,91.484,203.116,90.913Zm1.544,54.944c-2.64-2.038-4.631-3.721-4.956-6.885-.448-4.2-1.343-8.336-2.038-12.5h0c-.278-.525-.741-1.1-.154-1.544.293-.247.587.185.756.494,5.2,3.5,7.549,8.213,6.438,14.558a39.426,39.426,0,0,0-.031,5.882Zm.772,5.527a2.47,2.47,0,0,0,2.269-2.9V135.25c0-2.1.525-3.088,2.794-2.949,3.612.154,7.225,0,10.807,0,1.652,0,2.347.417,2.223,2.285-.695,9.571-1.266,19.158-1.806,28.745-.093,1.652-.448,2.47-2.316,2.084-12.258-2.5-24.515-4.94-36.773-7.41-.216,0-.386-.278-.942-.679l13.261-3.365C198.392,153.1,201.881,152.124,205.432,151.383Zm-6.175-60.609c.479.108.479.679.54,1.112q2.084,16.982,4.184,33.963l-.54.355c-1.389-1.3-2.81-2.563-4.168-3.875-4.847-4.739-9.633-9.525-14.527-14.2-1.281-1.235-1.42-2.084,0-3.4,4.431-4.276,8.738-8.676,13.091-13.014C198.238,91.3,198.593,90.635,199.257,90.774ZM195,128.952c.741,4.153,1.359,7.6,1.991,11.038.139.834-.139,1.42-.973,1.544-5.388,1.065-10.807,2.1-15.916,3.088Zm-14.048,8.614c.432-9.016.88-18.016,1.359-27.788,3.674,3.566,6.808,6.592,9.927,9.649,4.153,4.045,4.168,4.06,0,8.2-3.5,3.443-7.071,6.824-10.606,10.235Zm-4.631-38.595c2.794-2.779,5.82-5.357,8.553-8.2a7.009,7.009,0,0,1,6.175-2.547,44.777,44.777,0,0,0,4.986,0l.479.772c-2.254,2.177-4.508,4.323-6.746,6.53s-4.847,4.631-7.04,7.1a3.952,3.952,0,0,1-5.28,1.266c-1.328-.618-3.659-.309-3.983-1.544-.293-1.4,1.822-2.3,2.9-3.365Zm-23.543,15.778c5.172-3.088,10.39-5.928,15.438-9.047,1.714-1.065,3.165-.494,4.755,0l4.631,1.374c-4.631,3.35-8.722,6.36-12.875,9.263-1.636,1.173-3.6.525-5.4.633a43.951,43.951,0,0,1-7.549-.818c-.185-.973.571-1.112,1.05-1.389Zm11.455,10.066c0,1.019-.6,1.683-1.436,1.343-1.544-.587-3.906,0-4.137-2.455.571-1.683-.2-4.045,2.748-3.721,1.652.2,2.918,2.269,2.871,4.847Zm-33.639,5.3c4.446-3.3,8.985-6.484,13.385-9.849a6.175,6.175,0,0,1,6.052-1.436c1.065.355,2.285.247,3.381.54s2.732-.371,2.64,1.359.618,3.937-1.93,4.94c-9.741,3.8-19.452,7.719-29.162,11.563a6.485,6.485,0,0,1-1.235.247,33.964,33.964,0,0,1,6.916-7.348Zm-18.772,16.982a16.75,16.75,0,0,1,4.122-2.563l3.721,2.841c4.137,3.18,4.137,3.18,0,6.175-2.285,1.652-4.631,3.257-6.839,4.971-1.173.9-1.883,1.081-2.918-.371-4.693-6.577-4.817-6.546,1.961-11.1Zm-20.378,5.619h5.836c4.631-1.729,6.993,1.76,9.263,5.666,1.714,2.887,1.868,2.81-1.142,4.168a34.655,34.655,0,0,0-4.8,2.192c-3.242,2.1-6.592,1.25-9.973.71-1.3-.2-1.4-1.081-1.4-2.13v-8.46c.046-1.621.695-2.254,2.269-2.192ZM81.048,179.65c-.139.108-.34.293-.448.247-1.945-.587-1.544-2.624-2.424-3.921-.448-.726-.911-1.744.463-2.1,3.643-.942,7.3-1.791,10.945-2.686l.432.818Zm3.829.525,12.2-10.343a2.624,2.624,0,0,1,2.007-.4l13.709,1.019c-3.072,4.091-14.373,8.1-27.865,9.68Zm31.555-12.458-12.072-.741-.278-.756c6.839-2.038,12.026-6.746,17.985-10.467a65.149,65.149,0,0,1-4.076,11.254c-.232.648-.9.695-1.513.664Zm14.7-6.824a11.56,11.56,0,0,1-1.544.957l-6.932,3.69-.664-.463c1.544-3.782,3.088-7.58,4.631-11.362.34-.849,1.019-.834,1.744-.494l2.393,1.127c4.137,1.976,4.261,3.628.417,6.5Zm-10.606-16.611c-1.2-1.034-1.544-1.544.232-2.208q17.553-6.947,35.044-13.894c.494-.2,1-.309,1.544-.494.926.34,2.3.432,2.794,1.142s-.695,1.544-1.3,2.223c-6.824,7.117-13.709,14.157-20.517,21.289a2.81,2.81,0,0,1-3.844.772,61.752,61.752,0,0,1-13.956-8.83ZM154.1,174.54a45.8,45.8,0,0,0-16.6,7.132c-2.933,1.976-6.052,2.053-9.263,1.991-1.914,0-2.084-1.389-2.177-2.686-.093-1.544,1.281-1.3,2.1-1.173,2.547.34,4.091-.9,5.465-2.841a53.744,53.744,0,0,1,4.631-5.758,2.47,2.47,0,0,0,.093-3.844c-.942-1.158-1.544-2.578-2.609-3.659-1.544-1.544-.8-2.794.293-4.107.587-.695,1.25-.957,1.544,0,2.887,7.842,10.405,9.664,16.781,12.952.479.247.942.494,1.389.772.124.077.2.262.309.417A2.748,2.748,0,0,1,154.1,174.54Zm3.674-3.443-9.386-4.631.17-.71,8.259-1.374c.695-.124,1.544-.293,1.667.71.247,1.837.463,3.674.571,5.511.062.988-.679.849-1.281.54Zm1.081-12.35c-.247,1.544-.834,2.47-2.578,2.7-3.659.494-7.287,1.189-10.93,1.853a2.532,2.532,0,0,1-3.088-1.436c-4.029-7.333-4.863-4.631,1.142-10.9,5.712-5.974,11.5-11.887,17.26-17.831a6.639,6.639,0,0,1,2.671-2.022,68.772,68.772,0,0,1-1.544,9.957c-.9,5.974-1.961,11.856-2.933,17.754Zm13.462,1.112c.154,7.719,0,15.438,0,23.249v2.871l-.664.278c-3.088-4.076-6.731-7.827-8.877-12.35a23.249,23.249,0,0,1-1.312-13.493c1.683-10.513,3.551-21,5.527-31.462a18.525,18.525,0,0,0-.695-8.028c-.262-1.127-.34-1.991.756-2.763,3.875-2.748,7.719-5.558,11.949-8.63a35.077,35.077,0,0,1,0,7.518c-.278,6.777-.741,13.539-.911,20.316A7.843,7.843,0,0,1,175,143.988a30.877,30.877,0,0,0-4.77,4.94,91.782,91.782,0,0,0,13.446-2.146c3.89-.679,7.719-1.544,11.656-2.3a6.5,6.5,0,0,1,6.947,3.458c.726,1.544-.818,1.25-1.4,1.4-5.789,1.544-11.609,2.949-17.414,4.4-2.733.679-5.434,1.544-8.213,1.991s-2.98,1.822-2.933,4.2Zm25.4,19.313c-6.546,3.088-13.184,5.928-19.73,8.954-1.945.9-2.64.571-2.624-1.667q.124-12.15,0-24.315c0-2.146.756-2.439,2.717-2.038,14.5,2.964,29.023,5.758,43.5,8.753,2.192.448,2.671-.077,2.779-2.192.556-9.942,1.158-19.869,1.945-29.8a30.428,30.428,0,0,0-1.791-12.937c-.88-2.47-1.544-5.017-2.285-7.534l.571-.34c4.323,4.848,8.306,10.081,13.091,14.419s4.817,8.367,2.686,14.049c-4.894,13.03-9.062,26.244-13.431,39.521-.664,2.007-1.328,2.64-3.52,1.806-6.33-2.408-12.783-4.523-19.143-6.854a5.728,5.728,0,0,0-4.77.17Zm5.095,3.088,19.359,6.9c1.544.54,1.158,1.822,1.019,2.9-.772,6.283-1.544,12.566-2.424,18.834-.309,2.408-.648,4.8-.957,7.21l-.695.139c-5.342-11.81-10.59-23.558-16.318-35.986Zm11.671,63.836c2.007-5.635,4.076-11.239,6.036-16.889.509-1.451,1.065-1.791,2.393-.787,5.017,3.721,10.081,7.379,15.145,11.023,1.158.834,1.544,1.436-.108,2.115-8.167,3.474-16.318,6.993-24.485,10.482a4.909,4.909,0,0,1-1.065.124c.756-2.223,1.359-4.2,2.069-6.144Zm-2.362,12.582c-.324-1.158.077-1.652,1.3-1.544l17.769,2.13c.093.232.17.463.247.695l-13.894,12.211c-.911.8-1.544.71-1.853-.54-1.127-4.384-2.362-8.707-3.582-13.03Zm2.115,24.562c.679-1.621,1.312-3.257,1.93-4.909a2.161,2.161,0,0,1,1.467-1.4l18.248-5.125a20.564,20.564,0,0,1-4.384,4.431,73.212,73.212,0,0,0-6.515,5.789c-2.686,3.088-5.99,3.242-9.587,3.088-1.4-.2-1.683-.726-1.173-1.945Zm11.563,4.276c-2.7,2.223-6.453.247-9.726.587.139,0,.293-.232.417-.2,4.909.942,8.29-1.544,11.563-4.755a107.144,107.144,0,0,1,9.618-8.059c-1.9,6.052-7.534,8.707-11.887,12.35Zm8.383-18.217-11.409,3.088c-.139-.2-.278-.386-.4-.587l12.011-10.606a.942.942,0,0,1,1.544.185l.17.2c4.956,5.125,4.848,5.8-1.93,7.642Zm4.878-23.311c-1.25,3.088-2.532,6.175-3.813,9.263-.309.756-.726,1.451-1.714,1.343l-17.136-1.976-.077-.618,12.489-5.388,8.969-3.829c.463-.2,1.065-.54,1.42,0,.2.185,0,.772-.154,1.127Zm9.911-.571c-5.9-6.947-13.894-11.316-20.918-16.843-.185-.154-.324-.386-.88-1.019l40.139,4.184-16.534,13.894a1.173,1.173,0,0,1-1.822-.293Zm3.273,6.592c-.17-.664-.448-1.451.448-1.4l1.1.2c6.314,1.544,12.628,3.165,18.942,4.631,1.544.386,1.961.9.679,2.177q-7.132,7.04-14.187,14.172c-.957.957-1.544,1.05-1.9-.448-1.683-6.484-3.4-12.937-5.094-19.405Zm5.218,26.507c.726-1.312,2.053-.772,3.088-.679,4.986.479,9.957,1.05,14.928,1.544h0l.957.185c-.216.756-.865.679-1.436.756l-22.339,7.024c1.822-3.443,3.257-6.191,4.786-8.908Zm25.581,5.187a6.7,6.7,0,0,0,0,.787c0,4.631-2.732,7.487-7.472,7.549h-16.4a8.012,8.012,0,0,1-4.847-1.775,4.168,4.168,0,0,1,2.408-1.173c7.9-2.486,15.824-4.863,23.7-7.441,2.192-.772,2.856-.185,2.594,1.976Zm-5.419-23.9c1.467,5.249,2.918,10.5,4.431,15.731.386,1.389,0,1.822-1.436,1.544-6.067-.648-12.181-1.312-18.294-1.945-1.544-.154-1.683-.695-.633-1.729q7.1-7.055,14.187-14.157c1.019-1.127,1.436-.6,1.729.479Zm-2.362-8.429c.262.942.17,1.744-1.019,1.467-6.9-1.636-13.786-3.365-21.335-5.218l9.8-8.244c2.022-1.683,4.076-3.365,6.083-5.079.926-.8,1.544-.71,1.822.509q2.3,8.228,4.631,16.488Zm-3.443-24.438c-1.1-.185-.957-1.544-1.2-2.393q-12.35-40.957-24.562-81.96c-.232-.741-.417-1.544-.834-3.088l16.3,10.112L311.3,180.576c2.64,1.652,2.594,1.636.463,3.921l-37.946,40.818C273.235,225.948,272.71,227.029,271.815,226.936Zm27.418,17.738c-8.012-4.446-16.009-8.923-24.037-13.338-1.312-.726-2.007-1.25-.664-2.671q19.93-21.32,39.83-42.717c.154-.17.448-.2.957-.432,1,5.187,1.991,10.251,2.949,15.33l9.263,48.537c.587,3.088.525,3.088-2.424,2.455-6.623-1.544-13.23-3.088-19.853-4.446a21.811,21.811,0,0,1-5.959-2.717ZM304.064,273V252.177c0-1.127,0-2.13,1.7-1.729,6.669,1.544,13.338,3.088,20.857,4.724Zm18.9-7.719c-2.64,1.019-5.2,2.285-7.719,3.427l-.309-.54,10.807-8.506c.108,2.563-.124,4.631-2.717,5.619Zm.664,2.841c.957-.432,1.451-.2,1.652.88.6,3.458,1.281,6.916,1.914,10.374.185,1.019-.17,1.544-1.3,1.22q-8.892-2.393-17.769-4.631l-.077-.772Zm-27.109,15.438c1.883-1.7,3.8-3.365,5.666-5.079a2.13,2.13,0,0,1,2.161-.571c5.079,1.359,10.158,2.7,15.222,4.554l-22.478,2.069Zm31.4,1.065.216.834c-1.991,1.281-3.952,2.779-6.453,2.81-6.252.108-12.489,0-18.742,0a4.014,4.014,0,0,1-2.918-1.158ZM342.458,246.4c-3.257,1.544-6.468,3.2-9.649,4.925-1.42.772-1.976.54-2.269-1.05q-3.088-16.874-6.376-33.732-1.9-10.127-3.782-20.255h0a2.13,2.13,0,0,1-.355-1.976c.818.232.8.88.926,1.436q11.223,23.913,22.478,47.858c.741,1.359.525,2.053-.911,2.748Zm2.871-5.465q-12.443-26.723-24.994-53.369c-.34-.726-.633-1.467-.973-2.177-.633-1.281-.309-1.837,1.158-1.544l36.85,3.088c7.549.633,15.1,1.312,22.647,1.914,3.4.262,3.227.185,2.393,3.335a55.854,55.854,0,0,1-12.906,23.249c-7.441,8.352-14.311,17.2-21.32,25.92-1.436,1.837-1.914,1.436-2.794-.432Zm4.323,6.87c6.561.371,12.35.664,18.078,1.019,3.6.232,7.194.54,10.807.757,1.3,0,1.714.494,1.25,1.791q-3.458,9.988-6.793,19.992c-.525,1.544-1.1,1.235-1.945.293-6.87-7.781-13.8-15.515-21.335-23.9Zm20.579,45.372c-.772-.309-1.868-.34-1.3-1.683.432-.988.957-1.544,2.208-1.158,3.983,1.312,7.981,2.532,11.98,3.782a22,22,0,0,1-12.829-.988Zm22.694.988c-6.7-2.084-13.4-4.23-20.069-6.314-1.42-.432-1.76-1.142-1.25-2.532.648-1.806,1.2-3.674,1.7-5.542.386-1.436,1.127-1.544,2.331-.926q10.9,5.311,21.829,10.56c.479.216.911.448,1,.726-.062,1.467-4.276,4.369-5.48,3.983Zm6.561-7.009-20.409-9.819v-.6L392,275.2h.525c6.283-.571,6.33-.571,6.638,5.944.216,1.744.926,3.628.386,5.974Z" transform="translate(-22.53 -85.02)"/>
      <path id="Path_35" data-name="Path 35" class="cls-1" d="M255.67,160.17c.741,1.173.278,2.516.54,3.751C256.288,162.64,257.044,161.251,255.67,160.17Z" transform="translate(104.258 -44.143)"/>
      <path id="Path_36" data-name="Path 36" class="cls-1" d="M216.088,156.728c-.494-.139-.726,0-.571.54h0Z" transform="translate(82.397 -46.043)"/>
      <path id="Path_37" data-name="Path 37" class="cls-1" d="M136.634,111.14c-1.019,0-.756.556-.6,1.112h0Z" transform="translate(39.119 -70.805)"/>
      <path id="Path_38" data-name="Path 38" class="cls-1" d="M49.218,132l-.618.648C49.218,132.772,49.372,132.54,49.218,132Z" transform="translate(-8.345 -59.462)"/>
      <path id="Path_39" data-name="Path 39" class="cls-1" d="M186.539,210.89h0l-.479.942C186.369,211.585,186.894,211.477,186.539,210.89Z" transform="translate(66.405 -16.562)"/>
    </g>
    <g id="Group_124" data-name="Group 124" transform="translate(6161.405 6682.958) rotate(-118)">
      <g id="Pil" transform="translate(8256.583 -1738.483) rotate(-8)">
        <path id="Path_40" data-name="Path 40" class="cls-2" d="M9.587,5,7.017,4.433,2.574,8.375.869,5.6c-2.006-3.256.019-2.957.545-3.875C1.834.908,1.392-.547,4.478.213L9.587,1.471V5L46.739,20.255" transform="matrix(0.999, 0.035, -0.035, 0.999, 0.707, 0)"/>
        <path id="Path_41" data-name="Path 41" class="cls-3" d="M0,5.272,3.682,0l.381.091L6.221,4.22" transform="translate(1.135 1.023)"/>
      </g>
    </g>
    <g id="Group_125" data-name="Group 125" transform="matrix(0.469, -0.883, 0.883, 0.469, -1584.53, 8325.224)">
      <g id="Pil-2" data-name="Pil" transform="translate(8256.583 -1738.483) rotate(-8)">
        <path id="Path_40-2" data-name="Path 40" class="cls-2" d="M9.587,5,7.017,4.433,2.574,8.375.869,5.6c-2.006-3.256.019-2.957.545-3.875C1.834.908,1.392-.547,4.478.213L9.587,1.471V5L46.739,20.255" transform="matrix(0.999, 0.035, -0.035, 0.999, 0.707, 0)"/>
        <path id="Path_41-2" data-name="Path 41" class="cls-3" d="M0,5.272,3.682,0l.381.091L6.221,4.22" transform="translate(1.135 1.023)"/>
      </g>
    </g>
    <g id="Group_136" data-name="Group 136">
      <g id="Group_123" data-name="Group 123" transform="matrix(0.819, -0.574, 0.574, 0.819, -4925.522, 6430.925)">
        <g id="Pil-3" data-name="Pil" transform="translate(8259.627 -1745.082) rotate(8)">
          <path id="Path_40-3" data-name="Path 40" class="cls-2" d="M9.587,15.254l-2.569.568L2.574,11.88l-1.7,2.775c-2.006,3.256.019,2.957.545,3.875.421.817-.021,2.273,3.065,1.512l5.109-1.258V15.254L46.738,0" transform="matrix(0.999, -0.035, 0.035, 0.999, 0, 1.631)"/>
          <path id="Path_41-3" data-name="Path 41" class="cls-3" d="M0,0,3.682,5.272l.381-.091L6.221,1.052" transform="translate(1.135 15.579)"/>
        </g>
      </g>
      <rect id="Rectangle_137" data-name="Rectangle 137" class="cls-1" width="15" height="3" transform="matrix(0.934, 0.358, -0.358, 0.934, 843.036, 277.412)"/>
    </g>
  </g>
</svg>
